M48
; DRILL file {KiCad 6.0.9} date Thu 08 Dec 2022 07:51:47 PM PST
; FORMAT={-:-/ absolute / metric / decimal}
; #@! TF.CreationDate,2022-12-08T19:51:47-08:00
; #@! TF.GenerationSoftware,Kicad,Pcbnew,6.0.9
; #@! TF.FileFunction,Plated,1,4,PTH
FMAT,2
METRIC
; #@! TA.AperFunction,Plated,PTH,ViaDrill
T1C0.330
; #@! TA.AperFunction,Plated,PTH,ComponentDrill
T2C0.800
; #@! TA.AperFunction,Plated,PTH,ComponentDrill
T3C1.016
%
G90
G05
T1
X122.326Y-118.974
X128.676Y-85.446
X129.438Y-88.24
X131.928Y-77.318
X134.015Y-75.218
X134.015Y-77.293
X135.382Y-88.24
X135.636Y-85.75
X136.246Y-99.679
X136.296Y-94.286
X136.583Y-77.293
X136.626Y-75.261
X139.09Y-86.817
X139.374Y-104.983
X144.149Y-104.932
X149.302Y-77.147
X151.232Y-118.618
X151.841Y-86.817
X154.381Y-86.817
X156.87Y-86.817
X157.074Y-91.543
X157.074Y-94.599
X164.389Y-81.89
X169.266Y-70.866
X169.469Y-95.961
X176.327Y-100.178
X176.428Y-108.814
X176.663Y-86.215
X176.664Y-87.027
X176.667Y-87.839
X176.672Y-83.785
X176.693Y-81.352
X176.705Y-82.172
X176.72Y-88.65
X176.731Y-80.492
X176.739Y-84.594
X176.745Y-85.406
X176.784Y-91.237
X176.785Y-82.98
X176.788Y-89.459
X176.803Y-90.288
X176.827Y-79.686
X176.835Y-78.283
X177.698Y-96.52
X177.698Y-110.592
X177.8Y-80.67
X177.952Y-89.154
X178.257Y-78.181
X178.257Y-91.288
X179.861Y-92.507
X179.872Y-77.278
X181.936Y-77.267
X181.936Y-92.507
X182.034Y-96.965
X182.034Y-112.154
X185.5Y-77.318
X185.547Y-97.016
X185.551Y-92.507
X185.598Y-112.154
X187.575Y-77.318
X187.615Y-92.496
X187.622Y-97.016
X187.673Y-112.154
X189.179Y-98.298
X189.179Y-110.846
X189.332Y-78.232
X189.332Y-91.237
X190.246Y-108.814
X190.398Y-89.103
X190.602Y-100.33
X190.805Y-80.67
T2
X131.47Y-81.89
X131.47Y-84.43
X131.47Y-86.97
X131.47Y-89.51
X131.47Y-92.05
X131.47Y-94.59
X131.47Y-97.13
X131.47Y-99.67
X131.47Y-102.21
X131.47Y-104.75
X131.47Y-107.29
X134.01Y-79.35
X134.01Y-81.89
X134.01Y-84.43
X134.01Y-86.97
X134.01Y-89.51
X134.01Y-92.05
X134.01Y-94.59
X134.01Y-97.13
X134.01Y-99.67
X134.01Y-102.21
X134.01Y-104.75
X134.01Y-107.29
X134.01Y-109.83
X136.55Y-79.35
X136.55Y-81.89
X136.55Y-107.29
X136.55Y-109.83
X139.09Y-79.35
X139.09Y-81.89
X139.09Y-107.29
X139.09Y-109.83
X141.63Y-79.35
X141.63Y-81.89
X141.63Y-107.29
X141.63Y-109.83
X144.17Y-79.35
X144.17Y-81.89
X144.17Y-107.29
X144.17Y-109.83
X146.71Y-79.35
X146.71Y-81.89
X146.71Y-107.29
X146.71Y-109.83
X149.25Y-79.35
X149.25Y-81.89
X149.25Y-107.29
X149.25Y-109.83
X151.79Y-79.35
X151.79Y-81.89
X151.79Y-107.29
X151.79Y-109.83
X154.33Y-79.35
X154.33Y-81.89
X154.33Y-107.29
X154.33Y-109.83
X156.87Y-79.35
X156.87Y-81.89
X156.87Y-107.29
X156.87Y-109.83
X159.41Y-79.35
X159.41Y-81.89
X159.41Y-84.43
X159.41Y-86.97
X159.41Y-89.51
X159.41Y-92.05
X159.41Y-94.59
X159.41Y-97.13
X159.41Y-99.67
X159.41Y-102.21
X159.41Y-104.75
X159.41Y-107.29
X159.41Y-109.83
X161.95Y-81.89
X161.95Y-84.43
X161.95Y-86.97
X161.95Y-89.51
X161.95Y-92.05
X161.95Y-94.59
X161.95Y-97.13
X161.95Y-99.67
X161.95Y-102.21
X161.95Y-104.75
X161.95Y-107.29
T3
X122.174Y-70.866
X124.714Y-70.866
X127.254Y-70.866
X129.794Y-70.866
X131.318Y-119.126
X132.334Y-70.866
X133.858Y-119.126
X134.874Y-70.866
X136.398Y-119.126
X137.414Y-70.866
X138.938Y-119.126
X139.954Y-70.866
X141.478Y-119.126
X142.494Y-70.866
X144.018Y-119.126
X145.034Y-70.866
X146.558Y-119.126
X149.098Y-70.866
X149.098Y-119.126
X151.638Y-70.866
X154.178Y-70.866
X154.178Y-119.126
X156.718Y-70.866
X156.718Y-119.126
X159.258Y-70.866
X159.258Y-119.126
X161.798Y-70.866
X161.798Y-119.126
X164.338Y-70.866
X164.338Y-119.126
X166.878Y-70.866
X166.878Y-119.126
X169.418Y-119.126
X171.958Y-70.866
X171.958Y-119.126
X174.498Y-70.866
X177.038Y-70.866
X177.038Y-119.126
X179.578Y-70.866
X179.578Y-119.126
X182.118Y-70.866
X182.118Y-119.126
X184.658Y-70.866
X184.658Y-119.126
X187.198Y-70.866
X187.198Y-119.126
X189.738Y-70.866
X189.738Y-119.126
X192.278Y-119.126
X194.818Y-119.126
X197.358Y-70.866
X197.358Y-73.406
X197.358Y-75.946
X197.358Y-78.486
X197.358Y-81.026
X197.358Y-83.566
X197.358Y-86.106
X197.358Y-88.646
X197.358Y-91.186
X197.358Y-93.726
X197.358Y-96.266
X197.358Y-98.806
X197.358Y-101.346
X197.358Y-103.886
X197.358Y-106.426
X197.358Y-108.966
X197.358Y-111.506
X197.358Y-114.046
X199.898Y-70.866
X199.898Y-73.406
X199.898Y-75.946
X199.898Y-78.486
X199.898Y-81.026
X199.898Y-83.566
X199.898Y-86.106
X199.898Y-88.646
X199.898Y-91.186
X199.898Y-93.726
X199.898Y-96.266
X199.898Y-98.806
X199.898Y-101.346
X199.898Y-103.886
X199.898Y-106.426
X199.898Y-108.966
X199.898Y-111.506
X199.898Y-114.046
T0
M30
