%TF.GenerationSoftware,KiCad,Pcbnew,6.0.9*%
%TF.CreationDate,2022-12-08T19:51:44-08:00*%
%TF.ProjectId,i960SxProcessorMegaShieldFormFactor,69393630-5378-4507-926f-636573736f72,rev?*%
%TF.SameCoordinates,Original*%
%TF.FileFunction,Copper,L2,Inr*%
%TF.FilePolarity,Positive*%
%FSLAX46Y46*%
G04 Gerber Fmt 4.6, Leading zero omitted, Abs format (unit mm)*
G04 Created by KiCad (PCBNEW 6.0.9) date 2022-12-08 19:51:44*
%MOMM*%
%LPD*%
G01*
G04 APERTURE LIST*
%TA.AperFunction,ComponentPad*%
%ADD10C,1.727200*%
%TD*%
%TA.AperFunction,ComponentPad*%
%ADD11O,1.727200X1.727200*%
%TD*%
%TA.AperFunction,ComponentPad*%
%ADD12O,1.727200X2.032000*%
%TD*%
%TA.AperFunction,ComponentPad*%
%ADD13R,1.422400X1.422400*%
%TD*%
%TA.AperFunction,ComponentPad*%
%ADD14C,1.422400*%
%TD*%
%TA.AperFunction,ViaPad*%
%ADD15C,0.685800*%
%TD*%
%TA.AperFunction,Conductor*%
%ADD16C,0.254000*%
%TD*%
G04 APERTURE END LIST*
D10*
X197358000Y-114046000D03*
D11*
X199898000Y-114046000D03*
X197358000Y-111506000D03*
X199898000Y-111506000D03*
X197358000Y-108966000D03*
X199898000Y-108966000D03*
X197358000Y-106426000D03*
X199898000Y-106426000D03*
X197358000Y-103886000D03*
X199898000Y-103886000D03*
X197358000Y-101346000D03*
X199898000Y-101346000D03*
X197358000Y-98806000D03*
X199898000Y-98806000D03*
X197358000Y-96266000D03*
X199898000Y-96266000D03*
X197358000Y-93726000D03*
X199898000Y-93726000D03*
X197358000Y-91186000D03*
X199898000Y-91186000D03*
X197358000Y-88646000D03*
X199898000Y-88646000D03*
X197358000Y-86106000D03*
X199898000Y-86106000D03*
X197358000Y-83566000D03*
X199898000Y-83566000D03*
X197358000Y-81026000D03*
X199898000Y-81026000D03*
X197358000Y-78486000D03*
X199898000Y-78486000D03*
X197358000Y-75946000D03*
X199898000Y-75946000D03*
X197358000Y-73406000D03*
X199898000Y-73406000D03*
X197358000Y-70866000D03*
X199898000Y-70866000D03*
D12*
X131318000Y-119126000D03*
X133858000Y-119126000D03*
X136398000Y-119126000D03*
X138938000Y-119126000D03*
X141478000Y-119126000D03*
X144018000Y-119126000D03*
X146558000Y-119126000D03*
X149098000Y-119126000D03*
X154178000Y-119126000D03*
X156718000Y-119126000D03*
X159258000Y-119126000D03*
X161798000Y-119126000D03*
X164338000Y-119126000D03*
X166878000Y-119126000D03*
X169418000Y-119126000D03*
X171958000Y-119126000D03*
X177038000Y-119126000D03*
X179578000Y-119126000D03*
X182118000Y-119126000D03*
X184658000Y-119126000D03*
X187198000Y-119126000D03*
X189738000Y-119126000D03*
X192278000Y-119126000D03*
X194818000Y-119126000D03*
X122174000Y-70866000D03*
X124714000Y-70866000D03*
X127254000Y-70866000D03*
X129794000Y-70866000D03*
X132334000Y-70866000D03*
X134874000Y-70866000D03*
X137414000Y-70866000D03*
X139954000Y-70866000D03*
X142494000Y-70866000D03*
X145034000Y-70866000D03*
X149098000Y-70866000D03*
X151638000Y-70866000D03*
X154178000Y-70866000D03*
X156718000Y-70866000D03*
X159258000Y-70866000D03*
X161798000Y-70866000D03*
X164338000Y-70866000D03*
X166878000Y-70866000D03*
X171958000Y-70866000D03*
X174498000Y-70866000D03*
X177038000Y-70866000D03*
X179578000Y-70866000D03*
X182118000Y-70866000D03*
X184658000Y-70866000D03*
X187198000Y-70866000D03*
X189738000Y-70866000D03*
D13*
X131470401Y-94589599D03*
D14*
X134010401Y-94589599D03*
X131470401Y-97129599D03*
X134010401Y-97129599D03*
X131470401Y-99669599D03*
X134010401Y-99669599D03*
X131470401Y-102209599D03*
X134010401Y-102209599D03*
X131470401Y-104749599D03*
X134010401Y-104749599D03*
X131470401Y-107289599D03*
X134010401Y-109829599D03*
X134010401Y-107289599D03*
X136550401Y-109829599D03*
X136550401Y-107289599D03*
X139090401Y-109829599D03*
X139090401Y-107289599D03*
X141630401Y-109829599D03*
X141630401Y-107289599D03*
X144170401Y-109829599D03*
X144170401Y-107289599D03*
X146710401Y-109829599D03*
X146710401Y-107289599D03*
X149250401Y-109829599D03*
X149250401Y-107289599D03*
X151790401Y-109829599D03*
X151790401Y-107289599D03*
X154330401Y-109829599D03*
X154330401Y-107289599D03*
X156870401Y-109829599D03*
X156870401Y-107289599D03*
X159410401Y-109829599D03*
X161950401Y-107289599D03*
X159410401Y-107289599D03*
X161950401Y-104749599D03*
X159410401Y-104749599D03*
X161950401Y-102209599D03*
X159410401Y-102209599D03*
X161950401Y-99669599D03*
X159410401Y-99669599D03*
X161950401Y-97129599D03*
X159410401Y-97129599D03*
X161950401Y-94589599D03*
X159410401Y-94589599D03*
X161950401Y-92049599D03*
X159410401Y-92049599D03*
X161950401Y-89509599D03*
X159410401Y-89509599D03*
X161950401Y-86969599D03*
X159410401Y-86969599D03*
X161950401Y-84429599D03*
X159410401Y-84429599D03*
X161950401Y-81889599D03*
X159410401Y-79349599D03*
X159410401Y-81889599D03*
X156870401Y-79349599D03*
X156870401Y-81889599D03*
X154330401Y-79349599D03*
X154330401Y-81889599D03*
X151790401Y-79349599D03*
X151790401Y-81889599D03*
X149250401Y-79349599D03*
X149250401Y-81889599D03*
X146710401Y-79349599D03*
X146710401Y-81889599D03*
X144170401Y-79349599D03*
X144170401Y-81889599D03*
X141630401Y-79349599D03*
X141630401Y-81889599D03*
X139090401Y-79349599D03*
X139090401Y-81889599D03*
X136550401Y-79349599D03*
X136550401Y-81889599D03*
X134010401Y-79349599D03*
X131470401Y-81889599D03*
X134010401Y-81889599D03*
X131470401Y-84429599D03*
X134010401Y-84429599D03*
X131470401Y-86969599D03*
X134010401Y-86969599D03*
X131470401Y-89509599D03*
X134010401Y-89509599D03*
X131470401Y-92049599D03*
X134010401Y-92049599D03*
D15*
X135636000Y-85750400D03*
X128676400Y-85445600D03*
X169265600Y-70866000D03*
X122326400Y-118973600D03*
X134015481Y-75218379D03*
X136625921Y-75260879D03*
X131927600Y-77317600D03*
X134015481Y-77293379D03*
X136583421Y-77293379D03*
X164388800Y-81889600D03*
X149302381Y-77147419D03*
X169468800Y-95961200D03*
X151231600Y-118618000D03*
X136296401Y-94285979D03*
X136245601Y-99678579D03*
X139373701Y-104983279D03*
X144148901Y-104932479D03*
X157073601Y-94598579D03*
X157073601Y-91542779D03*
X156870400Y-86817200D03*
X154381200Y-86817200D03*
X151841200Y-86817200D03*
X139090400Y-86817200D03*
X135382000Y-88239600D03*
X129438400Y-88239600D03*
X177952400Y-89154000D03*
X176834800Y-78282800D03*
X177800000Y-80670400D03*
X190804800Y-80670400D03*
X190398400Y-89103200D03*
X190601600Y-100330000D03*
X190246000Y-108813600D03*
X182033800Y-112154400D03*
X185597600Y-112154400D03*
X185546800Y-97016000D03*
X182033800Y-96965200D03*
X181936300Y-92506800D03*
X185550900Y-92506800D03*
X181936300Y-77266800D03*
X185500100Y-77317600D03*
X187575100Y-77317600D03*
X179872050Y-77277550D03*
X179861300Y-92506800D03*
X187615150Y-92496050D03*
X187621800Y-97016000D03*
X187672600Y-112154400D03*
X176428400Y-108813600D03*
X176326800Y-100177600D03*
X189179200Y-98298000D03*
X189179200Y-110845600D03*
X189331600Y-78232000D03*
X189331600Y-91236800D03*
X178257200Y-91287600D03*
X178257200Y-78181200D03*
X177698400Y-96520000D03*
X177698400Y-110591600D03*
X176784000Y-91236800D03*
X176802952Y-90287878D03*
X176788274Y-89459119D03*
X176720366Y-88649660D03*
X176666589Y-87839139D03*
X176664408Y-87026839D03*
X176662943Y-86214538D03*
X176745228Y-85406414D03*
X176739231Y-84594134D03*
X176671807Y-83784634D03*
X176784503Y-82980187D03*
X176704581Y-82171825D03*
X176693236Y-81352111D03*
X176731054Y-80492302D03*
X176827285Y-79685720D03*
D16*
X189179200Y-98298000D02*
X192278000Y-95199200D01*
X192278000Y-95199200D02*
X192278000Y-71673075D01*
X192278000Y-71673075D02*
X189743725Y-69138800D01*
X189743725Y-69138800D02*
X150825200Y-69138800D01*
X150825200Y-69138800D02*
X149098000Y-70866000D01*
X159258000Y-70866000D02*
X160528000Y-69596000D01*
X160528000Y-69596000D02*
X187660925Y-69596000D01*
X187660925Y-69596000D02*
X188620400Y-70555475D01*
X188620400Y-70555475D02*
X188620400Y-77520800D01*
X188620400Y-77520800D02*
X189331600Y-78232000D01*
X155905201Y-78028799D02*
X159054800Y-74879200D01*
X162459398Y-76240382D02*
X165191182Y-73508598D01*
X162744360Y-74879200D02*
X164875964Y-72747596D01*
X159054800Y-74879200D02*
X162744360Y-74879200D01*
X154330401Y-79065489D02*
X158897191Y-74498699D01*
X164875964Y-72747596D02*
X170076404Y-72747596D01*
X163220400Y-83159600D02*
X163220400Y-76555600D01*
X156870401Y-81889599D02*
X155905201Y-80924399D01*
X170076404Y-72747596D02*
X171958000Y-70866000D01*
X162586751Y-74498699D02*
X166219450Y-70866000D01*
X166219450Y-70866000D02*
X166878000Y-70866000D01*
X178714400Y-74269600D02*
X182118000Y-70866000D01*
X165348791Y-73889099D02*
X176554901Y-73889099D01*
X158897191Y-74498699D02*
X162586751Y-74498699D01*
X160985201Y-82854799D02*
X160985201Y-79776689D01*
X162899973Y-75261697D02*
X165033573Y-73128097D01*
X154330401Y-79349599D02*
X154330401Y-79065489D01*
X159410401Y-84429599D02*
X160985201Y-82854799D01*
X176554901Y-73889099D02*
X179578000Y-70866000D01*
X162839899Y-76397991D02*
X165348791Y-73889099D01*
X155905201Y-80924399D02*
X155905201Y-78028799D01*
X172235903Y-73128097D02*
X174498000Y-70866000D01*
X165191182Y-73508598D02*
X174395402Y-73508598D01*
X156870401Y-79349599D02*
X160958303Y-75261697D01*
X161950401Y-84429599D02*
X163220400Y-83159600D01*
X159410401Y-81889599D02*
X159410401Y-80813379D01*
X163220400Y-76555600D02*
X165506400Y-74269600D01*
X165033573Y-73128097D02*
X172235903Y-73128097D01*
X160958303Y-75261697D02*
X162899973Y-75261697D01*
X165506400Y-74269600D02*
X178714400Y-74269600D01*
X174395402Y-73508598D02*
X177038000Y-70866000D01*
X162459398Y-77764382D02*
X162459398Y-76240382D01*
X159410401Y-80813379D02*
X162459398Y-77764382D01*
X162839899Y-77921991D02*
X162839899Y-76397991D01*
X160985201Y-79776689D02*
X162839899Y-77921991D01*
X156204791Y-73635099D02*
X159028901Y-73635099D01*
X150825201Y-80924399D02*
X150825201Y-78476579D01*
X150825201Y-78476579D02*
X156047182Y-73254598D01*
X151790401Y-81889599D02*
X150825201Y-80924399D01*
X156869402Y-73254598D02*
X159258000Y-70866000D01*
X152984700Y-76855190D02*
X156204791Y-73635099D01*
X153365201Y-80924399D02*
X153365201Y-77012799D01*
X151790401Y-79349599D02*
X152984700Y-78155300D01*
X152984700Y-78155300D02*
X152984700Y-76855190D01*
X153365201Y-77012799D02*
X156362400Y-74015600D01*
X156047182Y-73254598D02*
X156869402Y-73254598D01*
X159028901Y-73635099D02*
X161798000Y-70866000D01*
X154330401Y-81889599D02*
X153365201Y-80924399D01*
X156362400Y-74015600D02*
X161188400Y-74015600D01*
X161188400Y-74015600D02*
X164338000Y-70866000D01*
X146710401Y-79349599D02*
X147675601Y-78384399D01*
X147675601Y-78384399D02*
X149199601Y-78384399D01*
X149199601Y-78384399D02*
X156718000Y-70866000D01*
X148411701Y-74092299D02*
X151638000Y-70866000D01*
X150571200Y-74472800D02*
X154178000Y-70866000D01*
X147721191Y-74092299D02*
X148411701Y-74092299D01*
X143205201Y-78608289D02*
X147721191Y-74092299D01*
X143205201Y-80924399D02*
X143205201Y-78608289D01*
X144170401Y-81889599D02*
X143205201Y-80924399D01*
X144170401Y-79349599D02*
X144170401Y-78181199D01*
X144170401Y-78181199D02*
X147878800Y-74472800D01*
X147878800Y-74472800D02*
X150571200Y-74472800D01*
X147188290Y-70866000D02*
X149098000Y-70866000D01*
X141630401Y-76423889D02*
X147188290Y-70866000D01*
X141630401Y-79349599D02*
X141630401Y-76423889D01*
X139090401Y-74269599D02*
X139090401Y-79349599D01*
X140665201Y-80924399D02*
X140665201Y-75234799D01*
X142494000Y-70866000D02*
X139090401Y-74269599D01*
X141630401Y-81889599D02*
X140665201Y-80924399D01*
X140665201Y-75234799D02*
X145034000Y-70866000D01*
X134010401Y-81889599D02*
X134975601Y-80924399D01*
X134975601Y-80924399D02*
X134975601Y-75844399D01*
X134975601Y-75844399D02*
X139954000Y-70866000D01*
X137414000Y-70866000D02*
X132842000Y-75438000D01*
X132842000Y-75438000D02*
X132842000Y-83261198D01*
X132842000Y-83261198D02*
X134010401Y-84429599D01*
X131470401Y-86969599D02*
X129946400Y-85445598D01*
X129946400Y-85445598D02*
X129946400Y-75793600D01*
X129946400Y-75793600D02*
X134874000Y-70866000D01*
X158699201Y-108864399D02*
X159969201Y-108864399D01*
X176115063Y-81869282D02*
X176464426Y-81519919D01*
X151790401Y-107289599D02*
X152755601Y-108254799D01*
X154330401Y-107289599D02*
X155295601Y-108254799D01*
X159410401Y-102209599D02*
X160426400Y-101193600D01*
X160426400Y-101193600D02*
X161791399Y-101193600D01*
X157270200Y-110794799D02*
X158242000Y-109822999D01*
X155295601Y-108254799D02*
X155295601Y-109619798D01*
X159993103Y-111939297D02*
X166727596Y-105204804D01*
X176575297Y-84758068D02*
X176739231Y-84594134D01*
X178257200Y-91287600D02*
X178701200Y-90843600D01*
X144170401Y-109829599D02*
X147421602Y-113080800D01*
X153900099Y-111939297D02*
X159993103Y-111939297D01*
X165205592Y-102859407D02*
X165205592Y-90534728D01*
X150215601Y-109619798D02*
X152915601Y-112319798D01*
X166727596Y-91165164D02*
X168736764Y-89155996D01*
X178257200Y-79979363D02*
X178257200Y-78181200D01*
X176655242Y-85496400D02*
X176745228Y-85406414D01*
X165227499Y-90512821D02*
X165227499Y-86486501D01*
X164846998Y-86328892D02*
X166745687Y-84430203D01*
X168787564Y-89155996D02*
X170155824Y-87787736D01*
X159588700Y-111175300D02*
X165966594Y-104797406D01*
X165586093Y-103160463D02*
X165586093Y-90692337D01*
X149250401Y-109829599D02*
X152121101Y-112700299D01*
X165227499Y-86486501D02*
X166776400Y-84937600D01*
X164064089Y-85973511D02*
X167469559Y-82568041D01*
X158445201Y-108254799D02*
X158445201Y-106889800D01*
X176613005Y-86975436D02*
X176664408Y-87026839D01*
X166745687Y-84430203D02*
X176026238Y-84430203D01*
X167469559Y-82568041D02*
X176308365Y-82568041D01*
X176308365Y-82568041D02*
X176704581Y-82171825D01*
X152755601Y-108254799D02*
X152755601Y-109619798D01*
X167108097Y-91322773D02*
X168894373Y-89536497D01*
X150215601Y-108254799D02*
X150215601Y-109619798D01*
X161950401Y-102209599D02*
X164064089Y-100095911D01*
X159620702Y-105714299D02*
X162350700Y-105714299D01*
X151790401Y-109829599D02*
X153900099Y-111939297D01*
X167108097Y-105433903D02*
X167108097Y-91322773D01*
X167869099Y-105760391D02*
X167869099Y-91637991D01*
X176525428Y-81519919D02*
X176693236Y-81352111D01*
X162422157Y-106324399D02*
X165586093Y-103160463D01*
X160548690Y-113080800D02*
X167869099Y-105760391D01*
X147421602Y-113080800D02*
X160548690Y-113080800D01*
X170155824Y-87787736D02*
X176615186Y-87787736D01*
X158242000Y-109822999D02*
X158242000Y-109321600D01*
X176464426Y-81519919D02*
X176525428Y-81519919D01*
X160985201Y-107848399D02*
X160985201Y-106889800D01*
X176330395Y-89916998D02*
X176788274Y-89459119D01*
X176026238Y-84430203D02*
X176671807Y-83784634D01*
X152915601Y-112319798D02*
X160222202Y-112319798D01*
X164444590Y-86193190D02*
X167573373Y-83064407D01*
X170379214Y-86975436D02*
X176613005Y-86975436D01*
X163677600Y-97739200D02*
X163676603Y-97738203D01*
X161950401Y-104749599D02*
X164825091Y-101874909D01*
X159766999Y-111555801D02*
X166347095Y-104975705D01*
X176611547Y-86163142D02*
X176662943Y-86214538D01*
X164846998Y-90355212D02*
X164846998Y-86328892D01*
X163676603Y-85598997D02*
X167386000Y-81889600D01*
X164444590Y-101080409D02*
X164444590Y-86193190D01*
X155295601Y-109619798D02*
X156470602Y-110794799D01*
X159410401Y-104749599D02*
X160375601Y-103784399D01*
X161791399Y-101193600D02*
X163677600Y-99307399D01*
X178701200Y-80423363D02*
X178257200Y-79979363D01*
X167573373Y-83064407D02*
X176700283Y-83064407D01*
X178701200Y-90843600D02*
X178701200Y-80423363D01*
X164825091Y-101874909D02*
X164825091Y-90377119D01*
X176615186Y-87787736D02*
X176666589Y-87839139D01*
X160391081Y-112700299D02*
X167488598Y-105602782D01*
X163677600Y-99307399D02*
X163677600Y-97739200D01*
X158445201Y-106889800D02*
X159620702Y-105714299D01*
X161550602Y-106324399D02*
X162422157Y-106324399D01*
X176700283Y-83064407D02*
X176784503Y-82980187D01*
X164064089Y-100095911D02*
X164064089Y-85973511D01*
X176115063Y-81889600D02*
X176115063Y-81869282D01*
X164825091Y-90377119D02*
X164846998Y-90355212D01*
X160375601Y-103784399D02*
X161740600Y-103784399D01*
X156470602Y-110794799D02*
X157270200Y-110794799D01*
X154330401Y-109829599D02*
X155676102Y-111175300D01*
X152755601Y-109619798D02*
X154286203Y-111150400D01*
X167869099Y-91637991D02*
X169209591Y-90297499D01*
X156870401Y-109829599D02*
X158445201Y-108254799D01*
X165205592Y-90534728D02*
X165227499Y-90512821D01*
X152121101Y-112700299D02*
X160391081Y-112700299D01*
X167386000Y-81889600D02*
X176115063Y-81889600D01*
X155676102Y-111175300D02*
X159588700Y-111175300D01*
X165966594Y-104797406D02*
X165966594Y-90849946D01*
X158242000Y-109321600D02*
X158699201Y-108864399D01*
X168736764Y-89155996D02*
X168787564Y-89155996D01*
X163676603Y-97738203D02*
X163676603Y-85598997D01*
X176318213Y-84937600D02*
X176497745Y-84758068D01*
X160985201Y-106889800D02*
X161550602Y-106324399D01*
X160222202Y-112319798D02*
X167108097Y-105433903D01*
X165966594Y-90849946D02*
X170653398Y-86163142D01*
X154735801Y-111555801D02*
X159766999Y-111555801D01*
X176793331Y-90297499D02*
X176802952Y-90287878D01*
X170653398Y-86163142D02*
X176611547Y-86163142D01*
X154330400Y-111150400D02*
X154735801Y-111555801D01*
X149250401Y-107289599D02*
X150215601Y-108254799D01*
X168894373Y-89536497D02*
X175833529Y-89536497D01*
X175833529Y-89536497D02*
X176720366Y-88649660D01*
X154286203Y-111150400D02*
X154330400Y-111150400D01*
X165586093Y-90692337D02*
X170782030Y-85496400D01*
X159969201Y-108864399D02*
X160985201Y-107848399D01*
X161740600Y-103784399D02*
X164444590Y-101080409D01*
X169209591Y-90297499D02*
X176793331Y-90297499D01*
X170782030Y-85496400D02*
X176655242Y-85496400D01*
X166776400Y-84937600D02*
X176318213Y-84937600D01*
X166727596Y-105204804D02*
X166727596Y-91165164D01*
X166347095Y-91007555D02*
X170379214Y-86975436D01*
X169051982Y-89916998D02*
X176330395Y-89916998D01*
X166347095Y-104975705D02*
X166347095Y-91007555D01*
X167488598Y-91480382D02*
X169051982Y-89916998D01*
X176497745Y-84758068D02*
X176575297Y-84758068D01*
X162350700Y-105714299D02*
X165205592Y-102859407D01*
X167488598Y-105602782D02*
X167488598Y-91480382D01*
X189179200Y-98298000D02*
X189179200Y-110845600D01*
X189331600Y-78232000D02*
X189331600Y-91236800D01*
X166878000Y-119126000D02*
X165608000Y-117856000D01*
X165608000Y-117856000D02*
X144830800Y-117856000D01*
X144830800Y-117856000D02*
X143256000Y-116281200D01*
X131070602Y-98704399D02*
X132435601Y-98704399D01*
X132435601Y-98704399D02*
X134010401Y-97129599D01*
X143256000Y-116281200D02*
X136093200Y-116281200D01*
X136093200Y-116281200D02*
X128828800Y-109016800D01*
X128828800Y-109016800D02*
X128828800Y-100946201D01*
X128828800Y-100946201D02*
X131070602Y-98704399D01*
X131470401Y-99669599D02*
X129235200Y-101904800D01*
X167741600Y-117449600D02*
X169418000Y-119126000D01*
X129235200Y-101904800D02*
X129235200Y-108813600D01*
X136296400Y-115874800D02*
X143408400Y-115874800D01*
X129235200Y-108813600D02*
X136296400Y-115874800D01*
X143408400Y-115874800D02*
X144983200Y-117449600D01*
X144983200Y-117449600D02*
X167741600Y-117449600D01*
X144348845Y-113565895D02*
X138921698Y-113565895D01*
X144033627Y-114326897D02*
X137142700Y-114326897D01*
X138921698Y-113565895D02*
X134975601Y-109619798D01*
X137142700Y-114326897D02*
X131470401Y-108654598D01*
X174864018Y-115875798D02*
X145582528Y-115875798D01*
X177038000Y-119126000D02*
X174548800Y-116636800D01*
X143560800Y-115468400D02*
X145135600Y-117043200D01*
X131680202Y-105714799D02*
X130479301Y-106915700D01*
X145424919Y-116256299D02*
X174706409Y-116256299D01*
X136550401Y-109829599D02*
X139906196Y-113185394D01*
X175046528Y-115520198D02*
X181052198Y-115520198D01*
X176733200Y-116281200D02*
X179578000Y-119126000D01*
X136606409Y-115087899D02*
X130098800Y-108580290D01*
X145267310Y-116636800D02*
X143718409Y-115087899D01*
X182118000Y-119126000D02*
X178892699Y-115900699D01*
X134010401Y-104749599D02*
X133045201Y-105714799D01*
X174731310Y-116281200D02*
X176733200Y-116281200D01*
X130479301Y-108228901D02*
X136957798Y-114707398D01*
X131470401Y-108654598D02*
X131470401Y-107289599D01*
X187502800Y-114350800D02*
X146209970Y-114350800D01*
X136957798Y-114707398D02*
X143876018Y-114707398D01*
X130479301Y-106915700D02*
X130479301Y-108228901D01*
X139906196Y-113185394D02*
X144506454Y-113185394D01*
X144506454Y-113185394D02*
X146055355Y-114734295D01*
X187198000Y-119126000D02*
X183186796Y-115114796D01*
X134975601Y-109619798D02*
X134975601Y-108254799D01*
X138125201Y-110229398D02*
X138125201Y-108864399D01*
X185346295Y-114734295D02*
X189738000Y-119126000D01*
X130098800Y-106121200D02*
X131470401Y-104749599D01*
X189585600Y-113893600D02*
X194818000Y-119126000D01*
X143718409Y-115087899D02*
X136606409Y-115087899D01*
X140700696Y-112804893D02*
X138125201Y-110229398D01*
X174548800Y-116636800D02*
X145267310Y-116636800D01*
X134975601Y-108254799D02*
X134010401Y-107289599D01*
X183186796Y-115114796D02*
X145897746Y-115114796D01*
X138125201Y-108864399D02*
X136550401Y-107289599D01*
X144664063Y-112804893D02*
X140700696Y-112804893D01*
X145582528Y-115875798D02*
X144033627Y-114326897D01*
X145897746Y-115114796D02*
X144348845Y-113565895D01*
X131070602Y-103784399D02*
X129641600Y-105213401D01*
X133045201Y-105714799D02*
X131680202Y-105714799D01*
X139090401Y-109829599D02*
X141685194Y-112424392D01*
X144821672Y-112424392D02*
X146290880Y-113893600D01*
X174888919Y-115900699D02*
X174864018Y-115875798D01*
X130098800Y-108580290D02*
X130098800Y-106121200D01*
X143876018Y-114707398D02*
X145424919Y-116256299D01*
X138127198Y-113946396D02*
X144191236Y-113946396D01*
X141685194Y-112424392D02*
X144821672Y-112424392D01*
X145740137Y-115495297D02*
X175021627Y-115495297D01*
X175021627Y-115495297D02*
X175046528Y-115520198D01*
X134010401Y-109829599D02*
X138127198Y-113946396D01*
X192278000Y-119126000D02*
X187502800Y-114350800D01*
X144191236Y-113946396D02*
X145740137Y-115495297D01*
X174706409Y-116256299D02*
X174731310Y-116281200D01*
X146290880Y-113893600D02*
X189585600Y-113893600D01*
X178892699Y-115900699D02*
X174888919Y-115900699D01*
X146209970Y-114350800D02*
X144664063Y-112804893D01*
X146055355Y-114734295D02*
X185346295Y-114734295D01*
X181052198Y-115520198D02*
X184658000Y-119126000D01*
X134010401Y-102209599D02*
X132435601Y-103784399D01*
X132435601Y-103784399D02*
X131070602Y-103784399D01*
X129641600Y-105213401D02*
X129641600Y-108661200D01*
X129641600Y-108661200D02*
X136448800Y-115468400D01*
X136448800Y-115468400D02*
X143560800Y-115468400D01*
X145135600Y-117043200D02*
X169875200Y-117043200D01*
X169875200Y-117043200D02*
X171958000Y-119126000D01*
X142595601Y-108254799D02*
X141630401Y-107289599D01*
X142595601Y-109619798D02*
X142595601Y-108254799D01*
X146463003Y-113487200D02*
X142595601Y-109619798D01*
X160680400Y-113487200D02*
X146463003Y-113487200D01*
X168249600Y-91795600D02*
X168249600Y-105918000D01*
X176784000Y-91236800D02*
X176225200Y-90678000D01*
X176225200Y-90678000D02*
X169367200Y-90678000D01*
X169367200Y-90678000D02*
X168249600Y-91795600D01*
X168249600Y-105918000D02*
X160680400Y-113487200D01*
X161740600Y-98704399D02*
X162915601Y-97529398D01*
X167762290Y-80162400D02*
X176217519Y-80162400D01*
X162915601Y-85009089D02*
X167762290Y-80162400D01*
X163296102Y-97687007D02*
X163296102Y-85166698D01*
X176484017Y-79895902D02*
X176617103Y-79895902D01*
X176603756Y-80619600D02*
X176731054Y-80492302D01*
X161950401Y-99032708D02*
X163296102Y-97687007D01*
X163296102Y-85166698D02*
X167843200Y-80619600D01*
X162915601Y-97529398D02*
X162915601Y-85009089D01*
X161950401Y-99669599D02*
X161950401Y-99032708D01*
X167843200Y-80619600D02*
X176603756Y-80619600D01*
X176217519Y-80162400D02*
X176484017Y-79895902D01*
X159410401Y-99669599D02*
X160375601Y-98704399D01*
X176617103Y-79895902D02*
X176827285Y-79685720D01*
X160375601Y-98704399D02*
X161740600Y-98704399D01*
%TA.AperFunction,Conductor*%
G36*
X149994698Y-68854502D02*
G01*
X150041191Y-68908158D01*
X150051295Y-68978432D01*
X150021801Y-69043012D01*
X150015672Y-69049595D01*
X149678634Y-69386633D01*
X149616322Y-69420659D01*
X149552176Y-69417870D01*
X149393704Y-69368663D01*
X149269340Y-69352180D01*
X149168152Y-69338768D01*
X149168148Y-69338768D01*
X149162868Y-69338068D01*
X149157538Y-69338268D01*
X149157537Y-69338268D01*
X149046523Y-69342436D01*
X148930178Y-69346803D01*
X148847474Y-69364156D01*
X148707514Y-69393523D01*
X148707511Y-69393524D01*
X148702287Y-69394620D01*
X148485710Y-69480150D01*
X148286641Y-69600949D01*
X148282611Y-69604446D01*
X148153209Y-69716735D01*
X148110770Y-69753561D01*
X148107387Y-69757687D01*
X148107383Y-69757691D01*
X148093765Y-69774300D01*
X147963128Y-69933624D01*
X147960489Y-69938260D01*
X147960487Y-69938263D01*
X147897589Y-70048760D01*
X147847935Y-70135989D01*
X147843760Y-70147491D01*
X147801715Y-70204699D01*
X147735416Y-70230095D01*
X147725321Y-70230500D01*
X147267310Y-70230500D01*
X147256076Y-70229970D01*
X147248571Y-70228292D01*
X147180861Y-70230420D01*
X147180278Y-70230438D01*
X147176321Y-70230500D01*
X147148307Y-70230500D01*
X147144382Y-70230996D01*
X147144381Y-70230996D01*
X147144286Y-70231008D01*
X147132441Y-70231941D01*
X147102620Y-70232878D01*
X147096008Y-70233086D01*
X147096007Y-70233086D01*
X147088085Y-70233335D01*
X147068542Y-70239013D01*
X147049178Y-70243023D01*
X147036850Y-70244580D01*
X147036848Y-70244580D01*
X147028991Y-70245573D01*
X147021627Y-70248489D01*
X147021622Y-70248490D01*
X146987734Y-70261907D01*
X146976505Y-70265752D01*
X146959825Y-70270598D01*
X146933897Y-70278131D01*
X146927070Y-70282169D01*
X146927067Y-70282170D01*
X146916384Y-70288488D01*
X146898626Y-70297188D01*
X146887075Y-70301761D01*
X146887069Y-70301765D01*
X146879702Y-70304681D01*
X146873291Y-70309339D01*
X146873289Y-70309340D01*
X146843802Y-70330764D01*
X146833880Y-70337281D01*
X146802522Y-70355826D01*
X146802518Y-70355829D01*
X146795692Y-70359866D01*
X146781308Y-70374250D01*
X146766274Y-70387091D01*
X146749803Y-70399058D01*
X146744750Y-70405166D01*
X146721513Y-70433255D01*
X146713523Y-70442035D01*
X146604488Y-70551070D01*
X146542176Y-70585096D01*
X146471361Y-70580031D01*
X146414525Y-70537484D01*
X146391590Y-70484128D01*
X146391374Y-70481580D01*
X146357613Y-70351505D01*
X146334217Y-70261363D01*
X146334216Y-70261359D01*
X146332875Y-70256194D01*
X146327644Y-70244580D01*
X146239433Y-70048760D01*
X146237238Y-70043887D01*
X146107196Y-69850728D01*
X146097123Y-69840168D01*
X145950152Y-69686104D01*
X145946468Y-69682242D01*
X145759650Y-69543246D01*
X145635549Y-69480150D01*
X145556842Y-69440133D01*
X145556841Y-69440133D01*
X145552084Y-69437714D01*
X145413299Y-69394620D01*
X145334807Y-69370247D01*
X145334801Y-69370246D01*
X145329704Y-69368663D01*
X145205340Y-69352180D01*
X145104152Y-69338768D01*
X145104148Y-69338768D01*
X145098868Y-69338068D01*
X145093538Y-69338268D01*
X145093537Y-69338268D01*
X144982523Y-69342436D01*
X144866178Y-69346803D01*
X144783474Y-69364156D01*
X144643514Y-69393523D01*
X144643511Y-69393524D01*
X144638287Y-69394620D01*
X144421710Y-69480150D01*
X144222641Y-69600949D01*
X144218611Y-69604446D01*
X144089209Y-69716735D01*
X144046770Y-69753561D01*
X144043387Y-69757687D01*
X144043383Y-69757691D01*
X144029765Y-69774300D01*
X143899128Y-69933624D01*
X143896489Y-69938260D01*
X143896487Y-69938263D01*
X143873155Y-69979252D01*
X143822073Y-70028558D01*
X143752442Y-70042420D01*
X143686371Y-70016437D01*
X143659133Y-69987287D01*
X143575384Y-69862890D01*
X143567196Y-69850728D01*
X143557123Y-69840168D01*
X143410152Y-69686104D01*
X143406468Y-69682242D01*
X143219650Y-69543246D01*
X143095549Y-69480150D01*
X143016842Y-69440133D01*
X143016841Y-69440133D01*
X143012084Y-69437714D01*
X142873299Y-69394620D01*
X142794807Y-69370247D01*
X142794801Y-69370246D01*
X142789704Y-69368663D01*
X142665340Y-69352180D01*
X142564152Y-69338768D01*
X142564148Y-69338768D01*
X142558868Y-69338068D01*
X142553538Y-69338268D01*
X142553537Y-69338268D01*
X142442523Y-69342436D01*
X142326178Y-69346803D01*
X142243474Y-69364156D01*
X142103514Y-69393523D01*
X142103511Y-69393524D01*
X142098287Y-69394620D01*
X141881710Y-69480150D01*
X141682641Y-69600949D01*
X141678611Y-69604446D01*
X141549209Y-69716735D01*
X141506770Y-69753561D01*
X141503387Y-69757687D01*
X141503383Y-69757691D01*
X141489765Y-69774300D01*
X141359128Y-69933624D01*
X141356489Y-69938260D01*
X141356487Y-69938263D01*
X141333155Y-69979252D01*
X141282073Y-70028558D01*
X141212442Y-70042420D01*
X141146371Y-70016437D01*
X141119133Y-69987287D01*
X141035384Y-69862890D01*
X141027196Y-69850728D01*
X141017123Y-69840168D01*
X140870152Y-69686104D01*
X140866468Y-69682242D01*
X140679650Y-69543246D01*
X140555549Y-69480150D01*
X140476842Y-69440133D01*
X140476841Y-69440133D01*
X140472084Y-69437714D01*
X140333299Y-69394620D01*
X140254807Y-69370247D01*
X140254801Y-69370246D01*
X140249704Y-69368663D01*
X140125340Y-69352180D01*
X140024152Y-69338768D01*
X140024148Y-69338768D01*
X140018868Y-69338068D01*
X140013538Y-69338268D01*
X140013537Y-69338268D01*
X139902523Y-69342436D01*
X139786178Y-69346803D01*
X139703474Y-69364156D01*
X139563514Y-69393523D01*
X139563511Y-69393524D01*
X139558287Y-69394620D01*
X139341710Y-69480150D01*
X139142641Y-69600949D01*
X139138611Y-69604446D01*
X139009209Y-69716735D01*
X138966770Y-69753561D01*
X138963387Y-69757687D01*
X138963383Y-69757691D01*
X138949765Y-69774300D01*
X138819128Y-69933624D01*
X138816489Y-69938260D01*
X138816487Y-69938263D01*
X138793155Y-69979252D01*
X138742073Y-70028558D01*
X138672442Y-70042420D01*
X138606371Y-70016437D01*
X138579133Y-69987287D01*
X138495384Y-69862890D01*
X138487196Y-69850728D01*
X138477123Y-69840168D01*
X138330152Y-69686104D01*
X138326468Y-69682242D01*
X138139650Y-69543246D01*
X138015549Y-69480150D01*
X137936842Y-69440133D01*
X137936841Y-69440133D01*
X137932084Y-69437714D01*
X137793299Y-69394620D01*
X137714807Y-69370247D01*
X137714801Y-69370246D01*
X137709704Y-69368663D01*
X137585340Y-69352180D01*
X137484152Y-69338768D01*
X137484148Y-69338768D01*
X137478868Y-69338068D01*
X137473538Y-69338268D01*
X137473537Y-69338268D01*
X137362523Y-69342436D01*
X137246178Y-69346803D01*
X137163474Y-69364156D01*
X137023514Y-69393523D01*
X137023511Y-69393524D01*
X137018287Y-69394620D01*
X136801710Y-69480150D01*
X136602641Y-69600949D01*
X136598611Y-69604446D01*
X136469209Y-69716735D01*
X136426770Y-69753561D01*
X136423387Y-69757687D01*
X136423383Y-69757691D01*
X136409765Y-69774300D01*
X136279128Y-69933624D01*
X136276489Y-69938260D01*
X136276487Y-69938263D01*
X136253155Y-69979252D01*
X136202073Y-70028558D01*
X136132442Y-70042420D01*
X136066371Y-70016437D01*
X136039133Y-69987287D01*
X135955384Y-69862890D01*
X135947196Y-69850728D01*
X135937123Y-69840168D01*
X135790152Y-69686104D01*
X135786468Y-69682242D01*
X135599650Y-69543246D01*
X135475549Y-69480150D01*
X135396842Y-69440133D01*
X135396841Y-69440133D01*
X135392084Y-69437714D01*
X135253299Y-69394620D01*
X135174807Y-69370247D01*
X135174801Y-69370246D01*
X135169704Y-69368663D01*
X135045340Y-69352180D01*
X134944152Y-69338768D01*
X134944148Y-69338768D01*
X134938868Y-69338068D01*
X134933538Y-69338268D01*
X134933537Y-69338268D01*
X134822523Y-69342436D01*
X134706178Y-69346803D01*
X134623474Y-69364156D01*
X134483514Y-69393523D01*
X134483511Y-69393524D01*
X134478287Y-69394620D01*
X134261710Y-69480150D01*
X134062641Y-69600949D01*
X134058611Y-69604446D01*
X133929209Y-69716735D01*
X133886770Y-69753561D01*
X133883387Y-69757687D01*
X133883383Y-69757691D01*
X133869765Y-69774300D01*
X133739128Y-69933624D01*
X133736489Y-69938260D01*
X133736487Y-69938263D01*
X133713155Y-69979252D01*
X133662073Y-70028558D01*
X133592442Y-70042420D01*
X133526371Y-70016437D01*
X133499133Y-69987287D01*
X133415384Y-69862890D01*
X133407196Y-69850728D01*
X133397123Y-69840168D01*
X133250152Y-69686104D01*
X133246468Y-69682242D01*
X133059650Y-69543246D01*
X132935549Y-69480150D01*
X132856842Y-69440133D01*
X132856841Y-69440133D01*
X132852084Y-69437714D01*
X132713299Y-69394620D01*
X132634807Y-69370247D01*
X132634801Y-69370246D01*
X132629704Y-69368663D01*
X132505340Y-69352180D01*
X132404152Y-69338768D01*
X132404148Y-69338768D01*
X132398868Y-69338068D01*
X132393538Y-69338268D01*
X132393537Y-69338268D01*
X132282523Y-69342436D01*
X132166178Y-69346803D01*
X132083474Y-69364156D01*
X131943514Y-69393523D01*
X131943511Y-69393524D01*
X131938287Y-69394620D01*
X131721710Y-69480150D01*
X131522641Y-69600949D01*
X131518611Y-69604446D01*
X131389209Y-69716735D01*
X131346770Y-69753561D01*
X131343387Y-69757687D01*
X131343383Y-69757691D01*
X131329765Y-69774300D01*
X131199128Y-69933624D01*
X131196489Y-69938260D01*
X131196487Y-69938263D01*
X131173155Y-69979252D01*
X131122073Y-70028558D01*
X131052442Y-70042420D01*
X130986371Y-70016437D01*
X130959133Y-69987287D01*
X130875384Y-69862890D01*
X130867196Y-69850728D01*
X130857123Y-69840168D01*
X130710152Y-69686104D01*
X130706468Y-69682242D01*
X130519650Y-69543246D01*
X130395549Y-69480150D01*
X130316842Y-69440133D01*
X130316841Y-69440133D01*
X130312084Y-69437714D01*
X130173299Y-69394620D01*
X130094807Y-69370247D01*
X130094801Y-69370246D01*
X130089704Y-69368663D01*
X129965340Y-69352180D01*
X129864152Y-69338768D01*
X129864148Y-69338768D01*
X129858868Y-69338068D01*
X129853538Y-69338268D01*
X129853537Y-69338268D01*
X129742523Y-69342436D01*
X129626178Y-69346803D01*
X129543474Y-69364156D01*
X129403514Y-69393523D01*
X129403511Y-69393524D01*
X129398287Y-69394620D01*
X129181710Y-69480150D01*
X128982641Y-69600949D01*
X128978611Y-69604446D01*
X128849209Y-69716735D01*
X128806770Y-69753561D01*
X128803387Y-69757687D01*
X128803383Y-69757691D01*
X128789765Y-69774300D01*
X128659128Y-69933624D01*
X128656489Y-69938260D01*
X128656487Y-69938263D01*
X128633155Y-69979252D01*
X128582073Y-70028558D01*
X128512442Y-70042420D01*
X128446371Y-70016437D01*
X128419133Y-69987287D01*
X128335384Y-69862890D01*
X128327196Y-69850728D01*
X128317123Y-69840168D01*
X128170152Y-69686104D01*
X128166468Y-69682242D01*
X127979650Y-69543246D01*
X127855549Y-69480150D01*
X127776842Y-69440133D01*
X127776841Y-69440133D01*
X127772084Y-69437714D01*
X127633299Y-69394620D01*
X127554807Y-69370247D01*
X127554801Y-69370246D01*
X127549704Y-69368663D01*
X127425340Y-69352180D01*
X127324152Y-69338768D01*
X127324148Y-69338768D01*
X127318868Y-69338068D01*
X127313538Y-69338268D01*
X127313537Y-69338268D01*
X127202523Y-69342436D01*
X127086178Y-69346803D01*
X127003474Y-69364156D01*
X126863514Y-69393523D01*
X126863511Y-69393524D01*
X126858287Y-69394620D01*
X126641710Y-69480150D01*
X126442641Y-69600949D01*
X126438611Y-69604446D01*
X126309209Y-69716735D01*
X126266770Y-69753561D01*
X126263387Y-69757687D01*
X126263383Y-69757691D01*
X126249765Y-69774300D01*
X126119128Y-69933624D01*
X126116489Y-69938260D01*
X126116487Y-69938263D01*
X126093155Y-69979252D01*
X126042073Y-70028558D01*
X125972442Y-70042420D01*
X125906371Y-70016437D01*
X125879133Y-69987287D01*
X125795384Y-69862890D01*
X125787196Y-69850728D01*
X125777123Y-69840168D01*
X125630152Y-69686104D01*
X125626468Y-69682242D01*
X125439650Y-69543246D01*
X125315549Y-69480150D01*
X125236842Y-69440133D01*
X125236841Y-69440133D01*
X125232084Y-69437714D01*
X125093299Y-69394620D01*
X125014807Y-69370247D01*
X125014801Y-69370246D01*
X125009704Y-69368663D01*
X124885340Y-69352180D01*
X124784152Y-69338768D01*
X124784148Y-69338768D01*
X124778868Y-69338068D01*
X124773538Y-69338268D01*
X124773537Y-69338268D01*
X124662523Y-69342436D01*
X124546178Y-69346803D01*
X124463474Y-69364156D01*
X124323514Y-69393523D01*
X124323511Y-69393524D01*
X124318287Y-69394620D01*
X124101710Y-69480150D01*
X123902641Y-69600949D01*
X123898611Y-69604446D01*
X123769209Y-69716735D01*
X123726770Y-69753561D01*
X123723387Y-69757687D01*
X123723383Y-69757691D01*
X123709765Y-69774300D01*
X123579128Y-69933624D01*
X123576489Y-69938260D01*
X123576487Y-69938263D01*
X123553155Y-69979252D01*
X123502073Y-70028558D01*
X123432442Y-70042420D01*
X123366371Y-70016437D01*
X123339133Y-69987287D01*
X123255384Y-69862890D01*
X123247196Y-69850728D01*
X123237123Y-69840168D01*
X123090152Y-69686104D01*
X123086468Y-69682242D01*
X122899650Y-69543246D01*
X122775549Y-69480150D01*
X122696842Y-69440133D01*
X122696841Y-69440133D01*
X122692084Y-69437714D01*
X122553299Y-69394620D01*
X122474807Y-69370247D01*
X122474801Y-69370246D01*
X122469704Y-69368663D01*
X122345340Y-69352180D01*
X122244152Y-69338768D01*
X122244148Y-69338768D01*
X122238868Y-69338068D01*
X122233538Y-69338268D01*
X122233537Y-69338268D01*
X122122523Y-69342436D01*
X122006178Y-69346803D01*
X121923474Y-69364156D01*
X121783514Y-69393523D01*
X121783511Y-69393524D01*
X121778287Y-69394620D01*
X121561710Y-69480150D01*
X121362641Y-69600949D01*
X121358611Y-69604446D01*
X121229209Y-69716735D01*
X121186770Y-69753561D01*
X121183387Y-69757687D01*
X121183383Y-69757691D01*
X121169765Y-69774300D01*
X121039128Y-69933624D01*
X121036489Y-69938260D01*
X121036487Y-69938263D01*
X120973589Y-70048760D01*
X120923935Y-70135989D01*
X120922114Y-70141005D01*
X120922112Y-70141010D01*
X120850869Y-70337281D01*
X120844485Y-70354869D01*
X120843536Y-70360118D01*
X120843535Y-70360121D01*
X120840980Y-70374250D01*
X120803050Y-70584007D01*
X120801900Y-70608394D01*
X120801900Y-71076868D01*
X120805756Y-71122312D01*
X120815283Y-71234588D01*
X120816626Y-71250420D01*
X120817964Y-71255577D01*
X120817965Y-71255580D01*
X120872839Y-71466998D01*
X120875125Y-71475806D01*
X120877317Y-71480672D01*
X120877318Y-71480675D01*
X120934402Y-71607396D01*
X120970762Y-71688113D01*
X121100804Y-71881272D01*
X121104483Y-71885129D01*
X121104485Y-71885131D01*
X121135455Y-71917596D01*
X121261532Y-72049758D01*
X121448350Y-72188754D01*
X121453102Y-72191170D01*
X121608238Y-72270045D01*
X121655916Y-72294286D01*
X121720404Y-72314310D01*
X121873193Y-72361753D01*
X121873199Y-72361754D01*
X121878296Y-72363337D01*
X122002660Y-72379820D01*
X122103848Y-72393232D01*
X122103852Y-72393232D01*
X122109132Y-72393932D01*
X122114462Y-72393732D01*
X122114463Y-72393732D01*
X122225477Y-72389564D01*
X122341822Y-72385197D01*
X122453554Y-72361753D01*
X122564486Y-72338477D01*
X122564489Y-72338476D01*
X122569713Y-72337380D01*
X122786290Y-72251850D01*
X122985359Y-72131051D01*
X123047798Y-72076870D01*
X123157197Y-71981939D01*
X123157199Y-71981937D01*
X123161230Y-71978439D01*
X123164613Y-71974313D01*
X123164617Y-71974309D01*
X123305487Y-71802504D01*
X123308872Y-71798376D01*
X123334845Y-71752748D01*
X123385927Y-71703442D01*
X123455558Y-71689580D01*
X123521629Y-71715563D01*
X123548867Y-71744713D01*
X123640804Y-71881272D01*
X123644483Y-71885129D01*
X123644485Y-71885131D01*
X123675455Y-71917596D01*
X123801532Y-72049758D01*
X123988350Y-72188754D01*
X123993102Y-72191170D01*
X124148238Y-72270045D01*
X124195916Y-72294286D01*
X124260404Y-72314310D01*
X124413193Y-72361753D01*
X124413199Y-72361754D01*
X124418296Y-72363337D01*
X124542660Y-72379820D01*
X124643848Y-72393232D01*
X124643852Y-72393232D01*
X124649132Y-72393932D01*
X124654462Y-72393732D01*
X124654463Y-72393732D01*
X124765477Y-72389564D01*
X124881822Y-72385197D01*
X124993554Y-72361753D01*
X125104486Y-72338477D01*
X125104489Y-72338476D01*
X125109713Y-72337380D01*
X125326290Y-72251850D01*
X125525359Y-72131051D01*
X125587798Y-72076870D01*
X125697197Y-71981939D01*
X125697199Y-71981937D01*
X125701230Y-71978439D01*
X125704613Y-71974313D01*
X125704617Y-71974309D01*
X125845487Y-71802504D01*
X125848872Y-71798376D01*
X125874845Y-71752748D01*
X125925927Y-71703442D01*
X125995558Y-71689580D01*
X126061629Y-71715563D01*
X126088867Y-71744713D01*
X126180804Y-71881272D01*
X126184483Y-71885129D01*
X126184485Y-71885131D01*
X126215455Y-71917596D01*
X126341532Y-72049758D01*
X126528350Y-72188754D01*
X126533102Y-72191170D01*
X126688238Y-72270045D01*
X126735916Y-72294286D01*
X126800404Y-72314310D01*
X126953193Y-72361753D01*
X126953199Y-72361754D01*
X126958296Y-72363337D01*
X127082660Y-72379820D01*
X127183848Y-72393232D01*
X127183852Y-72393232D01*
X127189132Y-72393932D01*
X127194462Y-72393732D01*
X127194463Y-72393732D01*
X127305477Y-72389564D01*
X127421822Y-72385197D01*
X127533554Y-72361753D01*
X127644486Y-72338477D01*
X127644489Y-72338476D01*
X127649713Y-72337380D01*
X127866290Y-72251850D01*
X128065359Y-72131051D01*
X128127798Y-72076870D01*
X128237197Y-71981939D01*
X128237199Y-71981937D01*
X128241230Y-71978439D01*
X128244613Y-71974313D01*
X128244617Y-71974309D01*
X128385487Y-71802504D01*
X128388872Y-71798376D01*
X128414845Y-71752748D01*
X128465927Y-71703442D01*
X128535558Y-71689580D01*
X128601629Y-71715563D01*
X128628867Y-71744713D01*
X128720804Y-71881272D01*
X128724483Y-71885129D01*
X128724485Y-71885131D01*
X128755455Y-71917596D01*
X128881532Y-72049758D01*
X129068350Y-72188754D01*
X129073102Y-72191170D01*
X129228238Y-72270045D01*
X129275916Y-72294286D01*
X129340404Y-72314310D01*
X129493193Y-72361753D01*
X129493199Y-72361754D01*
X129498296Y-72363337D01*
X129622660Y-72379820D01*
X129723848Y-72393232D01*
X129723852Y-72393232D01*
X129729132Y-72393932D01*
X129734462Y-72393732D01*
X129734463Y-72393732D01*
X129845477Y-72389564D01*
X129961822Y-72385197D01*
X130073554Y-72361753D01*
X130184486Y-72338477D01*
X130184489Y-72338476D01*
X130189713Y-72337380D01*
X130406290Y-72251850D01*
X130605359Y-72131051D01*
X130667798Y-72076870D01*
X130777197Y-71981939D01*
X130777199Y-71981937D01*
X130781230Y-71978439D01*
X130784613Y-71974313D01*
X130784617Y-71974309D01*
X130925487Y-71802504D01*
X130928872Y-71798376D01*
X130954845Y-71752748D01*
X131005927Y-71703442D01*
X131075558Y-71689580D01*
X131141629Y-71715563D01*
X131168867Y-71744713D01*
X131260804Y-71881272D01*
X131264483Y-71885129D01*
X131264485Y-71885131D01*
X131295455Y-71917596D01*
X131421532Y-72049758D01*
X131608350Y-72188754D01*
X131613102Y-72191170D01*
X131768238Y-72270045D01*
X131815916Y-72294286D01*
X131880404Y-72314310D01*
X132033193Y-72361753D01*
X132033199Y-72361754D01*
X132038296Y-72363337D01*
X132173471Y-72381253D01*
X132238373Y-72410032D01*
X132277413Y-72469332D01*
X132278196Y-72540324D01*
X132246011Y-72595256D01*
X129552917Y-75288350D01*
X129544591Y-75295926D01*
X129538097Y-75300047D01*
X129532674Y-75305822D01*
X129491315Y-75349865D01*
X129488560Y-75352707D01*
X129468761Y-75372506D01*
X129466337Y-75375631D01*
X129466329Y-75375640D01*
X129466263Y-75375726D01*
X129458555Y-75384751D01*
X129428183Y-75417094D01*
X129424365Y-75424038D01*
X129424364Y-75424040D01*
X129418378Y-75434929D01*
X129407527Y-75451447D01*
X129395050Y-75467533D01*
X129377424Y-75508266D01*
X129372207Y-75518914D01*
X129350831Y-75557797D01*
X129348860Y-75565472D01*
X129348858Y-75565478D01*
X129345769Y-75577511D01*
X129339366Y-75596213D01*
X129331283Y-75614892D01*
X129330044Y-75622717D01*
X129324340Y-75658727D01*
X129321935Y-75670340D01*
X129310900Y-75713318D01*
X129310900Y-75733665D01*
X129309349Y-75753376D01*
X129306165Y-75773479D01*
X129306911Y-75781371D01*
X129310341Y-75817656D01*
X129310900Y-75829514D01*
X129310900Y-84606914D01*
X129290898Y-84675035D01*
X129237242Y-84721528D01*
X129166968Y-84731632D01*
X129115805Y-84710864D01*
X129115504Y-84711386D01*
X129111746Y-84709216D01*
X129110834Y-84708846D01*
X129109787Y-84708085D01*
X129109786Y-84708084D01*
X129104445Y-84704204D01*
X129098417Y-84701520D01*
X129098415Y-84701519D01*
X128946977Y-84634095D01*
X128946976Y-84634095D01*
X128940946Y-84631410D01*
X128853416Y-84612805D01*
X128772343Y-84595572D01*
X128772339Y-84595572D01*
X128765886Y-84594200D01*
X128586914Y-84594200D01*
X128580461Y-84595572D01*
X128580457Y-84595572D01*
X128499384Y-84612805D01*
X128411854Y-84631410D01*
X128405824Y-84634095D01*
X128405823Y-84634095D01*
X128254385Y-84701519D01*
X128254383Y-84701520D01*
X128248355Y-84704204D01*
X128243014Y-84708084D01*
X128243013Y-84708085D01*
X128134643Y-84786821D01*
X128103564Y-84809401D01*
X128099143Y-84814311D01*
X128099142Y-84814312D01*
X127990621Y-84934838D01*
X127983809Y-84942403D01*
X127894323Y-85097397D01*
X127839018Y-85267609D01*
X127838328Y-85274172D01*
X127838328Y-85274173D01*
X127827365Y-85378479D01*
X127820310Y-85445600D01*
X127839018Y-85623591D01*
X127841058Y-85629869D01*
X127841058Y-85629870D01*
X127853227Y-85667322D01*
X127894323Y-85793803D01*
X127897626Y-85799525D01*
X127897627Y-85799526D01*
X127910258Y-85821404D01*
X127983809Y-85948797D01*
X127988227Y-85953704D01*
X127988228Y-85953705D01*
X128098166Y-86075804D01*
X128103564Y-86081799D01*
X128108906Y-86085680D01*
X128108908Y-86085682D01*
X128242299Y-86182596D01*
X128248355Y-86186996D01*
X128254383Y-86189680D01*
X128254385Y-86189681D01*
X128324961Y-86221103D01*
X128411854Y-86259790D01*
X128499384Y-86278395D01*
X128580457Y-86295628D01*
X128580461Y-86295628D01*
X128586914Y-86297000D01*
X128765886Y-86297000D01*
X128772339Y-86295628D01*
X128772343Y-86295628D01*
X128853416Y-86278395D01*
X128940946Y-86259790D01*
X129027839Y-86221103D01*
X129098415Y-86189681D01*
X129098417Y-86189680D01*
X129104445Y-86186996D01*
X129110501Y-86182596D01*
X129243892Y-86085682D01*
X129243894Y-86085680D01*
X129249236Y-86081799D01*
X129254634Y-86075804D01*
X129366319Y-85951765D01*
X129426765Y-85914525D01*
X129497749Y-85915877D01*
X129549050Y-85946980D01*
X130233156Y-86631086D01*
X130267182Y-86693398D01*
X130265929Y-86746068D01*
X130267022Y-86746261D01*
X130266068Y-86751673D01*
X130264643Y-86756991D01*
X130246042Y-86969599D01*
X130264643Y-87182207D01*
X130266067Y-87187520D01*
X130266067Y-87187522D01*
X130314012Y-87366453D01*
X130319880Y-87388354D01*
X130322202Y-87393335D01*
X130322203Y-87393336D01*
X130407749Y-87576791D01*
X130407752Y-87576796D01*
X130410075Y-87581778D01*
X130413231Y-87586285D01*
X130413232Y-87586287D01*
X130518345Y-87736403D01*
X130532488Y-87756602D01*
X130683398Y-87907512D01*
X130858221Y-88029925D01*
X130863203Y-88032248D01*
X130863208Y-88032251D01*
X131046657Y-88117794D01*
X131046661Y-88117795D01*
X131051646Y-88120120D01*
X131056204Y-88121341D01*
X131113179Y-88163291D01*
X131138518Y-88229613D01*
X131123978Y-88299104D01*
X131074176Y-88349704D01*
X131056494Y-88357779D01*
X131051646Y-88359078D01*
X131046661Y-88361403D01*
X131046657Y-88361404D01*
X130863209Y-88446947D01*
X130863204Y-88446950D01*
X130858222Y-88449273D01*
X130853715Y-88452429D01*
X130853713Y-88452430D01*
X130687909Y-88568527D01*
X130687906Y-88568529D01*
X130683398Y-88571686D01*
X130532488Y-88722596D01*
X130529331Y-88727104D01*
X130529329Y-88727107D01*
X130428653Y-88870888D01*
X130410075Y-88897420D01*
X130407752Y-88902402D01*
X130407749Y-88902407D01*
X130336519Y-89055162D01*
X130319880Y-89090844D01*
X130318458Y-89096152D01*
X130318457Y-89096154D01*
X130266068Y-89291673D01*
X130264643Y-89296991D01*
X130246042Y-89509599D01*
X130264643Y-89722207D01*
X130266067Y-89727520D01*
X130266067Y-89727522D01*
X130316687Y-89916436D01*
X130319880Y-89928354D01*
X130322202Y-89933335D01*
X130322203Y-89933336D01*
X130407749Y-90116791D01*
X130407752Y-90116796D01*
X130410075Y-90121778D01*
X130413231Y-90126285D01*
X130413232Y-90126287D01*
X130521783Y-90281313D01*
X130532488Y-90296602D01*
X130683398Y-90447512D01*
X130687906Y-90450669D01*
X130687909Y-90450671D01*
X130699060Y-90458479D01*
X130858221Y-90569925D01*
X130863209Y-90572251D01*
X130867901Y-90574960D01*
X130916894Y-90626343D01*
X130930329Y-90696057D01*
X130903942Y-90761968D01*
X130846110Y-90803149D01*
X130804900Y-90810079D01*
X130556001Y-90810079D01*
X130556001Y-91189460D01*
X130535999Y-91257581D01*
X130532368Y-91262512D01*
X130532488Y-91262596D01*
X130451952Y-91377614D01*
X130410075Y-91437420D01*
X130407752Y-91442402D01*
X130407749Y-91442407D01*
X130341256Y-91585003D01*
X130319880Y-91630844D01*
X130318458Y-91636152D01*
X130318457Y-91636154D01*
X130272741Y-91806769D01*
X130264643Y-91836991D01*
X130246042Y-92049599D01*
X130264643Y-92262207D01*
X130266067Y-92267520D01*
X130266067Y-92267522D01*
X130314012Y-92446453D01*
X130319880Y-92468354D01*
X130322202Y-92473335D01*
X130322203Y-92473336D01*
X130407749Y-92656791D01*
X130407752Y-92656796D01*
X130410075Y-92661778D01*
X130413231Y-92666285D01*
X130413232Y-92666287D01*
X130532488Y-92836602D01*
X130530551Y-92837958D01*
X130554985Y-92893772D01*
X130556001Y-92909738D01*
X130556001Y-93332152D01*
X130535999Y-93400273D01*
X130505567Y-93432977D01*
X130395940Y-93515138D01*
X130308586Y-93631694D01*
X130257456Y-93768083D01*
X130250701Y-93830265D01*
X130250701Y-95348933D01*
X130257456Y-95411115D01*
X130308586Y-95547504D01*
X130395940Y-95664060D01*
X130512496Y-95751414D01*
X130648885Y-95802544D01*
X130711067Y-95809299D01*
X130847388Y-95809299D01*
X130915509Y-95829301D01*
X130962002Y-95882957D01*
X130972106Y-95953231D01*
X130942612Y-96017811D01*
X130900638Y-96049494D01*
X130863209Y-96066947D01*
X130863204Y-96066950D01*
X130858222Y-96069273D01*
X130853715Y-96072429D01*
X130853713Y-96072430D01*
X130687909Y-96188527D01*
X130687906Y-96188529D01*
X130683398Y-96191686D01*
X130532488Y-96342596D01*
X130529331Y-96347104D01*
X130529329Y-96347107D01*
X130443765Y-96469305D01*
X130410075Y-96517420D01*
X130407752Y-96522402D01*
X130407749Y-96522407D01*
X130322474Y-96705281D01*
X130319880Y-96710844D01*
X130318458Y-96716152D01*
X130318457Y-96716154D01*
X130272741Y-96886769D01*
X130264643Y-96916991D01*
X130246042Y-97129599D01*
X130264643Y-97342207D01*
X130266067Y-97347520D01*
X130266067Y-97347522D01*
X130314012Y-97526453D01*
X130319880Y-97548354D01*
X130322202Y-97553335D01*
X130322203Y-97553336D01*
X130407749Y-97736791D01*
X130407752Y-97736796D01*
X130410075Y-97741778D01*
X130413231Y-97746285D01*
X130413232Y-97746287D01*
X130497076Y-97866028D01*
X130532488Y-97916602D01*
X130655931Y-98040045D01*
X130689957Y-98102357D01*
X130684892Y-98173172D01*
X130643979Y-98227022D01*
X130644307Y-98227371D01*
X130642236Y-98229316D01*
X130640901Y-98231073D01*
X130638531Y-98232795D01*
X130638529Y-98232797D01*
X130632115Y-98237457D01*
X130627062Y-98243565D01*
X130603825Y-98271654D01*
X130595835Y-98280434D01*
X128435317Y-100440951D01*
X128426991Y-100448527D01*
X128420497Y-100452648D01*
X128398744Y-100475813D01*
X128373715Y-100502466D01*
X128370960Y-100505308D01*
X128351161Y-100525107D01*
X128348737Y-100528232D01*
X128348729Y-100528241D01*
X128348663Y-100528327D01*
X128340955Y-100537352D01*
X128310583Y-100569695D01*
X128306765Y-100576639D01*
X128306764Y-100576641D01*
X128300778Y-100587530D01*
X128289927Y-100604048D01*
X128277450Y-100620134D01*
X128259824Y-100660867D01*
X128254607Y-100671515D01*
X128253122Y-100674217D01*
X128233231Y-100710398D01*
X128231260Y-100718073D01*
X128231258Y-100718079D01*
X128228169Y-100730112D01*
X128221766Y-100748814D01*
X128213683Y-100767493D01*
X128212444Y-100775318D01*
X128206740Y-100811328D01*
X128204335Y-100822941D01*
X128193300Y-100865919D01*
X128193300Y-100886266D01*
X128191749Y-100905977D01*
X128188565Y-100926080D01*
X128189311Y-100933972D01*
X128192741Y-100970257D01*
X128193300Y-100982115D01*
X128193300Y-108937780D01*
X128192770Y-108949014D01*
X128191092Y-108956519D01*
X128191341Y-108964438D01*
X128193238Y-109024812D01*
X128193300Y-109028769D01*
X128193300Y-109056783D01*
X128193796Y-109060708D01*
X128193796Y-109060709D01*
X128193808Y-109060804D01*
X128194741Y-109072649D01*
X128196135Y-109117005D01*
X128198347Y-109124617D01*
X128201813Y-109136548D01*
X128205823Y-109155912D01*
X128208373Y-109176099D01*
X128211289Y-109183463D01*
X128211290Y-109183468D01*
X128224707Y-109217356D01*
X128228552Y-109228585D01*
X128233398Y-109245265D01*
X128240931Y-109271193D01*
X128244969Y-109278020D01*
X128244970Y-109278023D01*
X128251288Y-109288706D01*
X128259988Y-109306464D01*
X128264561Y-109318015D01*
X128264565Y-109318021D01*
X128267481Y-109325388D01*
X128272139Y-109331799D01*
X128272140Y-109331801D01*
X128293564Y-109361288D01*
X128300081Y-109371210D01*
X128318626Y-109402568D01*
X128318629Y-109402572D01*
X128322666Y-109409398D01*
X128337050Y-109423782D01*
X128349891Y-109438816D01*
X128361858Y-109455287D01*
X128367966Y-109460340D01*
X128396055Y-109483577D01*
X128404835Y-109491567D01*
X135587950Y-116674683D01*
X135595526Y-116683009D01*
X135599647Y-116689503D01*
X135605422Y-116694926D01*
X135649465Y-116736285D01*
X135652307Y-116739040D01*
X135672106Y-116758839D01*
X135675231Y-116761263D01*
X135675240Y-116761271D01*
X135675326Y-116761337D01*
X135684351Y-116769045D01*
X135716694Y-116799417D01*
X135723638Y-116803235D01*
X135723640Y-116803236D01*
X135734529Y-116809222D01*
X135751047Y-116820073D01*
X135767133Y-116832550D01*
X135807866Y-116850176D01*
X135818514Y-116855393D01*
X135857397Y-116876769D01*
X135865072Y-116878740D01*
X135865078Y-116878742D01*
X135877111Y-116881831D01*
X135895813Y-116888234D01*
X135914492Y-116896317D01*
X135948328Y-116901676D01*
X135958327Y-116903260D01*
X135969940Y-116905665D01*
X136012918Y-116916700D01*
X136033265Y-116916700D01*
X136052977Y-116918251D01*
X136073079Y-116921435D01*
X136080971Y-116920689D01*
X136117256Y-116917259D01*
X136129114Y-116916700D01*
X142940577Y-116916700D01*
X143008698Y-116936702D01*
X143029672Y-116953605D01*
X143564234Y-117488167D01*
X143598260Y-117550479D01*
X143593195Y-117621294D01*
X143550648Y-117678130D01*
X143521420Y-117694454D01*
X143495445Y-117704712D01*
X143405710Y-117740150D01*
X143206641Y-117860949D01*
X143202611Y-117864446D01*
X143039253Y-118006200D01*
X143030770Y-118013561D01*
X143027387Y-118017687D01*
X143027383Y-118017691D01*
X142957677Y-118102705D01*
X142883128Y-118193624D01*
X142880490Y-118198259D01*
X142880487Y-118198263D01*
X142857155Y-118239252D01*
X142806073Y-118288558D01*
X142736442Y-118302420D01*
X142670371Y-118276437D01*
X142643133Y-118247287D01*
X142585778Y-118162095D01*
X142551196Y-118110728D01*
X142543543Y-118102705D01*
X142431945Y-117985721D01*
X142390468Y-117942242D01*
X142203650Y-117803246D01*
X142076574Y-117738637D01*
X142000842Y-117700133D01*
X142000841Y-117700133D01*
X141996084Y-117697714D01*
X141863621Y-117656583D01*
X141778807Y-117630247D01*
X141778801Y-117630246D01*
X141773704Y-117628663D01*
X141649340Y-117612180D01*
X141548152Y-117598768D01*
X141548148Y-117598768D01*
X141542868Y-117598068D01*
X141537538Y-117598268D01*
X141537537Y-117598268D01*
X141426523Y-117602436D01*
X141310178Y-117606803D01*
X141304950Y-117607900D01*
X141087514Y-117653523D01*
X141087511Y-117653524D01*
X141082287Y-117654620D01*
X140865710Y-117740150D01*
X140666641Y-117860949D01*
X140662611Y-117864446D01*
X140499253Y-118006200D01*
X140490770Y-118013561D01*
X140487387Y-118017687D01*
X140487383Y-118017691D01*
X140417677Y-118102705D01*
X140343128Y-118193624D01*
X140340490Y-118198259D01*
X140340487Y-118198263D01*
X140317155Y-118239252D01*
X140266073Y-118288558D01*
X140196442Y-118302420D01*
X140130371Y-118276437D01*
X140103133Y-118247287D01*
X140045778Y-118162095D01*
X140011196Y-118110728D01*
X140003543Y-118102705D01*
X139891945Y-117985721D01*
X139850468Y-117942242D01*
X139663650Y-117803246D01*
X139536574Y-117738637D01*
X139460842Y-117700133D01*
X139460841Y-117700133D01*
X139456084Y-117697714D01*
X139323621Y-117656583D01*
X139238807Y-117630247D01*
X139238801Y-117630246D01*
X139233704Y-117628663D01*
X139109340Y-117612180D01*
X139008152Y-117598768D01*
X139008148Y-117598768D01*
X139002868Y-117598068D01*
X138997538Y-117598268D01*
X138997537Y-117598268D01*
X138886523Y-117602436D01*
X138770178Y-117606803D01*
X138764950Y-117607900D01*
X138547514Y-117653523D01*
X138547511Y-117653524D01*
X138542287Y-117654620D01*
X138325710Y-117740150D01*
X138126641Y-117860949D01*
X138122611Y-117864446D01*
X137959253Y-118006200D01*
X137950770Y-118013561D01*
X137947387Y-118017687D01*
X137947383Y-118017691D01*
X137877677Y-118102705D01*
X137803128Y-118193624D01*
X137800490Y-118198259D01*
X137800487Y-118198263D01*
X137777155Y-118239252D01*
X137726073Y-118288558D01*
X137656442Y-118302420D01*
X137590371Y-118276437D01*
X137563133Y-118247287D01*
X137505778Y-118162095D01*
X137471196Y-118110728D01*
X137463543Y-118102705D01*
X137351945Y-117985721D01*
X137310468Y-117942242D01*
X137123650Y-117803246D01*
X136996574Y-117738637D01*
X136920842Y-117700133D01*
X136920841Y-117700133D01*
X136916084Y-117697714D01*
X136783621Y-117656583D01*
X136698807Y-117630247D01*
X136698801Y-117630246D01*
X136693704Y-117628663D01*
X136569340Y-117612180D01*
X136468152Y-117598768D01*
X136468148Y-117598768D01*
X136462868Y-117598068D01*
X136457538Y-117598268D01*
X136457537Y-117598268D01*
X136346523Y-117602436D01*
X136230178Y-117606803D01*
X136224950Y-117607900D01*
X136007514Y-117653523D01*
X136007511Y-117653524D01*
X136002287Y-117654620D01*
X135785710Y-117740150D01*
X135586641Y-117860949D01*
X135582611Y-117864446D01*
X135419253Y-118006200D01*
X135410770Y-118013561D01*
X135407387Y-118017687D01*
X135407383Y-118017691D01*
X135337677Y-118102705D01*
X135263128Y-118193624D01*
X135236878Y-118239739D01*
X135185798Y-118289044D01*
X135116168Y-118302906D01*
X135050096Y-118276923D01*
X135022857Y-118247773D01*
X134933785Y-118115470D01*
X134927124Y-118107184D01*
X134773820Y-117946480D01*
X134765852Y-117939431D01*
X134587664Y-117806856D01*
X134578634Y-117801257D01*
X134380653Y-117700598D01*
X134370792Y-117696595D01*
X134158699Y-117630737D01*
X134148304Y-117628452D01*
X134129959Y-117626020D01*
X134115792Y-117628217D01*
X134112000Y-117641401D01*
X134112000Y-120608488D01*
X134115973Y-120622019D01*
X134126580Y-120623544D01*
X134248343Y-120597996D01*
X134258539Y-120594936D01*
X134465097Y-120513363D01*
X134474634Y-120508629D01*
X134664503Y-120393414D01*
X134673093Y-120387150D01*
X134840837Y-120241589D01*
X134848257Y-120233959D01*
X134989073Y-120062220D01*
X134995102Y-120053449D01*
X135018533Y-120012285D01*
X135069615Y-119962978D01*
X135139245Y-119949116D01*
X135205316Y-119975099D01*
X135232555Y-120004249D01*
X135324804Y-120141272D01*
X135328483Y-120145129D01*
X135328485Y-120145131D01*
X135413223Y-120233959D01*
X135485532Y-120309758D01*
X135672350Y-120448754D01*
X135738627Y-120482451D01*
X135874244Y-120551402D01*
X135879916Y-120554286D01*
X135991106Y-120588812D01*
X136097193Y-120621753D01*
X136097199Y-120621754D01*
X136102296Y-120623337D01*
X136226660Y-120639820D01*
X136327848Y-120653232D01*
X136327852Y-120653232D01*
X136333132Y-120653932D01*
X136338462Y-120653732D01*
X136338463Y-120653732D01*
X136449477Y-120649565D01*
X136565822Y-120645197D01*
X136730713Y-120610599D01*
X136788486Y-120598477D01*
X136788489Y-120598476D01*
X136793713Y-120597380D01*
X137010290Y-120511850D01*
X137209359Y-120391051D01*
X137249307Y-120356386D01*
X137381197Y-120241939D01*
X137381199Y-120241937D01*
X137385230Y-120238439D01*
X137388613Y-120234313D01*
X137388617Y-120234309D01*
X137492819Y-120107224D01*
X137532872Y-120058376D01*
X137538754Y-120048044D01*
X137558845Y-120012748D01*
X137609927Y-119963442D01*
X137679558Y-119949580D01*
X137745629Y-119975563D01*
X137772867Y-120004713D01*
X137777439Y-120011504D01*
X137864804Y-120141272D01*
X137868483Y-120145129D01*
X137868485Y-120145131D01*
X137953223Y-120233959D01*
X138025532Y-120309758D01*
X138212350Y-120448754D01*
X138278627Y-120482451D01*
X138414244Y-120551402D01*
X138419916Y-120554286D01*
X138531106Y-120588812D01*
X138637193Y-120621753D01*
X138637199Y-120621754D01*
X138642296Y-120623337D01*
X138766660Y-120639820D01*
X138867848Y-120653232D01*
X138867852Y-120653232D01*
X138873132Y-120653932D01*
X138878462Y-120653732D01*
X138878463Y-120653732D01*
X138989477Y-120649565D01*
X139105822Y-120645197D01*
X139270713Y-120610599D01*
X139328486Y-120598477D01*
X139328489Y-120598476D01*
X139333713Y-120597380D01*
X139550290Y-120511850D01*
X139749359Y-120391051D01*
X139789307Y-120356386D01*
X139921197Y-120241939D01*
X139921199Y-120241937D01*
X139925230Y-120238439D01*
X139928613Y-120234313D01*
X139928617Y-120234309D01*
X140032819Y-120107224D01*
X140072872Y-120058376D01*
X140078754Y-120048044D01*
X140098845Y-120012748D01*
X140149927Y-119963442D01*
X140219558Y-119949580D01*
X140285629Y-119975563D01*
X140312867Y-120004713D01*
X140317439Y-120011504D01*
X140404804Y-120141272D01*
X140408483Y-120145129D01*
X140408485Y-120145131D01*
X140493223Y-120233959D01*
X140565532Y-120309758D01*
X140752350Y-120448754D01*
X140818627Y-120482451D01*
X140954244Y-120551402D01*
X140959916Y-120554286D01*
X141071106Y-120588812D01*
X141177193Y-120621753D01*
X141177199Y-120621754D01*
X141182296Y-120623337D01*
X141306660Y-120639820D01*
X141407848Y-120653232D01*
X141407852Y-120653232D01*
X141413132Y-120653932D01*
X141418462Y-120653732D01*
X141418463Y-120653732D01*
X141529477Y-120649565D01*
X141645822Y-120645197D01*
X141810713Y-120610599D01*
X141868486Y-120598477D01*
X141868489Y-120598476D01*
X141873713Y-120597380D01*
X142090290Y-120511850D01*
X142289359Y-120391051D01*
X142329307Y-120356386D01*
X142461197Y-120241939D01*
X142461199Y-120241937D01*
X142465230Y-120238439D01*
X142468613Y-120234313D01*
X142468617Y-120234309D01*
X142572819Y-120107224D01*
X142612872Y-120058376D01*
X142618754Y-120048044D01*
X142638845Y-120012748D01*
X142689927Y-119963442D01*
X142759558Y-119949580D01*
X142825629Y-119975563D01*
X142852867Y-120004713D01*
X142857439Y-120011504D01*
X142944804Y-120141272D01*
X142948483Y-120145129D01*
X142948485Y-120145131D01*
X143033223Y-120233959D01*
X143105532Y-120309758D01*
X143292350Y-120448754D01*
X143358627Y-120482451D01*
X143494244Y-120551402D01*
X143499916Y-120554286D01*
X143611106Y-120588812D01*
X143717193Y-120621753D01*
X143717199Y-120621754D01*
X143722296Y-120623337D01*
X143846660Y-120639820D01*
X143947848Y-120653232D01*
X143947852Y-120653232D01*
X143953132Y-120653932D01*
X143958462Y-120653732D01*
X143958463Y-120653732D01*
X144069477Y-120649565D01*
X144185822Y-120645197D01*
X144350713Y-120610599D01*
X144408486Y-120598477D01*
X144408489Y-120598476D01*
X144413713Y-120597380D01*
X144630290Y-120511850D01*
X144829359Y-120391051D01*
X144869307Y-120356386D01*
X145001197Y-120241939D01*
X145001199Y-120241937D01*
X145005230Y-120238439D01*
X145008613Y-120234313D01*
X145008617Y-120234309D01*
X145112819Y-120107224D01*
X145152872Y-120058376D01*
X145158754Y-120048044D01*
X145178845Y-120012748D01*
X145229927Y-119963442D01*
X145299558Y-119949580D01*
X145365629Y-119975563D01*
X145392867Y-120004713D01*
X145397439Y-120011504D01*
X145484804Y-120141272D01*
X145488483Y-120145129D01*
X145488485Y-120145131D01*
X145573223Y-120233959D01*
X145645532Y-120309758D01*
X145832350Y-120448754D01*
X145898627Y-120482451D01*
X146034244Y-120551402D01*
X146039916Y-120554286D01*
X146151106Y-120588812D01*
X146257193Y-120621753D01*
X146257199Y-120621754D01*
X146262296Y-120623337D01*
X146386660Y-120639820D01*
X146487848Y-120653232D01*
X146487852Y-120653232D01*
X146493132Y-120653932D01*
X146498462Y-120653732D01*
X146498463Y-120653732D01*
X146609477Y-120649565D01*
X146725822Y-120645197D01*
X146890713Y-120610599D01*
X146948486Y-120598477D01*
X146948489Y-120598476D01*
X146953713Y-120597380D01*
X147170290Y-120511850D01*
X147369359Y-120391051D01*
X147409307Y-120356386D01*
X147541197Y-120241939D01*
X147541199Y-120241937D01*
X147545230Y-120238439D01*
X147548613Y-120234313D01*
X147548617Y-120234309D01*
X147652819Y-120107224D01*
X147692872Y-120058376D01*
X147698754Y-120048044D01*
X147718845Y-120012748D01*
X147769927Y-119963442D01*
X147839558Y-119949580D01*
X147905629Y-119975563D01*
X147932867Y-120004713D01*
X147937439Y-120011504D01*
X148024804Y-120141272D01*
X148028483Y-120145129D01*
X148028485Y-120145131D01*
X148113223Y-120233959D01*
X148185532Y-120309758D01*
X148372350Y-120448754D01*
X148438627Y-120482451D01*
X148574244Y-120551402D01*
X148579916Y-120554286D01*
X148691106Y-120588812D01*
X148797193Y-120621753D01*
X148797199Y-120621754D01*
X148802296Y-120623337D01*
X148926660Y-120639820D01*
X149027848Y-120653232D01*
X149027852Y-120653232D01*
X149033132Y-120653932D01*
X149038462Y-120653732D01*
X149038463Y-120653732D01*
X149149477Y-120649565D01*
X149265822Y-120645197D01*
X149430713Y-120610599D01*
X149488486Y-120598477D01*
X149488489Y-120598476D01*
X149493713Y-120597380D01*
X149710290Y-120511850D01*
X149909359Y-120391051D01*
X149949307Y-120356386D01*
X150081197Y-120241939D01*
X150081199Y-120241937D01*
X150085230Y-120238439D01*
X150088613Y-120234313D01*
X150088617Y-120234309D01*
X150192819Y-120107224D01*
X150232872Y-120058376D01*
X150238754Y-120048044D01*
X150345422Y-119860654D01*
X150348065Y-119856011D01*
X150368239Y-119800435D01*
X150425695Y-119642146D01*
X150425696Y-119642142D01*
X150427515Y-119637131D01*
X150432458Y-119609799D01*
X150450428Y-119510420D01*
X150468950Y-119407993D01*
X150470100Y-119383606D01*
X150470100Y-119364415D01*
X150490102Y-119296294D01*
X150543758Y-119249801D01*
X150614032Y-119239697D01*
X150670160Y-119262478D01*
X150803555Y-119359396D01*
X150809583Y-119362080D01*
X150809585Y-119362081D01*
X150861276Y-119385095D01*
X150967054Y-119432190D01*
X151054584Y-119450795D01*
X151135657Y-119468028D01*
X151135661Y-119468028D01*
X151142114Y-119469400D01*
X151321086Y-119469400D01*
X151327539Y-119468028D01*
X151327543Y-119468028D01*
X151408616Y-119450795D01*
X151496146Y-119432190D01*
X151601924Y-119385095D01*
X151653615Y-119362081D01*
X151653617Y-119362080D01*
X151659645Y-119359396D01*
X151690652Y-119336868D01*
X151799092Y-119258082D01*
X151799094Y-119258080D01*
X151804436Y-119254199D01*
X151896824Y-119151591D01*
X151919772Y-119126105D01*
X151919773Y-119126104D01*
X151924191Y-119121197D01*
X152005616Y-118980165D01*
X152010373Y-118971926D01*
X152010374Y-118971925D01*
X152013677Y-118966203D01*
X152068982Y-118795991D01*
X152087690Y-118618000D01*
X152087469Y-118615901D01*
X152107002Y-118549379D01*
X152160658Y-118502886D01*
X152213000Y-118491500D01*
X152719966Y-118491500D01*
X152788087Y-118511502D01*
X152834580Y-118565158D01*
X152843955Y-118639921D01*
X152807050Y-118844007D01*
X152805900Y-118868394D01*
X152805900Y-119336868D01*
X152809740Y-119382119D01*
X152818190Y-119481705D01*
X152820626Y-119510420D01*
X152821964Y-119515577D01*
X152821965Y-119515580D01*
X152874421Y-119717681D01*
X152879125Y-119735806D01*
X152881317Y-119740672D01*
X152881318Y-119740675D01*
X152902542Y-119787790D01*
X152974762Y-119948113D01*
X153104804Y-120141272D01*
X153108483Y-120145129D01*
X153108485Y-120145131D01*
X153193223Y-120233959D01*
X153265532Y-120309758D01*
X153452350Y-120448754D01*
X153518627Y-120482451D01*
X153654244Y-120551402D01*
X153659916Y-120554286D01*
X153771106Y-120588812D01*
X153877193Y-120621753D01*
X153877199Y-120621754D01*
X153882296Y-120623337D01*
X154006660Y-120639820D01*
X154107848Y-120653232D01*
X154107852Y-120653232D01*
X154113132Y-120653932D01*
X154118462Y-120653732D01*
X154118463Y-120653732D01*
X154229477Y-120649565D01*
X154345822Y-120645197D01*
X154510713Y-120610599D01*
X154568486Y-120598477D01*
X154568489Y-120598476D01*
X154573713Y-120597380D01*
X154790290Y-120511850D01*
X154989359Y-120391051D01*
X155029307Y-120356386D01*
X155161197Y-120241939D01*
X155161199Y-120241937D01*
X155165230Y-120238439D01*
X155168613Y-120234313D01*
X155168617Y-120234309D01*
X155272819Y-120107224D01*
X155312872Y-120058376D01*
X155318754Y-120048044D01*
X155338845Y-120012748D01*
X155389927Y-119963442D01*
X155459558Y-119949580D01*
X155525629Y-119975563D01*
X155552867Y-120004713D01*
X155557439Y-120011504D01*
X155644804Y-120141272D01*
X155648483Y-120145129D01*
X155648485Y-120145131D01*
X155733223Y-120233959D01*
X155805532Y-120309758D01*
X155992350Y-120448754D01*
X156058627Y-120482451D01*
X156194244Y-120551402D01*
X156199916Y-120554286D01*
X156311106Y-120588812D01*
X156417193Y-120621753D01*
X156417199Y-120621754D01*
X156422296Y-120623337D01*
X156546660Y-120639820D01*
X156647848Y-120653232D01*
X156647852Y-120653232D01*
X156653132Y-120653932D01*
X156658462Y-120653732D01*
X156658463Y-120653732D01*
X156769477Y-120649565D01*
X156885822Y-120645197D01*
X157050713Y-120610599D01*
X157108486Y-120598477D01*
X157108489Y-120598476D01*
X157113713Y-120597380D01*
X157330290Y-120511850D01*
X157529359Y-120391051D01*
X157569307Y-120356386D01*
X157701197Y-120241939D01*
X157701199Y-120241937D01*
X157705230Y-120238439D01*
X157708613Y-120234313D01*
X157708617Y-120234309D01*
X157812819Y-120107224D01*
X157852872Y-120058376D01*
X157858754Y-120048044D01*
X157878845Y-120012748D01*
X157929927Y-119963442D01*
X157999558Y-119949580D01*
X158065629Y-119975563D01*
X158092867Y-120004713D01*
X158097439Y-120011504D01*
X158184804Y-120141272D01*
X158188483Y-120145129D01*
X158188485Y-120145131D01*
X158273223Y-120233959D01*
X158345532Y-120309758D01*
X158532350Y-120448754D01*
X158598627Y-120482451D01*
X158734244Y-120551402D01*
X158739916Y-120554286D01*
X158851106Y-120588812D01*
X158957193Y-120621753D01*
X158957199Y-120621754D01*
X158962296Y-120623337D01*
X159086660Y-120639820D01*
X159187848Y-120653232D01*
X159187852Y-120653232D01*
X159193132Y-120653932D01*
X159198462Y-120653732D01*
X159198463Y-120653732D01*
X159309477Y-120649565D01*
X159425822Y-120645197D01*
X159590713Y-120610599D01*
X159648486Y-120598477D01*
X159648489Y-120598476D01*
X159653713Y-120597380D01*
X159870290Y-120511850D01*
X160069359Y-120391051D01*
X160109307Y-120356386D01*
X160241197Y-120241939D01*
X160241199Y-120241937D01*
X160245230Y-120238439D01*
X160248613Y-120234313D01*
X160248617Y-120234309D01*
X160352819Y-120107224D01*
X160392872Y-120058376D01*
X160398754Y-120048044D01*
X160418845Y-120012748D01*
X160469927Y-119963442D01*
X160539558Y-119949580D01*
X160605629Y-119975563D01*
X160632867Y-120004713D01*
X160637439Y-120011504D01*
X160724804Y-120141272D01*
X160728483Y-120145129D01*
X160728485Y-120145131D01*
X160813223Y-120233959D01*
X160885532Y-120309758D01*
X161072350Y-120448754D01*
X161138627Y-120482451D01*
X161274244Y-120551402D01*
X161279916Y-120554286D01*
X161391106Y-120588812D01*
X161497193Y-120621753D01*
X161497199Y-120621754D01*
X161502296Y-120623337D01*
X161626660Y-120639820D01*
X161727848Y-120653232D01*
X161727852Y-120653232D01*
X161733132Y-120653932D01*
X161738462Y-120653732D01*
X161738463Y-120653732D01*
X161849477Y-120649565D01*
X161965822Y-120645197D01*
X162130713Y-120610599D01*
X162188486Y-120598477D01*
X162188489Y-120598476D01*
X162193713Y-120597380D01*
X162410290Y-120511850D01*
X162609359Y-120391051D01*
X162649307Y-120356386D01*
X162781197Y-120241939D01*
X162781199Y-120241937D01*
X162785230Y-120238439D01*
X162788613Y-120234313D01*
X162788617Y-120234309D01*
X162892819Y-120107224D01*
X162932872Y-120058376D01*
X162938754Y-120048044D01*
X162958845Y-120012748D01*
X163009927Y-119963442D01*
X163079558Y-119949580D01*
X163145629Y-119975563D01*
X163172867Y-120004713D01*
X163177439Y-120011504D01*
X163264804Y-120141272D01*
X163268483Y-120145129D01*
X163268485Y-120145131D01*
X163353223Y-120233959D01*
X163425532Y-120309758D01*
X163612350Y-120448754D01*
X163678627Y-120482451D01*
X163814244Y-120551402D01*
X163819916Y-120554286D01*
X163931106Y-120588812D01*
X164037193Y-120621753D01*
X164037199Y-120621754D01*
X164042296Y-120623337D01*
X164166660Y-120639820D01*
X164267848Y-120653232D01*
X164267852Y-120653232D01*
X164273132Y-120653932D01*
X164278462Y-120653732D01*
X164278463Y-120653732D01*
X164389477Y-120649565D01*
X164505822Y-120645197D01*
X164670713Y-120610599D01*
X164728486Y-120598477D01*
X164728489Y-120598476D01*
X164733713Y-120597380D01*
X164950290Y-120511850D01*
X165149359Y-120391051D01*
X165189307Y-120356386D01*
X165321197Y-120241939D01*
X165321199Y-120241937D01*
X165325230Y-120238439D01*
X165328613Y-120234313D01*
X165328617Y-120234309D01*
X165432819Y-120107224D01*
X165472872Y-120058376D01*
X165478754Y-120048044D01*
X165498845Y-120012748D01*
X165549927Y-119963442D01*
X165619558Y-119949580D01*
X165685629Y-119975563D01*
X165712867Y-120004713D01*
X165717439Y-120011504D01*
X165804804Y-120141272D01*
X165808483Y-120145129D01*
X165808485Y-120145131D01*
X165893223Y-120233959D01*
X165965532Y-120309758D01*
X166152350Y-120448754D01*
X166218627Y-120482451D01*
X166354244Y-120551402D01*
X166359916Y-120554286D01*
X166471106Y-120588812D01*
X166577193Y-120621753D01*
X166577199Y-120621754D01*
X166582296Y-120623337D01*
X166706660Y-120639820D01*
X166807848Y-120653232D01*
X166807852Y-120653232D01*
X166813132Y-120653932D01*
X166818462Y-120653732D01*
X166818463Y-120653732D01*
X166929477Y-120649565D01*
X167045822Y-120645197D01*
X167210713Y-120610599D01*
X167268486Y-120598477D01*
X167268489Y-120598476D01*
X167273713Y-120597380D01*
X167490290Y-120511850D01*
X167689359Y-120391051D01*
X167729307Y-120356386D01*
X167861197Y-120241939D01*
X167861199Y-120241937D01*
X167865230Y-120238439D01*
X167868613Y-120234313D01*
X167868617Y-120234309D01*
X167972819Y-120107224D01*
X168012872Y-120058376D01*
X168018754Y-120048044D01*
X168038845Y-120012748D01*
X168089927Y-119963442D01*
X168159558Y-119949580D01*
X168225629Y-119975563D01*
X168252867Y-120004713D01*
X168257439Y-120011504D01*
X168344804Y-120141272D01*
X168348483Y-120145129D01*
X168348485Y-120145131D01*
X168433223Y-120233959D01*
X168505532Y-120309758D01*
X168692350Y-120448754D01*
X168758627Y-120482451D01*
X168894244Y-120551402D01*
X168899916Y-120554286D01*
X169011106Y-120588812D01*
X169117193Y-120621753D01*
X169117199Y-120621754D01*
X169122296Y-120623337D01*
X169246660Y-120639820D01*
X169347848Y-120653232D01*
X169347852Y-120653232D01*
X169353132Y-120653932D01*
X169358462Y-120653732D01*
X169358463Y-120653732D01*
X169469477Y-120649565D01*
X169585822Y-120645197D01*
X169750713Y-120610599D01*
X169808486Y-120598477D01*
X169808489Y-120598476D01*
X169813713Y-120597380D01*
X170030290Y-120511850D01*
X170229359Y-120391051D01*
X170269307Y-120356386D01*
X170401197Y-120241939D01*
X170401199Y-120241937D01*
X170405230Y-120238439D01*
X170408613Y-120234313D01*
X170408617Y-120234309D01*
X170512819Y-120107224D01*
X170552872Y-120058376D01*
X170558754Y-120048044D01*
X170578845Y-120012748D01*
X170629927Y-119963442D01*
X170699558Y-119949580D01*
X170765629Y-119975563D01*
X170792867Y-120004713D01*
X170797439Y-120011504D01*
X170884804Y-120141272D01*
X170888483Y-120145129D01*
X170888485Y-120145131D01*
X170973223Y-120233959D01*
X171045532Y-120309758D01*
X171232350Y-120448754D01*
X171298627Y-120482451D01*
X171434244Y-120551402D01*
X171439916Y-120554286D01*
X171551106Y-120588812D01*
X171657193Y-120621753D01*
X171657199Y-120621754D01*
X171662296Y-120623337D01*
X171786660Y-120639820D01*
X171887848Y-120653232D01*
X171887852Y-120653232D01*
X171893132Y-120653932D01*
X171898462Y-120653732D01*
X171898463Y-120653732D01*
X172009477Y-120649565D01*
X172125822Y-120645197D01*
X172290713Y-120610599D01*
X172348486Y-120598477D01*
X172348489Y-120598476D01*
X172353713Y-120597380D01*
X172570290Y-120511850D01*
X172769359Y-120391051D01*
X172809307Y-120356386D01*
X172941197Y-120241939D01*
X172941199Y-120241937D01*
X172945230Y-120238439D01*
X172948613Y-120234313D01*
X172948617Y-120234309D01*
X173052819Y-120107224D01*
X173092872Y-120058376D01*
X173098754Y-120048044D01*
X173205422Y-119860654D01*
X173208065Y-119856011D01*
X173228239Y-119800435D01*
X173285695Y-119642146D01*
X173285696Y-119642142D01*
X173287515Y-119637131D01*
X173292458Y-119609799D01*
X173310428Y-119510420D01*
X173328950Y-119407993D01*
X173330100Y-119383606D01*
X173330100Y-118915132D01*
X173320524Y-118802270D01*
X173315825Y-118746891D01*
X173315824Y-118746887D01*
X173315374Y-118741580D01*
X173300147Y-118682913D01*
X173258217Y-118521363D01*
X173258216Y-118521359D01*
X173256875Y-118516194D01*
X173250881Y-118502886D01*
X173163433Y-118308760D01*
X173161238Y-118303887D01*
X173031196Y-118110728D01*
X173023543Y-118102705D01*
X172911945Y-117985721D01*
X172870468Y-117942242D01*
X172683650Y-117803246D01*
X172556574Y-117738637D01*
X172480842Y-117700133D01*
X172480841Y-117700133D01*
X172476084Y-117697714D01*
X172343621Y-117656583D01*
X172258807Y-117630247D01*
X172258801Y-117630246D01*
X172253704Y-117628663D01*
X172129340Y-117612180D01*
X172028152Y-117598768D01*
X172028148Y-117598768D01*
X172022868Y-117598068D01*
X172017538Y-117598268D01*
X172017537Y-117598268D01*
X171906523Y-117602436D01*
X171790178Y-117606803D01*
X171784950Y-117607900D01*
X171567514Y-117653523D01*
X171567511Y-117653524D01*
X171562287Y-117654620D01*
X171557317Y-117656583D01*
X171557316Y-117656583D01*
X171512352Y-117674340D01*
X171441646Y-117680758D01*
X171376976Y-117646243D01*
X171218128Y-117487395D01*
X171184102Y-117425083D01*
X171189167Y-117354268D01*
X171231714Y-117297432D01*
X171298234Y-117272621D01*
X171307223Y-117272300D01*
X174233378Y-117272300D01*
X174301499Y-117292302D01*
X174322473Y-117309205D01*
X175649553Y-118636285D01*
X175683579Y-118698597D01*
X175684447Y-118747801D01*
X175667050Y-118844007D01*
X175665900Y-118868394D01*
X175665900Y-119336868D01*
X175669740Y-119382119D01*
X175678190Y-119481705D01*
X175680626Y-119510420D01*
X175681964Y-119515577D01*
X175681965Y-119515580D01*
X175734421Y-119717681D01*
X175739125Y-119735806D01*
X175741317Y-119740672D01*
X175741318Y-119740675D01*
X175762542Y-119787790D01*
X175834762Y-119948113D01*
X175964804Y-120141272D01*
X175968483Y-120145129D01*
X175968485Y-120145131D01*
X176053223Y-120233959D01*
X176125532Y-120309758D01*
X176312350Y-120448754D01*
X176378627Y-120482451D01*
X176514244Y-120551402D01*
X176519916Y-120554286D01*
X176631106Y-120588812D01*
X176737193Y-120621753D01*
X176737199Y-120621754D01*
X176742296Y-120623337D01*
X176866660Y-120639820D01*
X176967848Y-120653232D01*
X176967852Y-120653232D01*
X176973132Y-120653932D01*
X176978462Y-120653732D01*
X176978463Y-120653732D01*
X177089477Y-120649565D01*
X177205822Y-120645197D01*
X177370713Y-120610599D01*
X177428486Y-120598477D01*
X177428489Y-120598476D01*
X177433713Y-120597380D01*
X177650290Y-120511850D01*
X177849359Y-120391051D01*
X177889307Y-120356386D01*
X178021197Y-120241939D01*
X178021199Y-120241937D01*
X178025230Y-120238439D01*
X178028613Y-120234313D01*
X178028617Y-120234309D01*
X178132819Y-120107224D01*
X178172872Y-120058376D01*
X178178754Y-120048044D01*
X178198845Y-120012748D01*
X178249927Y-119963442D01*
X178319558Y-119949580D01*
X178385629Y-119975563D01*
X178412867Y-120004713D01*
X178417439Y-120011504D01*
X178504804Y-120141272D01*
X178508483Y-120145129D01*
X178508485Y-120145131D01*
X178593223Y-120233959D01*
X178665532Y-120309758D01*
X178852350Y-120448754D01*
X178918627Y-120482451D01*
X179054244Y-120551402D01*
X179059916Y-120554286D01*
X179171106Y-120588812D01*
X179277193Y-120621753D01*
X179277199Y-120621754D01*
X179282296Y-120623337D01*
X179406660Y-120639820D01*
X179507848Y-120653232D01*
X179507852Y-120653232D01*
X179513132Y-120653932D01*
X179518462Y-120653732D01*
X179518463Y-120653732D01*
X179629477Y-120649565D01*
X179745822Y-120645197D01*
X179910713Y-120610599D01*
X179968486Y-120598477D01*
X179968489Y-120598476D01*
X179973713Y-120597380D01*
X180190290Y-120511850D01*
X180389359Y-120391051D01*
X180429307Y-120356386D01*
X180561197Y-120241939D01*
X180561199Y-120241937D01*
X180565230Y-120238439D01*
X180568613Y-120234313D01*
X180568617Y-120234309D01*
X180672819Y-120107224D01*
X180712872Y-120058376D01*
X180718754Y-120048044D01*
X180738845Y-120012748D01*
X180789927Y-119963442D01*
X180859558Y-119949580D01*
X180925629Y-119975563D01*
X180952867Y-120004713D01*
X180957439Y-120011504D01*
X181044804Y-120141272D01*
X181048483Y-120145129D01*
X181048485Y-120145131D01*
X181133223Y-120233959D01*
X181205532Y-120309758D01*
X181392350Y-120448754D01*
X181458627Y-120482451D01*
X181594244Y-120551402D01*
X181599916Y-120554286D01*
X181711106Y-120588812D01*
X181817193Y-120621753D01*
X181817199Y-120621754D01*
X181822296Y-120623337D01*
X181946660Y-120639820D01*
X182047848Y-120653232D01*
X182047852Y-120653232D01*
X182053132Y-120653932D01*
X182058462Y-120653732D01*
X182058463Y-120653732D01*
X182169477Y-120649565D01*
X182285822Y-120645197D01*
X182450713Y-120610599D01*
X182508486Y-120598477D01*
X182508489Y-120598476D01*
X182513713Y-120597380D01*
X182730290Y-120511850D01*
X182929359Y-120391051D01*
X182969307Y-120356386D01*
X183101197Y-120241939D01*
X183101199Y-120241937D01*
X183105230Y-120238439D01*
X183108613Y-120234313D01*
X183108617Y-120234309D01*
X183212819Y-120107224D01*
X183252872Y-120058376D01*
X183258754Y-120048044D01*
X183278845Y-120012748D01*
X183329927Y-119963442D01*
X183399558Y-119949580D01*
X183465629Y-119975563D01*
X183492867Y-120004713D01*
X183497439Y-120011504D01*
X183584804Y-120141272D01*
X183588483Y-120145129D01*
X183588485Y-120145131D01*
X183673223Y-120233959D01*
X183745532Y-120309758D01*
X183932350Y-120448754D01*
X183998627Y-120482451D01*
X184134244Y-120551402D01*
X184139916Y-120554286D01*
X184251106Y-120588812D01*
X184357193Y-120621753D01*
X184357199Y-120621754D01*
X184362296Y-120623337D01*
X184486660Y-120639820D01*
X184587848Y-120653232D01*
X184587852Y-120653232D01*
X184593132Y-120653932D01*
X184598462Y-120653732D01*
X184598463Y-120653732D01*
X184709477Y-120649565D01*
X184825822Y-120645197D01*
X184990713Y-120610599D01*
X185048486Y-120598477D01*
X185048489Y-120598476D01*
X185053713Y-120597380D01*
X185270290Y-120511850D01*
X185469359Y-120391051D01*
X185509307Y-120356386D01*
X185641197Y-120241939D01*
X185641199Y-120241937D01*
X185645230Y-120238439D01*
X185648613Y-120234313D01*
X185648617Y-120234309D01*
X185752819Y-120107224D01*
X185792872Y-120058376D01*
X185798754Y-120048044D01*
X185818845Y-120012748D01*
X185869927Y-119963442D01*
X185939558Y-119949580D01*
X186005629Y-119975563D01*
X186032867Y-120004713D01*
X186037439Y-120011504D01*
X186124804Y-120141272D01*
X186128483Y-120145129D01*
X186128485Y-120145131D01*
X186213223Y-120233959D01*
X186285532Y-120309758D01*
X186472350Y-120448754D01*
X186538627Y-120482451D01*
X186674244Y-120551402D01*
X186679916Y-120554286D01*
X186791106Y-120588812D01*
X186897193Y-120621753D01*
X186897199Y-120621754D01*
X186902296Y-120623337D01*
X187026660Y-120639820D01*
X187127848Y-120653232D01*
X187127852Y-120653232D01*
X187133132Y-120653932D01*
X187138462Y-120653732D01*
X187138463Y-120653732D01*
X187249477Y-120649565D01*
X187365822Y-120645197D01*
X187530713Y-120610599D01*
X187588486Y-120598477D01*
X187588489Y-120598476D01*
X187593713Y-120597380D01*
X187810290Y-120511850D01*
X188009359Y-120391051D01*
X188049307Y-120356386D01*
X188181197Y-120241939D01*
X188181199Y-120241937D01*
X188185230Y-120238439D01*
X188188613Y-120234313D01*
X188188617Y-120234309D01*
X188292819Y-120107224D01*
X188332872Y-120058376D01*
X188338754Y-120048044D01*
X188358845Y-120012748D01*
X188409927Y-119963442D01*
X188479558Y-119949580D01*
X188545629Y-119975563D01*
X188572867Y-120004713D01*
X188577439Y-120011504D01*
X188664804Y-120141272D01*
X188668483Y-120145129D01*
X188668485Y-120145131D01*
X188753223Y-120233959D01*
X188825532Y-120309758D01*
X189012350Y-120448754D01*
X189078627Y-120482451D01*
X189214244Y-120551402D01*
X189219916Y-120554286D01*
X189331106Y-120588812D01*
X189437193Y-120621753D01*
X189437199Y-120621754D01*
X189442296Y-120623337D01*
X189566660Y-120639820D01*
X189667848Y-120653232D01*
X189667852Y-120653232D01*
X189673132Y-120653932D01*
X189678462Y-120653732D01*
X189678463Y-120653732D01*
X189789477Y-120649565D01*
X189905822Y-120645197D01*
X190070713Y-120610599D01*
X190128486Y-120598477D01*
X190128489Y-120598476D01*
X190133713Y-120597380D01*
X190350290Y-120511850D01*
X190549359Y-120391051D01*
X190589307Y-120356386D01*
X190721197Y-120241939D01*
X190721199Y-120241937D01*
X190725230Y-120238439D01*
X190728613Y-120234313D01*
X190728617Y-120234309D01*
X190832819Y-120107224D01*
X190872872Y-120058376D01*
X190878754Y-120048044D01*
X190898845Y-120012748D01*
X190949927Y-119963442D01*
X191019558Y-119949580D01*
X191085629Y-119975563D01*
X191112867Y-120004713D01*
X191117439Y-120011504D01*
X191204804Y-120141272D01*
X191208483Y-120145129D01*
X191208485Y-120145131D01*
X191293223Y-120233959D01*
X191365532Y-120309758D01*
X191552350Y-120448754D01*
X191618627Y-120482451D01*
X191754244Y-120551402D01*
X191759916Y-120554286D01*
X191871106Y-120588812D01*
X191977193Y-120621753D01*
X191977199Y-120621754D01*
X191982296Y-120623337D01*
X192106660Y-120639820D01*
X192207848Y-120653232D01*
X192207852Y-120653232D01*
X192213132Y-120653932D01*
X192218462Y-120653732D01*
X192218463Y-120653732D01*
X192329477Y-120649565D01*
X192445822Y-120645197D01*
X192610713Y-120610599D01*
X192668486Y-120598477D01*
X192668489Y-120598476D01*
X192673713Y-120597380D01*
X192890290Y-120511850D01*
X193089359Y-120391051D01*
X193129307Y-120356386D01*
X193261197Y-120241939D01*
X193261199Y-120241937D01*
X193265230Y-120238439D01*
X193268613Y-120234313D01*
X193268617Y-120234309D01*
X193372819Y-120107224D01*
X193412872Y-120058376D01*
X193418754Y-120048044D01*
X193438845Y-120012748D01*
X193489927Y-119963442D01*
X193559558Y-119949580D01*
X193625629Y-119975563D01*
X193652867Y-120004713D01*
X193657439Y-120011504D01*
X193744804Y-120141272D01*
X193748483Y-120145129D01*
X193748485Y-120145131D01*
X193833223Y-120233959D01*
X193905532Y-120309758D01*
X194092350Y-120448754D01*
X194158627Y-120482451D01*
X194294244Y-120551402D01*
X194299916Y-120554286D01*
X194411106Y-120588812D01*
X194517193Y-120621753D01*
X194517199Y-120621754D01*
X194522296Y-120623337D01*
X194646660Y-120639820D01*
X194747848Y-120653232D01*
X194747852Y-120653232D01*
X194753132Y-120653932D01*
X194758462Y-120653732D01*
X194758463Y-120653732D01*
X194869477Y-120649565D01*
X194985822Y-120645197D01*
X195150713Y-120610599D01*
X195208486Y-120598477D01*
X195208489Y-120598476D01*
X195213713Y-120597380D01*
X195430290Y-120511850D01*
X195629359Y-120391051D01*
X195669307Y-120356386D01*
X195801197Y-120241939D01*
X195801199Y-120241937D01*
X195805230Y-120238439D01*
X195808613Y-120234313D01*
X195808617Y-120234309D01*
X195912819Y-120107224D01*
X195952872Y-120058376D01*
X195958754Y-120048044D01*
X196065422Y-119860654D01*
X196068065Y-119856011D01*
X196088239Y-119800435D01*
X196145695Y-119642146D01*
X196145696Y-119642142D01*
X196147515Y-119637131D01*
X196152458Y-119609799D01*
X196170428Y-119510420D01*
X196188950Y-119407993D01*
X196190100Y-119383606D01*
X196190100Y-118915132D01*
X196180524Y-118802270D01*
X196175825Y-118746891D01*
X196175824Y-118746887D01*
X196175374Y-118741580D01*
X196160147Y-118682913D01*
X196118217Y-118521363D01*
X196118216Y-118521359D01*
X196116875Y-118516194D01*
X196110881Y-118502886D01*
X196023433Y-118308760D01*
X196021238Y-118303887D01*
X195891196Y-118110728D01*
X195883543Y-118102705D01*
X195771945Y-117985721D01*
X195730468Y-117942242D01*
X195543650Y-117803246D01*
X195416574Y-117738637D01*
X195340842Y-117700133D01*
X195340841Y-117700133D01*
X195336084Y-117697714D01*
X195203621Y-117656583D01*
X195118807Y-117630247D01*
X195118801Y-117630246D01*
X195113704Y-117628663D01*
X194989340Y-117612180D01*
X194888152Y-117598768D01*
X194888148Y-117598768D01*
X194882868Y-117598068D01*
X194877538Y-117598268D01*
X194877537Y-117598268D01*
X194766523Y-117602436D01*
X194650178Y-117606803D01*
X194644950Y-117607900D01*
X194427514Y-117653523D01*
X194427511Y-117653524D01*
X194422287Y-117654620D01*
X194372349Y-117674341D01*
X194301644Y-117680758D01*
X194236975Y-117646243D01*
X192175623Y-115584890D01*
X190603095Y-114012362D01*
X195981609Y-114012362D01*
X195981906Y-114017514D01*
X195981906Y-114017518D01*
X195987618Y-114116578D01*
X195994597Y-114237614D01*
X195995734Y-114242660D01*
X195995735Y-114242666D01*
X196016984Y-114336952D01*
X196044200Y-114457720D01*
X196046142Y-114462502D01*
X196046143Y-114462506D01*
X196081306Y-114549102D01*
X196129086Y-114666769D01*
X196246975Y-114859147D01*
X196394702Y-115029687D01*
X196568299Y-115173810D01*
X196572751Y-115176412D01*
X196572756Y-115176415D01*
X196662091Y-115228618D01*
X196763103Y-115287645D01*
X196973884Y-115368134D01*
X196978952Y-115369165D01*
X196978955Y-115369166D01*
X197080360Y-115389797D01*
X197194981Y-115413117D01*
X197200156Y-115413307D01*
X197200158Y-115413307D01*
X197415292Y-115421196D01*
X197415296Y-115421196D01*
X197420456Y-115421385D01*
X197425576Y-115420729D01*
X197425578Y-115420729D01*
X197494985Y-115411838D01*
X197644253Y-115392716D01*
X197649202Y-115391231D01*
X197649208Y-115391230D01*
X197855413Y-115329365D01*
X197855412Y-115329365D01*
X197860363Y-115327880D01*
X197955419Y-115281312D01*
X198058331Y-115230897D01*
X198058336Y-115230894D01*
X198062982Y-115228618D01*
X198067192Y-115225615D01*
X198067197Y-115225612D01*
X198242455Y-115100601D01*
X198242459Y-115100597D01*
X198246667Y-115097596D01*
X198406487Y-114938333D01*
X198527370Y-114770107D01*
X198583364Y-114726459D01*
X198654068Y-114720013D01*
X198717032Y-114752816D01*
X198737125Y-114777799D01*
X198784275Y-114854743D01*
X198784279Y-114854748D01*
X198786975Y-114859147D01*
X198934702Y-115029687D01*
X199108299Y-115173810D01*
X199112751Y-115176412D01*
X199112756Y-115176415D01*
X199202091Y-115228618D01*
X199303103Y-115287645D01*
X199513884Y-115368134D01*
X199518952Y-115369165D01*
X199518955Y-115369166D01*
X199620360Y-115389797D01*
X199734981Y-115413117D01*
X199740156Y-115413307D01*
X199740158Y-115413307D01*
X199955292Y-115421196D01*
X199955296Y-115421196D01*
X199960456Y-115421385D01*
X199965576Y-115420729D01*
X199965578Y-115420729D01*
X200034985Y-115411838D01*
X200184253Y-115392716D01*
X200189202Y-115391231D01*
X200189208Y-115391230D01*
X200395413Y-115329365D01*
X200395412Y-115329365D01*
X200400363Y-115327880D01*
X200495419Y-115281312D01*
X200598331Y-115230897D01*
X200598336Y-115230894D01*
X200602982Y-115228618D01*
X200607192Y-115225615D01*
X200607197Y-115225612D01*
X200782455Y-115100601D01*
X200782459Y-115100597D01*
X200786667Y-115097596D01*
X200946487Y-114938333D01*
X201078150Y-114755105D01*
X201131642Y-114646872D01*
X201175824Y-114557477D01*
X201175825Y-114557475D01*
X201178118Y-114552835D01*
X201243708Y-114336952D01*
X201273158Y-114113256D01*
X201274802Y-114046000D01*
X201256315Y-113821132D01*
X201201349Y-113602304D01*
X201111380Y-113395391D01*
X201062224Y-113319407D01*
X200991634Y-113210291D01*
X200991632Y-113210288D01*
X200988826Y-113205951D01*
X200836977Y-113039071D01*
X200832926Y-113035872D01*
X200832922Y-113035868D01*
X200663966Y-112902434D01*
X200663962Y-112902432D01*
X200659911Y-112899232D01*
X200636535Y-112886328D01*
X200586564Y-112835896D01*
X200571792Y-112766453D01*
X200596908Y-112700047D01*
X200624259Y-112673441D01*
X200646472Y-112657597D01*
X200660354Y-112647695D01*
X200782455Y-112560601D01*
X200782459Y-112560597D01*
X200786667Y-112557596D01*
X200946487Y-112398333D01*
X201078150Y-112215105D01*
X201178118Y-112012835D01*
X201243708Y-111796952D01*
X201244769Y-111788892D01*
X201272721Y-111576578D01*
X201272722Y-111576572D01*
X201273158Y-111573256D01*
X201274802Y-111506000D01*
X201256315Y-111281132D01*
X201201349Y-111062304D01*
X201111380Y-110855391D01*
X201063282Y-110781043D01*
X200991634Y-110670291D01*
X200991632Y-110670288D01*
X200988826Y-110665951D01*
X200836977Y-110499071D01*
X200832926Y-110495872D01*
X200832922Y-110495868D01*
X200663966Y-110362434D01*
X200663962Y-110362432D01*
X200659911Y-110359232D01*
X200636535Y-110346328D01*
X200586564Y-110295896D01*
X200571792Y-110226453D01*
X200596908Y-110160047D01*
X200624259Y-110133441D01*
X200782455Y-110020601D01*
X200782459Y-110020597D01*
X200786667Y-110017596D01*
X200946487Y-109858333D01*
X201078150Y-109675105D01*
X201178118Y-109472835D01*
X201243708Y-109256952D01*
X201248256Y-109222407D01*
X201272721Y-109036578D01*
X201272722Y-109036572D01*
X201273158Y-109033256D01*
X201274023Y-108997870D01*
X201274720Y-108969364D01*
X201274720Y-108969360D01*
X201274802Y-108966000D01*
X201256315Y-108741132D01*
X201201349Y-108522304D01*
X201111380Y-108315391D01*
X201063282Y-108241043D01*
X200991634Y-108130291D01*
X200991632Y-108130288D01*
X200988826Y-108125951D01*
X200836977Y-107959071D01*
X200832926Y-107955872D01*
X200832922Y-107955868D01*
X200663966Y-107822434D01*
X200663962Y-107822432D01*
X200659911Y-107819232D01*
X200654622Y-107816312D01*
X200636535Y-107806328D01*
X200586564Y-107755896D01*
X200571792Y-107686453D01*
X200596908Y-107620047D01*
X200624259Y-107593441D01*
X200782455Y-107480601D01*
X200782459Y-107480597D01*
X200786667Y-107477596D01*
X200946487Y-107318333D01*
X201078150Y-107135105D01*
X201173007Y-106943176D01*
X201175824Y-106937477D01*
X201175825Y-106937475D01*
X201178118Y-106932835D01*
X201243708Y-106716952D01*
X201248256Y-106682407D01*
X201272721Y-106496578D01*
X201272722Y-106496572D01*
X201273158Y-106493256D01*
X201274802Y-106426000D01*
X201256315Y-106201132D01*
X201201349Y-105982304D01*
X201111380Y-105775391D01*
X201063282Y-105701043D01*
X200991634Y-105590291D01*
X200991632Y-105590288D01*
X200988826Y-105585951D01*
X200836977Y-105419071D01*
X200832926Y-105415872D01*
X200832922Y-105415868D01*
X200663966Y-105282434D01*
X200663962Y-105282432D01*
X200659911Y-105279232D01*
X200651153Y-105274397D01*
X200636535Y-105266328D01*
X200586564Y-105215896D01*
X200571792Y-105146453D01*
X200596908Y-105080047D01*
X200624259Y-105053441D01*
X200782455Y-104940601D01*
X200782459Y-104940597D01*
X200786667Y-104937596D01*
X200946487Y-104778333D01*
X201078150Y-104595105D01*
X201160105Y-104429282D01*
X201175824Y-104397477D01*
X201175825Y-104397475D01*
X201178118Y-104392835D01*
X201224796Y-104239198D01*
X201242206Y-104181896D01*
X201242206Y-104181895D01*
X201243708Y-104176952D01*
X201248256Y-104142407D01*
X201272721Y-103956578D01*
X201272722Y-103956572D01*
X201273158Y-103953256D01*
X201274802Y-103886000D01*
X201256315Y-103661132D01*
X201201349Y-103442304D01*
X201111380Y-103235391D01*
X201062723Y-103160179D01*
X200991634Y-103050291D01*
X200991632Y-103050288D01*
X200988826Y-103045951D01*
X200836977Y-102879071D01*
X200832926Y-102875872D01*
X200832922Y-102875868D01*
X200663966Y-102742434D01*
X200663962Y-102742432D01*
X200659911Y-102739232D01*
X200636535Y-102726328D01*
X200586564Y-102675896D01*
X200571792Y-102606453D01*
X200596908Y-102540047D01*
X200624259Y-102513441D01*
X200782455Y-102400601D01*
X200782459Y-102400597D01*
X200786667Y-102397596D01*
X200946487Y-102238333D01*
X201078150Y-102055105D01*
X201178118Y-101852835D01*
X201243708Y-101636952D01*
X201248256Y-101602407D01*
X201272721Y-101416578D01*
X201272722Y-101416572D01*
X201273158Y-101413256D01*
X201274802Y-101346000D01*
X201256315Y-101121132D01*
X201201349Y-100902304D01*
X201111380Y-100695391D01*
X201062694Y-100620134D01*
X200991634Y-100510291D01*
X200991632Y-100510288D01*
X200988826Y-100505951D01*
X200836977Y-100339071D01*
X200832926Y-100335872D01*
X200832922Y-100335868D01*
X200663966Y-100202434D01*
X200663962Y-100202432D01*
X200659911Y-100199232D01*
X200636535Y-100186328D01*
X200586564Y-100135896D01*
X200571792Y-100066453D01*
X200596908Y-100000047D01*
X200624259Y-99973441D01*
X200782455Y-99860601D01*
X200782459Y-99860597D01*
X200786667Y-99857596D01*
X200946487Y-99698333D01*
X201078150Y-99515105D01*
X201164742Y-99339899D01*
X201175824Y-99317477D01*
X201175825Y-99317475D01*
X201178118Y-99312835D01*
X201243708Y-99096952D01*
X201248256Y-99062407D01*
X201272721Y-98876578D01*
X201272722Y-98876572D01*
X201273158Y-98873256D01*
X201273408Y-98863017D01*
X201274720Y-98809364D01*
X201274720Y-98809360D01*
X201274802Y-98806000D01*
X201256315Y-98581132D01*
X201201349Y-98362304D01*
X201111380Y-98155391D01*
X201063282Y-98081043D01*
X200991634Y-97970291D01*
X200991632Y-97970288D01*
X200988826Y-97965951D01*
X200836977Y-97799071D01*
X200832926Y-97795872D01*
X200832922Y-97795868D01*
X200663966Y-97662434D01*
X200663962Y-97662432D01*
X200659911Y-97659232D01*
X200636535Y-97646328D01*
X200586564Y-97595896D01*
X200571792Y-97526453D01*
X200596908Y-97460047D01*
X200624259Y-97433441D01*
X200782455Y-97320601D01*
X200782459Y-97320597D01*
X200786667Y-97317596D01*
X200946487Y-97158333D01*
X201078150Y-96975105D01*
X201178118Y-96772835D01*
X201243708Y-96556952D01*
X201248768Y-96518521D01*
X201272721Y-96336578D01*
X201272722Y-96336572D01*
X201273158Y-96333256D01*
X201274592Y-96274604D01*
X201274720Y-96269364D01*
X201274720Y-96269360D01*
X201274802Y-96266000D01*
X201256315Y-96041132D01*
X201201349Y-95822304D01*
X201111380Y-95615391D01*
X201062023Y-95539096D01*
X200991634Y-95430291D01*
X200991632Y-95430288D01*
X200988826Y-95425951D01*
X200836977Y-95259071D01*
X200832926Y-95255872D01*
X200832922Y-95255868D01*
X200663966Y-95122434D01*
X200663962Y-95122432D01*
X200659911Y-95119232D01*
X200636535Y-95106328D01*
X200586564Y-95055896D01*
X200571792Y-94986453D01*
X200596908Y-94920047D01*
X200624259Y-94893441D01*
X200782455Y-94780601D01*
X200782459Y-94780597D01*
X200786667Y-94777596D01*
X200946487Y-94618333D01*
X201078150Y-94435105D01*
X201155097Y-94279414D01*
X201175824Y-94237477D01*
X201175825Y-94237475D01*
X201178118Y-94232835D01*
X201243708Y-94016952D01*
X201264742Y-93857183D01*
X201272721Y-93796578D01*
X201272722Y-93796572D01*
X201273158Y-93793256D01*
X201274124Y-93753726D01*
X201274720Y-93729364D01*
X201274720Y-93729360D01*
X201274802Y-93726000D01*
X201256315Y-93501132D01*
X201201349Y-93282304D01*
X201111380Y-93075391D01*
X201063282Y-93001043D01*
X200991634Y-92890291D01*
X200991632Y-92890288D01*
X200988826Y-92885951D01*
X200836977Y-92719071D01*
X200832926Y-92715872D01*
X200832922Y-92715868D01*
X200663966Y-92582434D01*
X200663962Y-92582432D01*
X200659911Y-92579232D01*
X200636535Y-92566328D01*
X200586564Y-92515896D01*
X200571792Y-92446453D01*
X200596908Y-92380047D01*
X200624259Y-92353441D01*
X200782455Y-92240601D01*
X200782459Y-92240597D01*
X200786667Y-92237596D01*
X200946487Y-92078333D01*
X201078150Y-91895105D01*
X201143579Y-91762719D01*
X201175824Y-91697477D01*
X201175825Y-91697475D01*
X201178118Y-91692835D01*
X201243708Y-91476952D01*
X201248256Y-91442407D01*
X201272721Y-91256578D01*
X201272722Y-91256572D01*
X201273158Y-91253256D01*
X201273400Y-91243365D01*
X201274720Y-91189364D01*
X201274720Y-91189360D01*
X201274802Y-91186000D01*
X201256315Y-90961132D01*
X201201349Y-90742304D01*
X201111380Y-90535391D01*
X201063282Y-90461043D01*
X200991634Y-90350291D01*
X200991632Y-90350288D01*
X200988826Y-90345951D01*
X200836977Y-90179071D01*
X200832926Y-90175872D01*
X200832922Y-90175868D01*
X200663966Y-90042434D01*
X200663962Y-90042432D01*
X200659911Y-90039232D01*
X200636535Y-90026328D01*
X200586564Y-89975896D01*
X200571792Y-89906453D01*
X200596908Y-89840047D01*
X200624259Y-89813441D01*
X200782455Y-89700601D01*
X200782459Y-89700597D01*
X200786667Y-89697596D01*
X200946487Y-89538333D01*
X201078150Y-89355105D01*
X201148626Y-89212508D01*
X201175824Y-89157477D01*
X201175825Y-89157475D01*
X201178118Y-89152835D01*
X201229511Y-88983681D01*
X201242206Y-88941896D01*
X201242206Y-88941895D01*
X201243708Y-88936952D01*
X201248821Y-88898118D01*
X201272721Y-88716578D01*
X201272722Y-88716572D01*
X201273158Y-88713256D01*
X201274802Y-88646000D01*
X201256315Y-88421132D01*
X201201349Y-88202304D01*
X201111380Y-87995391D01*
X201063282Y-87921043D01*
X200991634Y-87810291D01*
X200991632Y-87810288D01*
X200988826Y-87805951D01*
X200836977Y-87639071D01*
X200832926Y-87635872D01*
X200832922Y-87635868D01*
X200663966Y-87502434D01*
X200663962Y-87502432D01*
X200659911Y-87499232D01*
X200636535Y-87486328D01*
X200586564Y-87435896D01*
X200571792Y-87366453D01*
X200596908Y-87300047D01*
X200624259Y-87273441D01*
X200782455Y-87160601D01*
X200782459Y-87160597D01*
X200786667Y-87157596D01*
X200946487Y-86998333D01*
X201078150Y-86815105D01*
X201145597Y-86678636D01*
X201175824Y-86617477D01*
X201175825Y-86617475D01*
X201178118Y-86612835D01*
X201243708Y-86396952D01*
X201245071Y-86386599D01*
X201272721Y-86176578D01*
X201272722Y-86176572D01*
X201273158Y-86173256D01*
X201274802Y-86106000D01*
X201256315Y-85881132D01*
X201201349Y-85662304D01*
X201111380Y-85455391D01*
X201063282Y-85381043D01*
X200991634Y-85270291D01*
X200991632Y-85270288D01*
X200988826Y-85265951D01*
X200836977Y-85099071D01*
X200832926Y-85095872D01*
X200832922Y-85095868D01*
X200663966Y-84962434D01*
X200663962Y-84962432D01*
X200659911Y-84959232D01*
X200636535Y-84946328D01*
X200586564Y-84895896D01*
X200571792Y-84826453D01*
X200596908Y-84760047D01*
X200624259Y-84733441D01*
X200640961Y-84721528D01*
X200669012Y-84701519D01*
X200782455Y-84620601D01*
X200782459Y-84620597D01*
X200786667Y-84617596D01*
X200946487Y-84458333D01*
X201078150Y-84275105D01*
X201178118Y-84072835D01*
X201243708Y-83856952D01*
X201248256Y-83822407D01*
X201272721Y-83636578D01*
X201272722Y-83636572D01*
X201273158Y-83633256D01*
X201274802Y-83566000D01*
X201256315Y-83341132D01*
X201201349Y-83122304D01*
X201111380Y-82915391D01*
X201063282Y-82841043D01*
X200991634Y-82730291D01*
X200991632Y-82730288D01*
X200988826Y-82725951D01*
X200836977Y-82559071D01*
X200832926Y-82555872D01*
X200832922Y-82555868D01*
X200663966Y-82422434D01*
X200663962Y-82422432D01*
X200659911Y-82419232D01*
X200636535Y-82406328D01*
X200586564Y-82355896D01*
X200571792Y-82286453D01*
X200596908Y-82220047D01*
X200624259Y-82193441D01*
X200782455Y-82080601D01*
X200782459Y-82080597D01*
X200786667Y-82077596D01*
X200946487Y-81918333D01*
X201078150Y-81735105D01*
X201173007Y-81543176D01*
X201175824Y-81537477D01*
X201175825Y-81537475D01*
X201178118Y-81532835D01*
X201243708Y-81316952D01*
X201248256Y-81282407D01*
X201272721Y-81096578D01*
X201272722Y-81096572D01*
X201273158Y-81093256D01*
X201273392Y-81083698D01*
X201274720Y-81029364D01*
X201274720Y-81029360D01*
X201274802Y-81026000D01*
X201256315Y-80801132D01*
X201201349Y-80582304D01*
X201111380Y-80375391D01*
X201063282Y-80301043D01*
X200991634Y-80190291D01*
X200991632Y-80190288D01*
X200988826Y-80185951D01*
X200836977Y-80019071D01*
X200832926Y-80015872D01*
X200832922Y-80015868D01*
X200663966Y-79882434D01*
X200663962Y-79882432D01*
X200659911Y-79879232D01*
X200636535Y-79866328D01*
X200586564Y-79815896D01*
X200571792Y-79746453D01*
X200596908Y-79680047D01*
X200624259Y-79653441D01*
X200782455Y-79540601D01*
X200782459Y-79540597D01*
X200786667Y-79537596D01*
X200946487Y-79378333D01*
X201078150Y-79195105D01*
X201178118Y-78992835D01*
X201237130Y-78798603D01*
X201242206Y-78781896D01*
X201242206Y-78781895D01*
X201243708Y-78776952D01*
X201248560Y-78740100D01*
X201272721Y-78556578D01*
X201272722Y-78556572D01*
X201273158Y-78553256D01*
X201274802Y-78486000D01*
X201256315Y-78261132D01*
X201201349Y-78042304D01*
X201111380Y-77835391D01*
X201063282Y-77761043D01*
X200991634Y-77650291D01*
X200991632Y-77650288D01*
X200988826Y-77645951D01*
X200836977Y-77479071D01*
X200832926Y-77475872D01*
X200832922Y-77475868D01*
X200663966Y-77342434D01*
X200663962Y-77342432D01*
X200659911Y-77339232D01*
X200636535Y-77326328D01*
X200586564Y-77275896D01*
X200571792Y-77206453D01*
X200596908Y-77140047D01*
X200624259Y-77113441D01*
X200782455Y-77000601D01*
X200782459Y-77000597D01*
X200786667Y-76997596D01*
X200946487Y-76838333D01*
X201078150Y-76655105D01*
X201149964Y-76509801D01*
X201175824Y-76457477D01*
X201175825Y-76457475D01*
X201178118Y-76452835D01*
X201243708Y-76236952D01*
X201244560Y-76230479D01*
X201272721Y-76016578D01*
X201272722Y-76016572D01*
X201273158Y-76013256D01*
X201273426Y-76002275D01*
X201274720Y-75949364D01*
X201274720Y-75949360D01*
X201274802Y-75946000D01*
X201256315Y-75721132D01*
X201201349Y-75502304D01*
X201111380Y-75295391D01*
X201063282Y-75221043D01*
X200991634Y-75110291D01*
X200991632Y-75110288D01*
X200988826Y-75105951D01*
X200836977Y-74939071D01*
X200832926Y-74935872D01*
X200832922Y-74935868D01*
X200663966Y-74802434D01*
X200663962Y-74802432D01*
X200659911Y-74799232D01*
X200647702Y-74792492D01*
X200636535Y-74786328D01*
X200586564Y-74735896D01*
X200571792Y-74666453D01*
X200596908Y-74600047D01*
X200624259Y-74573441D01*
X200782455Y-74460601D01*
X200782459Y-74460597D01*
X200786667Y-74457596D01*
X200946487Y-74298333D01*
X201078150Y-74115105D01*
X201162947Y-73943532D01*
X201175824Y-73917477D01*
X201175825Y-73917475D01*
X201178118Y-73912835D01*
X201243708Y-73696952D01*
X201244383Y-73691826D01*
X201272721Y-73476578D01*
X201272722Y-73476572D01*
X201273158Y-73473256D01*
X201274323Y-73425588D01*
X201274720Y-73409364D01*
X201274720Y-73409360D01*
X201274802Y-73406000D01*
X201256315Y-73181132D01*
X201201349Y-72962304D01*
X201111380Y-72755391D01*
X201063282Y-72681043D01*
X200991634Y-72570291D01*
X200991632Y-72570288D01*
X200988826Y-72565951D01*
X200836977Y-72399071D01*
X200832926Y-72395872D01*
X200832922Y-72395868D01*
X200663966Y-72262434D01*
X200663962Y-72262432D01*
X200659911Y-72259232D01*
X200636535Y-72246328D01*
X200586564Y-72195896D01*
X200571792Y-72126453D01*
X200596908Y-72060047D01*
X200624259Y-72033441D01*
X200782455Y-71920601D01*
X200782459Y-71920597D01*
X200786667Y-71917596D01*
X200946487Y-71758333D01*
X201078150Y-71575105D01*
X201134401Y-71461290D01*
X201175824Y-71377477D01*
X201175825Y-71377475D01*
X201178118Y-71372835D01*
X201243708Y-71156952D01*
X201244383Y-71151826D01*
X201272721Y-70936578D01*
X201272722Y-70936572D01*
X201273158Y-70933256D01*
X201274802Y-70866000D01*
X201256315Y-70641132D01*
X201201349Y-70422304D01*
X201111380Y-70215391D01*
X201063261Y-70141010D01*
X200991634Y-70030291D01*
X200991632Y-70030288D01*
X200988826Y-70025951D01*
X200836977Y-69859071D01*
X200832926Y-69855872D01*
X200832922Y-69855868D01*
X200663966Y-69722434D01*
X200663962Y-69722432D01*
X200659911Y-69719232D01*
X200462383Y-69610191D01*
X200249698Y-69534876D01*
X200199297Y-69525898D01*
X200032657Y-69496214D01*
X200032653Y-69496214D01*
X200027569Y-69495308D01*
X199955574Y-69494429D01*
X199807129Y-69492615D01*
X199807127Y-69492615D01*
X199801959Y-69492552D01*
X199578929Y-69526680D01*
X199364468Y-69596777D01*
X199164335Y-69700960D01*
X199160202Y-69704063D01*
X199160199Y-69704065D01*
X198988040Y-69833325D01*
X198983905Y-69836430D01*
X198828024Y-69999550D01*
X198825112Y-70003819D01*
X198825106Y-70003827D01*
X198731503Y-70141043D01*
X198676592Y-70186046D01*
X198606067Y-70194217D01*
X198542320Y-70162963D01*
X198521623Y-70138479D01*
X198520013Y-70135989D01*
X198463582Y-70048760D01*
X198451634Y-70030291D01*
X198451632Y-70030288D01*
X198448826Y-70025951D01*
X198296977Y-69859071D01*
X198292926Y-69855872D01*
X198292922Y-69855868D01*
X198123966Y-69722434D01*
X198123962Y-69722432D01*
X198119911Y-69719232D01*
X197922383Y-69610191D01*
X197709698Y-69534876D01*
X197659297Y-69525898D01*
X197492657Y-69496214D01*
X197492653Y-69496214D01*
X197487569Y-69495308D01*
X197415574Y-69494429D01*
X197267129Y-69492615D01*
X197267127Y-69492615D01*
X197261959Y-69492552D01*
X197038929Y-69526680D01*
X196824468Y-69596777D01*
X196624335Y-69700960D01*
X196620202Y-69704063D01*
X196620199Y-69704065D01*
X196448040Y-69833325D01*
X196443905Y-69836430D01*
X196288024Y-69999550D01*
X196160878Y-70185940D01*
X196158704Y-70190624D01*
X196158702Y-70190627D01*
X196070211Y-70381265D01*
X196065881Y-70390593D01*
X196005585Y-70608013D01*
X195981609Y-70832362D01*
X195981906Y-70837514D01*
X195981906Y-70837518D01*
X195987618Y-70936578D01*
X195994597Y-71057614D01*
X195995734Y-71062660D01*
X195995735Y-71062666D01*
X196026304Y-71198308D01*
X196044200Y-71277720D01*
X196046142Y-71282502D01*
X196046143Y-71282506D01*
X196124634Y-71475806D01*
X196129086Y-71486769D01*
X196169873Y-71553327D01*
X196218753Y-71633092D01*
X196246975Y-71679147D01*
X196394702Y-71849687D01*
X196499038Y-71936308D01*
X196549785Y-71978439D01*
X196568299Y-71993810D01*
X196572751Y-71996412D01*
X196572756Y-71996415D01*
X196622069Y-72025231D01*
X196670792Y-72076870D01*
X196683863Y-72146653D01*
X196657131Y-72212425D01*
X196626595Y-72239783D01*
X196624335Y-72240960D01*
X196558460Y-72290420D01*
X196452938Y-72369648D01*
X196443905Y-72376430D01*
X196435527Y-72385197D01*
X196299768Y-72527261D01*
X196288024Y-72539550D01*
X196160878Y-72725940D01*
X196158704Y-72730624D01*
X196158702Y-72730627D01*
X196087402Y-72884231D01*
X196065881Y-72930593D01*
X196005585Y-73148013D01*
X195981609Y-73372362D01*
X195981906Y-73377514D01*
X195981906Y-73377518D01*
X195989224Y-73504430D01*
X195994597Y-73597614D01*
X195995734Y-73602660D01*
X195995735Y-73602666D01*
X196016176Y-73693368D01*
X196044200Y-73817720D01*
X196046142Y-73822502D01*
X196046143Y-73822506D01*
X196127142Y-74021982D01*
X196129086Y-74026769D01*
X196131785Y-74031173D01*
X196223993Y-74181643D01*
X196246975Y-74219147D01*
X196394702Y-74389687D01*
X196568299Y-74533810D01*
X196572751Y-74536412D01*
X196572756Y-74536415D01*
X196622069Y-74565231D01*
X196670792Y-74616870D01*
X196683863Y-74686653D01*
X196657131Y-74752425D01*
X196626595Y-74779783D01*
X196624335Y-74780960D01*
X196547816Y-74838412D01*
X196448905Y-74912676D01*
X196443905Y-74916430D01*
X196288024Y-75079550D01*
X196160878Y-75265940D01*
X196158704Y-75270624D01*
X196158702Y-75270627D01*
X196069844Y-75462056D01*
X196065881Y-75470593D01*
X196005585Y-75688013D01*
X195981609Y-75912362D01*
X195981906Y-75917514D01*
X195981906Y-75917518D01*
X195989034Y-76041129D01*
X195994597Y-76137614D01*
X195995734Y-76142660D01*
X195995735Y-76142666D01*
X196016984Y-76236952D01*
X196044200Y-76357720D01*
X196046142Y-76362502D01*
X196046143Y-76362506D01*
X196106530Y-76511220D01*
X196129086Y-76566769D01*
X196176549Y-76644222D01*
X196234820Y-76739311D01*
X196246975Y-76759147D01*
X196394702Y-76929687D01*
X196568299Y-77073810D01*
X196572751Y-77076412D01*
X196572756Y-77076415D01*
X196622069Y-77105231D01*
X196670792Y-77156870D01*
X196683863Y-77226653D01*
X196657131Y-77292425D01*
X196626595Y-77319783D01*
X196624335Y-77320960D01*
X196564829Y-77365638D01*
X196451044Y-77451070D01*
X196443905Y-77456430D01*
X196288024Y-77619550D01*
X196160878Y-77805940D01*
X196158704Y-77810624D01*
X196158702Y-77810627D01*
X196069309Y-78003209D01*
X196065881Y-78010593D01*
X196005585Y-78228013D01*
X195981609Y-78452362D01*
X195981906Y-78457514D01*
X195981906Y-78457518D01*
X195992239Y-78636726D01*
X195994597Y-78677614D01*
X195995734Y-78682660D01*
X195995735Y-78682666D01*
X196021863Y-78798603D01*
X196044200Y-78897720D01*
X196046142Y-78902502D01*
X196046143Y-78902506D01*
X196127142Y-79101982D01*
X196129086Y-79106769D01*
X196246975Y-79299147D01*
X196394702Y-79469687D01*
X196568299Y-79613810D01*
X196572751Y-79616412D01*
X196572756Y-79616415D01*
X196622069Y-79645231D01*
X196670792Y-79696870D01*
X196683863Y-79766653D01*
X196657131Y-79832425D01*
X196626595Y-79859783D01*
X196624335Y-79860960D01*
X196537285Y-79926319D01*
X196450751Y-79991290D01*
X196443905Y-79996430D01*
X196440333Y-80000168D01*
X196306230Y-80140499D01*
X196288024Y-80159550D01*
X196160878Y-80345940D01*
X196158704Y-80350624D01*
X196158702Y-80350627D01*
X196084959Y-80509494D01*
X196065881Y-80550593D01*
X196005585Y-80768013D01*
X195981609Y-80992362D01*
X195981906Y-80997514D01*
X195981906Y-80997518D01*
X195992692Y-81184574D01*
X195994597Y-81217614D01*
X195995734Y-81222660D01*
X195995735Y-81222666D01*
X196016984Y-81316952D01*
X196044200Y-81437720D01*
X196046142Y-81442502D01*
X196046143Y-81442506D01*
X196123399Y-81632763D01*
X196129086Y-81646769D01*
X196141354Y-81666789D01*
X196217710Y-81791390D01*
X196246975Y-81839147D01*
X196394702Y-82009687D01*
X196568299Y-82153810D01*
X196572751Y-82156412D01*
X196572756Y-82156415D01*
X196622069Y-82185231D01*
X196670792Y-82236870D01*
X196683863Y-82306653D01*
X196657131Y-82372425D01*
X196626595Y-82399783D01*
X196624335Y-82400960D01*
X196559374Y-82449734D01*
X196488313Y-82503088D01*
X196443905Y-82536430D01*
X196440333Y-82540168D01*
X196306230Y-82680499D01*
X196288024Y-82699550D01*
X196160878Y-82885940D01*
X196158704Y-82890624D01*
X196158702Y-82890627D01*
X196079486Y-83061284D01*
X196065881Y-83090593D01*
X196005585Y-83308013D01*
X195981609Y-83532362D01*
X195981906Y-83537514D01*
X195981906Y-83537518D01*
X195987618Y-83636578D01*
X195994597Y-83757614D01*
X195995734Y-83762660D01*
X195995735Y-83762666D01*
X196016984Y-83856952D01*
X196044200Y-83977720D01*
X196046142Y-83982502D01*
X196046143Y-83982506D01*
X196127142Y-84181982D01*
X196129086Y-84186769D01*
X196246975Y-84379147D01*
X196394702Y-84549687D01*
X196568299Y-84693810D01*
X196572751Y-84696412D01*
X196572756Y-84696415D01*
X196622069Y-84725231D01*
X196670792Y-84776870D01*
X196683863Y-84846653D01*
X196657131Y-84912425D01*
X196626595Y-84939783D01*
X196624335Y-84940960D01*
X196561971Y-84987784D01*
X196459800Y-85064496D01*
X196443905Y-85076430D01*
X196422269Y-85099071D01*
X196292385Y-85234987D01*
X196288024Y-85239550D01*
X196160878Y-85425940D01*
X196158704Y-85430624D01*
X196158702Y-85430627D01*
X196075438Y-85610005D01*
X196065881Y-85630593D01*
X196005585Y-85848013D01*
X195981609Y-86072362D01*
X195981906Y-86077514D01*
X195981906Y-86077518D01*
X195989428Y-86207973D01*
X195994597Y-86297614D01*
X195995734Y-86302660D01*
X195995735Y-86302666D01*
X196015987Y-86392529D01*
X196044200Y-86517720D01*
X196046142Y-86522502D01*
X196046143Y-86522506D01*
X196115535Y-86693398D01*
X196129086Y-86726769D01*
X196246975Y-86919147D01*
X196394702Y-87089687D01*
X196568299Y-87233810D01*
X196572751Y-87236412D01*
X196572756Y-87236415D01*
X196622069Y-87265231D01*
X196670792Y-87316870D01*
X196683863Y-87386653D01*
X196657131Y-87452425D01*
X196626595Y-87479783D01*
X196624335Y-87480960D01*
X196534884Y-87548121D01*
X196466430Y-87599518D01*
X196443905Y-87616430D01*
X196440333Y-87620168D01*
X196306230Y-87760499D01*
X196288024Y-87779550D01*
X196160878Y-87965940D01*
X196158704Y-87970624D01*
X196158702Y-87970627D01*
X196084959Y-88129494D01*
X196065881Y-88170593D01*
X196005585Y-88388013D01*
X195981609Y-88612362D01*
X195981906Y-88617514D01*
X195981906Y-88617518D01*
X195990196Y-88761282D01*
X195994597Y-88837614D01*
X195995734Y-88842660D01*
X195995735Y-88842666D01*
X196016984Y-88936952D01*
X196044200Y-89057720D01*
X196046142Y-89062502D01*
X196046143Y-89062506D01*
X196082636Y-89152377D01*
X196129086Y-89266769D01*
X196246975Y-89459147D01*
X196394702Y-89629687D01*
X196568299Y-89773810D01*
X196572751Y-89776412D01*
X196572756Y-89776415D01*
X196622069Y-89805231D01*
X196670792Y-89856870D01*
X196683863Y-89926653D01*
X196657131Y-89992425D01*
X196626595Y-90019783D01*
X196624335Y-90020960D01*
X196575993Y-90057256D01*
X196482976Y-90127095D01*
X196443905Y-90156430D01*
X196440333Y-90160168D01*
X196306230Y-90300499D01*
X196288024Y-90319550D01*
X196160878Y-90505940D01*
X196158704Y-90510624D01*
X196158702Y-90510627D01*
X196073782Y-90693572D01*
X196065881Y-90710593D01*
X196005585Y-90928013D01*
X195981609Y-91152362D01*
X195981906Y-91157514D01*
X195981906Y-91157518D01*
X195992264Y-91337153D01*
X195994597Y-91377614D01*
X195995734Y-91382660D01*
X195995735Y-91382666D01*
X196015838Y-91471870D01*
X196044200Y-91597720D01*
X196046142Y-91602502D01*
X196046143Y-91602506D01*
X196122600Y-91790797D01*
X196129086Y-91806769D01*
X196137509Y-91820514D01*
X196235782Y-91980881D01*
X196246975Y-91999147D01*
X196394702Y-92169687D01*
X196568299Y-92313810D01*
X196572751Y-92316412D01*
X196572756Y-92316415D01*
X196622069Y-92345231D01*
X196670792Y-92396870D01*
X196683863Y-92466653D01*
X196657131Y-92532425D01*
X196626595Y-92559783D01*
X196624335Y-92560960D01*
X196534884Y-92628121D01*
X196451044Y-92691070D01*
X196443905Y-92696430D01*
X196440333Y-92700168D01*
X196309954Y-92836602D01*
X196288024Y-92859550D01*
X196160878Y-93045940D01*
X196158704Y-93050624D01*
X196158702Y-93050627D01*
X196084959Y-93209494D01*
X196065881Y-93250593D01*
X196005585Y-93468013D01*
X195981609Y-93692362D01*
X195981906Y-93697514D01*
X195981906Y-93697518D01*
X195987618Y-93796578D01*
X195994597Y-93917614D01*
X195995734Y-93922660D01*
X195995735Y-93922666D01*
X196016984Y-94016952D01*
X196044200Y-94137720D01*
X196046142Y-94142502D01*
X196046143Y-94142506D01*
X196127142Y-94341982D01*
X196129086Y-94346769D01*
X196246975Y-94539147D01*
X196394702Y-94709687D01*
X196568299Y-94853810D01*
X196572751Y-94856412D01*
X196572756Y-94856415D01*
X196622069Y-94885231D01*
X196670792Y-94936870D01*
X196683863Y-95006653D01*
X196657131Y-95072425D01*
X196626595Y-95099783D01*
X196624335Y-95100960D01*
X196586418Y-95129429D01*
X196456265Y-95227150D01*
X196443905Y-95236430D01*
X196425330Y-95255868D01*
X196308706Y-95377908D01*
X196288024Y-95399550D01*
X196160878Y-95585940D01*
X196158704Y-95590624D01*
X196158702Y-95590627D01*
X196069309Y-95783209D01*
X196065881Y-95790593D01*
X196005585Y-96008013D01*
X195981609Y-96232362D01*
X195981906Y-96237514D01*
X195981906Y-96237518D01*
X195987464Y-96333912D01*
X195994597Y-96457614D01*
X195995734Y-96462660D01*
X195995735Y-96462666D01*
X196016984Y-96556952D01*
X196044200Y-96677720D01*
X196046142Y-96682502D01*
X196046143Y-96682506D01*
X196111952Y-96844573D01*
X196129086Y-96886769D01*
X196131785Y-96891173D01*
X196215697Y-97028105D01*
X196246975Y-97079147D01*
X196394702Y-97249687D01*
X196568299Y-97393810D01*
X196572751Y-97396412D01*
X196572756Y-97396415D01*
X196622069Y-97425231D01*
X196670792Y-97476870D01*
X196683863Y-97546653D01*
X196657131Y-97612425D01*
X196626595Y-97639783D01*
X196624335Y-97640960D01*
X196443905Y-97776430D01*
X196440333Y-97780168D01*
X196306230Y-97920499D01*
X196288024Y-97939550D01*
X196160878Y-98125940D01*
X196158704Y-98130624D01*
X196158702Y-98130627D01*
X196072932Y-98315404D01*
X196065881Y-98330593D01*
X196005585Y-98548013D01*
X195981609Y-98772362D01*
X195981906Y-98777514D01*
X195981906Y-98777518D01*
X195987618Y-98876578D01*
X195994597Y-98997614D01*
X195995734Y-99002660D01*
X195995735Y-99002666D01*
X196016984Y-99096952D01*
X196044200Y-99217720D01*
X196046142Y-99222502D01*
X196046143Y-99222506D01*
X196104449Y-99366095D01*
X196129086Y-99426769D01*
X196134868Y-99436204D01*
X196230637Y-99592485D01*
X196246975Y-99619147D01*
X196394702Y-99789687D01*
X196568299Y-99933810D01*
X196572751Y-99936412D01*
X196572756Y-99936415D01*
X196622069Y-99965231D01*
X196670792Y-100016870D01*
X196683863Y-100086653D01*
X196657131Y-100152425D01*
X196626595Y-100179783D01*
X196624335Y-100180960D01*
X196443905Y-100316430D01*
X196440333Y-100320168D01*
X196306230Y-100460499D01*
X196288024Y-100479550D01*
X196160878Y-100665940D01*
X196158704Y-100670624D01*
X196158702Y-100670627D01*
X196071613Y-100858245D01*
X196065881Y-100870593D01*
X196005585Y-101088013D01*
X195981609Y-101312362D01*
X195981906Y-101317514D01*
X195981906Y-101317518D01*
X195987618Y-101416578D01*
X195994597Y-101537614D01*
X195995734Y-101542660D01*
X195995735Y-101542666D01*
X196016984Y-101636952D01*
X196044200Y-101757720D01*
X196046142Y-101762502D01*
X196046143Y-101762506D01*
X196082822Y-101852835D01*
X196129086Y-101966769D01*
X196246975Y-102159147D01*
X196394702Y-102329687D01*
X196568299Y-102473810D01*
X196572751Y-102476412D01*
X196572756Y-102476415D01*
X196622069Y-102505231D01*
X196670792Y-102556870D01*
X196683863Y-102626653D01*
X196657131Y-102692425D01*
X196626595Y-102719783D01*
X196624335Y-102720960D01*
X196443905Y-102856430D01*
X196440333Y-102860168D01*
X196306230Y-103000499D01*
X196288024Y-103019550D01*
X196160878Y-103205940D01*
X196158704Y-103210624D01*
X196158702Y-103210627D01*
X196072932Y-103395404D01*
X196065881Y-103410593D01*
X196005585Y-103628013D01*
X195981609Y-103852362D01*
X195981906Y-103857514D01*
X195981906Y-103857518D01*
X195987618Y-103956578D01*
X195994597Y-104077614D01*
X195995734Y-104082660D01*
X195995735Y-104082666D01*
X196016984Y-104176952D01*
X196044200Y-104297720D01*
X196046142Y-104302502D01*
X196046143Y-104302506D01*
X196120571Y-104485800D01*
X196129086Y-104506769D01*
X196246975Y-104699147D01*
X196394702Y-104869687D01*
X196568299Y-105013810D01*
X196572751Y-105016412D01*
X196572756Y-105016415D01*
X196622069Y-105045231D01*
X196670792Y-105096870D01*
X196683863Y-105166653D01*
X196657131Y-105232425D01*
X196626595Y-105259783D01*
X196624335Y-105260960D01*
X196443905Y-105396430D01*
X196378112Y-105465278D01*
X196306230Y-105540499D01*
X196288024Y-105559550D01*
X196160878Y-105745940D01*
X196158704Y-105750624D01*
X196158702Y-105750627D01*
X196072932Y-105935404D01*
X196065881Y-105950593D01*
X196005585Y-106168013D01*
X195981609Y-106392362D01*
X195981906Y-106397514D01*
X195981906Y-106397518D01*
X195992105Y-106574388D01*
X195994597Y-106617614D01*
X195995734Y-106622660D01*
X195995735Y-106622666D01*
X196016984Y-106716952D01*
X196044200Y-106837720D01*
X196046142Y-106842502D01*
X196046143Y-106842506D01*
X196082636Y-106932377D01*
X196129086Y-107046769D01*
X196246975Y-107239147D01*
X196394702Y-107409687D01*
X196568299Y-107553810D01*
X196572751Y-107556412D01*
X196572756Y-107556415D01*
X196622069Y-107585231D01*
X196670792Y-107636870D01*
X196683863Y-107706653D01*
X196657131Y-107772425D01*
X196626595Y-107799783D01*
X196624335Y-107800960D01*
X196534884Y-107868121D01*
X196489256Y-107902380D01*
X196443905Y-107936430D01*
X196440333Y-107940168D01*
X196306230Y-108080499D01*
X196288024Y-108099550D01*
X196160878Y-108285940D01*
X196158704Y-108290624D01*
X196158702Y-108290627D01*
X196072932Y-108475404D01*
X196065881Y-108490593D01*
X196005585Y-108708013D01*
X195981609Y-108932362D01*
X195981906Y-108937514D01*
X195981906Y-108937518D01*
X195992255Y-109117005D01*
X195994597Y-109157614D01*
X195995734Y-109162660D01*
X195995735Y-109162666D01*
X196016984Y-109256952D01*
X196044200Y-109377720D01*
X196046142Y-109382502D01*
X196046143Y-109382506D01*
X196127142Y-109581982D01*
X196129086Y-109586769D01*
X196156615Y-109631693D01*
X196226851Y-109746307D01*
X196246975Y-109779147D01*
X196394702Y-109949687D01*
X196506143Y-110042207D01*
X196555875Y-110083495D01*
X196568299Y-110093810D01*
X196572751Y-110096412D01*
X196572756Y-110096415D01*
X196622069Y-110125231D01*
X196670792Y-110176870D01*
X196683863Y-110246653D01*
X196657131Y-110312425D01*
X196626595Y-110339783D01*
X196624335Y-110340960D01*
X196443905Y-110476430D01*
X196422269Y-110499071D01*
X196306230Y-110620499D01*
X196288024Y-110639550D01*
X196160878Y-110825940D01*
X196158704Y-110830624D01*
X196158702Y-110830627D01*
X196072932Y-111015404D01*
X196065881Y-111030593D01*
X196005585Y-111248013D01*
X195981609Y-111472362D01*
X195981906Y-111477514D01*
X195981906Y-111477518D01*
X195991051Y-111636109D01*
X195994597Y-111697614D01*
X195995734Y-111702660D01*
X195995735Y-111702666D01*
X196027095Y-111841821D01*
X196044200Y-111917720D01*
X196046142Y-111922502D01*
X196046143Y-111922506D01*
X196082822Y-112012835D01*
X196129086Y-112126769D01*
X196246975Y-112319147D01*
X196394702Y-112489687D01*
X196568299Y-112633810D01*
X196572751Y-112636412D01*
X196572756Y-112636415D01*
X196622069Y-112665231D01*
X196670792Y-112716870D01*
X196683863Y-112786653D01*
X196657131Y-112852425D01*
X196626595Y-112879783D01*
X196624335Y-112880960D01*
X196534884Y-112948121D01*
X196458063Y-113005800D01*
X196443905Y-113016430D01*
X196288024Y-113179550D01*
X196160878Y-113365940D01*
X196158704Y-113370624D01*
X196158702Y-113370627D01*
X196087402Y-113524231D01*
X196065881Y-113570593D01*
X196005585Y-113788013D01*
X195981609Y-114012362D01*
X190603095Y-114012362D01*
X190090850Y-113500117D01*
X190083274Y-113491791D01*
X190079153Y-113485297D01*
X190029334Y-113438514D01*
X190026493Y-113435760D01*
X190006694Y-113415961D01*
X190003569Y-113413537D01*
X190003560Y-113413529D01*
X190003474Y-113413463D01*
X189994449Y-113405755D01*
X189967885Y-113380810D01*
X189962106Y-113375383D01*
X189953456Y-113370627D01*
X189949082Y-113368223D01*
X189944269Y-113365577D01*
X189927753Y-113354727D01*
X189911667Y-113342250D01*
X189870934Y-113324624D01*
X189860286Y-113319407D01*
X189848658Y-113313015D01*
X189821403Y-113298031D01*
X189813728Y-113296060D01*
X189813722Y-113296058D01*
X189801689Y-113292969D01*
X189782987Y-113286566D01*
X189764308Y-113278483D01*
X189730472Y-113273124D01*
X189720473Y-113271540D01*
X189708860Y-113269135D01*
X189665882Y-113258100D01*
X189645535Y-113258100D01*
X189625824Y-113256549D01*
X189613550Y-113254605D01*
X189605721Y-113253365D01*
X189597829Y-113254111D01*
X189561544Y-113257541D01*
X189549686Y-113258100D01*
X162112422Y-113258100D01*
X162044301Y-113238098D01*
X161997808Y-113184442D01*
X161987704Y-113114168D01*
X162017198Y-113049588D01*
X162023327Y-113043005D01*
X162911932Y-112154400D01*
X181177710Y-112154400D01*
X181196418Y-112332391D01*
X181251723Y-112502603D01*
X181341209Y-112657597D01*
X181345627Y-112662504D01*
X181345628Y-112662505D01*
X181355475Y-112673441D01*
X181460964Y-112790599D01*
X181466306Y-112794480D01*
X181466308Y-112794482D01*
X181546060Y-112852425D01*
X181605755Y-112895796D01*
X181611783Y-112898480D01*
X181611785Y-112898481D01*
X181613472Y-112899232D01*
X181769254Y-112968590D01*
X181856784Y-112987195D01*
X181937857Y-113004428D01*
X181937861Y-113004428D01*
X181944314Y-113005800D01*
X182123286Y-113005800D01*
X182129739Y-113004428D01*
X182129743Y-113004428D01*
X182210816Y-112987195D01*
X182298346Y-112968590D01*
X182454128Y-112899232D01*
X182455815Y-112898481D01*
X182455817Y-112898480D01*
X182461845Y-112895796D01*
X182521540Y-112852425D01*
X182601292Y-112794482D01*
X182601294Y-112794480D01*
X182606636Y-112790599D01*
X182712125Y-112673441D01*
X182721972Y-112662505D01*
X182721973Y-112662504D01*
X182726391Y-112657597D01*
X182815877Y-112502603D01*
X182871182Y-112332391D01*
X182889890Y-112154400D01*
X184741510Y-112154400D01*
X184760218Y-112332391D01*
X184815523Y-112502603D01*
X184905009Y-112657597D01*
X184909427Y-112662504D01*
X184909428Y-112662505D01*
X184919275Y-112673441D01*
X185024764Y-112790599D01*
X185030106Y-112794480D01*
X185030108Y-112794482D01*
X185109860Y-112852425D01*
X185169555Y-112895796D01*
X185175583Y-112898480D01*
X185175585Y-112898481D01*
X185177272Y-112899232D01*
X185333054Y-112968590D01*
X185420584Y-112987195D01*
X185501657Y-113004428D01*
X185501661Y-113004428D01*
X185508114Y-113005800D01*
X185687086Y-113005800D01*
X185693539Y-113004428D01*
X185693543Y-113004428D01*
X185774616Y-112987195D01*
X185862146Y-112968590D01*
X186017928Y-112899232D01*
X186019615Y-112898481D01*
X186019617Y-112898480D01*
X186025645Y-112895796D01*
X186085340Y-112852425D01*
X186165092Y-112794482D01*
X186165094Y-112794480D01*
X186170436Y-112790599D01*
X186275925Y-112673441D01*
X186285772Y-112662505D01*
X186285773Y-112662504D01*
X186290191Y-112657597D01*
X186379677Y-112502603D01*
X186434982Y-112332391D01*
X186453690Y-112154400D01*
X186434982Y-111976409D01*
X186379677Y-111806197D01*
X186374340Y-111796952D01*
X186344768Y-111745732D01*
X186290191Y-111651203D01*
X186276601Y-111636109D01*
X186174858Y-111523112D01*
X186174857Y-111523111D01*
X186170436Y-111518201D01*
X186149027Y-111502646D01*
X186030987Y-111416885D01*
X186030986Y-111416884D01*
X186025645Y-111413004D01*
X186019617Y-111410320D01*
X186019615Y-111410319D01*
X185868177Y-111342895D01*
X185868176Y-111342895D01*
X185862146Y-111340210D01*
X185774616Y-111321605D01*
X185693543Y-111304372D01*
X185693539Y-111304372D01*
X185687086Y-111303000D01*
X185508114Y-111303000D01*
X185501661Y-111304372D01*
X185501657Y-111304372D01*
X185420584Y-111321605D01*
X185333054Y-111340210D01*
X185327024Y-111342895D01*
X185327023Y-111342895D01*
X185175585Y-111410319D01*
X185175583Y-111410320D01*
X185169555Y-111413004D01*
X185164214Y-111416884D01*
X185164213Y-111416885D01*
X185046174Y-111502646D01*
X185024764Y-111518201D01*
X185020343Y-111523111D01*
X185020342Y-111523112D01*
X184918600Y-111636109D01*
X184905009Y-111651203D01*
X184850432Y-111745732D01*
X184820861Y-111796952D01*
X184815523Y-111806197D01*
X184760218Y-111976409D01*
X184741510Y-112154400D01*
X182889890Y-112154400D01*
X182871182Y-111976409D01*
X182815877Y-111806197D01*
X182810540Y-111796952D01*
X182780968Y-111745732D01*
X182726391Y-111651203D01*
X182712801Y-111636109D01*
X182611058Y-111523112D01*
X182611057Y-111523111D01*
X182606636Y-111518201D01*
X182585227Y-111502646D01*
X182467187Y-111416885D01*
X182467186Y-111416884D01*
X182461845Y-111413004D01*
X182455817Y-111410320D01*
X182455815Y-111410319D01*
X182304377Y-111342895D01*
X182304376Y-111342895D01*
X182298346Y-111340210D01*
X182210816Y-111321605D01*
X182129743Y-111304372D01*
X182129739Y-111304372D01*
X182123286Y-111303000D01*
X181944314Y-111303000D01*
X181937861Y-111304372D01*
X181937857Y-111304372D01*
X181856784Y-111321605D01*
X181769254Y-111340210D01*
X181763224Y-111342895D01*
X181763223Y-111342895D01*
X181611785Y-111410319D01*
X181611783Y-111410320D01*
X181605755Y-111413004D01*
X181600414Y-111416884D01*
X181600413Y-111416885D01*
X181482374Y-111502646D01*
X181460964Y-111518201D01*
X181456543Y-111523111D01*
X181456542Y-111523112D01*
X181354800Y-111636109D01*
X181341209Y-111651203D01*
X181286632Y-111745732D01*
X181257061Y-111796952D01*
X181251723Y-111806197D01*
X181196418Y-111976409D01*
X181177710Y-112154400D01*
X162911932Y-112154400D01*
X164474732Y-110591600D01*
X176842310Y-110591600D01*
X176861018Y-110769591D01*
X176916323Y-110939803D01*
X177005809Y-111094797D01*
X177125564Y-111227799D01*
X177130906Y-111231680D01*
X177130908Y-111231682D01*
X177265013Y-111329115D01*
X177270355Y-111332996D01*
X177276383Y-111335680D01*
X177276385Y-111335681D01*
X177316868Y-111353705D01*
X177433854Y-111405790D01*
X177521384Y-111424395D01*
X177602457Y-111441628D01*
X177602461Y-111441628D01*
X177608914Y-111443000D01*
X177787886Y-111443000D01*
X177794339Y-111441628D01*
X177794343Y-111441628D01*
X177875416Y-111424395D01*
X177962946Y-111405790D01*
X178079932Y-111353705D01*
X178120415Y-111335681D01*
X178120417Y-111335680D01*
X178126445Y-111332996D01*
X178131787Y-111329115D01*
X178265892Y-111231682D01*
X178265894Y-111231680D01*
X178271236Y-111227799D01*
X178390991Y-111094797D01*
X178480477Y-110939803D01*
X178535782Y-110769591D01*
X178554490Y-110591600D01*
X178535782Y-110413609D01*
X178480477Y-110243397D01*
X178470695Y-110226453D01*
X178412254Y-110125231D01*
X178390991Y-110088403D01*
X178327237Y-110017596D01*
X178275658Y-109960312D01*
X178275657Y-109960311D01*
X178271236Y-109955401D01*
X178263372Y-109949687D01*
X178131787Y-109854085D01*
X178131786Y-109854084D01*
X178126445Y-109850204D01*
X178120417Y-109847520D01*
X178120415Y-109847519D01*
X177968977Y-109780095D01*
X177968976Y-109780095D01*
X177962946Y-109777410D01*
X177875416Y-109758805D01*
X177794343Y-109741572D01*
X177794339Y-109741572D01*
X177787886Y-109740200D01*
X177608914Y-109740200D01*
X177602461Y-109741572D01*
X177602457Y-109741572D01*
X177521384Y-109758805D01*
X177433854Y-109777410D01*
X177427824Y-109780095D01*
X177427823Y-109780095D01*
X177276385Y-109847519D01*
X177276383Y-109847520D01*
X177270355Y-109850204D01*
X177265014Y-109854084D01*
X177265013Y-109854085D01*
X177133429Y-109949687D01*
X177125564Y-109955401D01*
X177121143Y-109960311D01*
X177121142Y-109960312D01*
X177069564Y-110017596D01*
X177005809Y-110088403D01*
X176984546Y-110125231D01*
X176926106Y-110226453D01*
X176916323Y-110243397D01*
X176861018Y-110413609D01*
X176842310Y-110591600D01*
X164474732Y-110591600D01*
X166252732Y-108813600D01*
X175572310Y-108813600D01*
X175573000Y-108820165D01*
X175579519Y-108882183D01*
X175591018Y-108991591D01*
X175593058Y-108997869D01*
X175593058Y-108997870D01*
X175620253Y-109081566D01*
X175646323Y-109161803D01*
X175735809Y-109316797D01*
X175740227Y-109321704D01*
X175740228Y-109321705D01*
X175840775Y-109433374D01*
X175855564Y-109449799D01*
X175860906Y-109453680D01*
X175860908Y-109453682D01*
X175921516Y-109497716D01*
X176000355Y-109554996D01*
X176006383Y-109557680D01*
X176006385Y-109557681D01*
X176081610Y-109591173D01*
X176163854Y-109627790D01*
X176251384Y-109646395D01*
X176332457Y-109663628D01*
X176332461Y-109663628D01*
X176338914Y-109665000D01*
X176517886Y-109665000D01*
X176524339Y-109663628D01*
X176524343Y-109663628D01*
X176605416Y-109646395D01*
X176692946Y-109627790D01*
X176775190Y-109591173D01*
X176850415Y-109557681D01*
X176850417Y-109557680D01*
X176856445Y-109554996D01*
X176935284Y-109497716D01*
X176995892Y-109453682D01*
X176995894Y-109453680D01*
X177001236Y-109449799D01*
X177016025Y-109433374D01*
X177116572Y-109321705D01*
X177116573Y-109321704D01*
X177120991Y-109316797D01*
X177210477Y-109161803D01*
X177236547Y-109081566D01*
X177263742Y-108997870D01*
X177263742Y-108997869D01*
X177265782Y-108991591D01*
X177277282Y-108882183D01*
X177283800Y-108820165D01*
X177284490Y-108813600D01*
X177279831Y-108769273D01*
X177266472Y-108642173D01*
X177266472Y-108642172D01*
X177265782Y-108635609D01*
X177261959Y-108623841D01*
X177220283Y-108495577D01*
X177210477Y-108465397D01*
X177120991Y-108310403D01*
X177106939Y-108294796D01*
X177005658Y-108182312D01*
X177005657Y-108182311D01*
X177001236Y-108177401D01*
X176930422Y-108125951D01*
X176861787Y-108076085D01*
X176861786Y-108076084D01*
X176856445Y-108072204D01*
X176850417Y-108069520D01*
X176850415Y-108069519D01*
X176698977Y-108002095D01*
X176698976Y-108002095D01*
X176692946Y-107999410D01*
X176605416Y-107980805D01*
X176524343Y-107963572D01*
X176524339Y-107963572D01*
X176517886Y-107962200D01*
X176338914Y-107962200D01*
X176332461Y-107963572D01*
X176332457Y-107963572D01*
X176251384Y-107980805D01*
X176163854Y-107999410D01*
X176157824Y-108002095D01*
X176157823Y-108002095D01*
X176006385Y-108069519D01*
X176006383Y-108069520D01*
X176000355Y-108072204D01*
X175995014Y-108076084D01*
X175995013Y-108076085D01*
X175926379Y-108125951D01*
X175855564Y-108177401D01*
X175851143Y-108182311D01*
X175851142Y-108182312D01*
X175749862Y-108294796D01*
X175735809Y-108310403D01*
X175646323Y-108465397D01*
X175636517Y-108495577D01*
X175594842Y-108623841D01*
X175591018Y-108635609D01*
X175590328Y-108642172D01*
X175590328Y-108642173D01*
X175576969Y-108769273D01*
X175572310Y-108813600D01*
X166252732Y-108813600D01*
X168643077Y-106423255D01*
X168651403Y-106415678D01*
X168657903Y-106411553D01*
X168675925Y-106392362D01*
X168704700Y-106361719D01*
X168707455Y-106358877D01*
X168727238Y-106339094D01*
X168729729Y-106335883D01*
X168737438Y-106326856D01*
X168767817Y-106294506D01*
X168777622Y-106276671D01*
X168788476Y-106260147D01*
X168796091Y-106250330D01*
X168796092Y-106250329D01*
X168800949Y-106244067D01*
X168818569Y-106203350D01*
X168823792Y-106192689D01*
X168841349Y-106160753D01*
X168841351Y-106160748D01*
X168845169Y-106153803D01*
X168847139Y-106146129D01*
X168847142Y-106146122D01*
X168850232Y-106134087D01*
X168856636Y-106115382D01*
X168861567Y-106103987D01*
X168864717Y-106096708D01*
X168871660Y-106052873D01*
X168874067Y-106041251D01*
X168885100Y-105998282D01*
X168885100Y-105977935D01*
X168886651Y-105958224D01*
X168888595Y-105945950D01*
X168889835Y-105938121D01*
X168885659Y-105893944D01*
X168885100Y-105882086D01*
X168885100Y-100177600D01*
X175470710Y-100177600D01*
X175489418Y-100355591D01*
X175491458Y-100361869D01*
X175491458Y-100361870D01*
X175511210Y-100422660D01*
X175544723Y-100525803D01*
X175548026Y-100531525D01*
X175548027Y-100531526D01*
X175566728Y-100563916D01*
X175634209Y-100680797D01*
X175638627Y-100685704D01*
X175638628Y-100685705D01*
X175703988Y-100758295D01*
X175753964Y-100813799D01*
X175759306Y-100817680D01*
X175759308Y-100817682D01*
X175825701Y-100865919D01*
X175898755Y-100918996D01*
X175904783Y-100921680D01*
X175904785Y-100921681D01*
X176040523Y-100982115D01*
X176062254Y-100991790D01*
X176149784Y-101010395D01*
X176230857Y-101027628D01*
X176230861Y-101027628D01*
X176237314Y-101029000D01*
X176416286Y-101029000D01*
X176422739Y-101027628D01*
X176422743Y-101027628D01*
X176503816Y-101010395D01*
X176591346Y-100991790D01*
X176613077Y-100982115D01*
X176748815Y-100921681D01*
X176748817Y-100921680D01*
X176754845Y-100918996D01*
X176827899Y-100865919D01*
X176894292Y-100817682D01*
X176894294Y-100817680D01*
X176899636Y-100813799D01*
X176949612Y-100758295D01*
X177014972Y-100685705D01*
X177014973Y-100685704D01*
X177019391Y-100680797D01*
X177086872Y-100563916D01*
X177105573Y-100531526D01*
X177105574Y-100531525D01*
X177108877Y-100525803D01*
X177142390Y-100422660D01*
X177162142Y-100361870D01*
X177162142Y-100361869D01*
X177164182Y-100355591D01*
X177182890Y-100177600D01*
X177167038Y-100026782D01*
X177164872Y-100006173D01*
X177164872Y-100006172D01*
X177164182Y-99999609D01*
X177141731Y-99930510D01*
X177110919Y-99835682D01*
X177108877Y-99829397D01*
X177019391Y-99674403D01*
X176969639Y-99619147D01*
X176904058Y-99546312D01*
X176904057Y-99546311D01*
X176899636Y-99541401D01*
X176884092Y-99530107D01*
X176760187Y-99440085D01*
X176760186Y-99440084D01*
X176754845Y-99436204D01*
X176748817Y-99433520D01*
X176748815Y-99433519D01*
X176597377Y-99366095D01*
X176597376Y-99366095D01*
X176591346Y-99363410D01*
X176503816Y-99344805D01*
X176422743Y-99327572D01*
X176422739Y-99327572D01*
X176416286Y-99326200D01*
X176237314Y-99326200D01*
X176230861Y-99327572D01*
X176230857Y-99327572D01*
X176149784Y-99344805D01*
X176062254Y-99363410D01*
X176056224Y-99366095D01*
X176056223Y-99366095D01*
X175904785Y-99433519D01*
X175904783Y-99433520D01*
X175898755Y-99436204D01*
X175893414Y-99440084D01*
X175893413Y-99440085D01*
X175769509Y-99530107D01*
X175753964Y-99541401D01*
X175749543Y-99546311D01*
X175749542Y-99546312D01*
X175683962Y-99619147D01*
X175634209Y-99674403D01*
X175544723Y-99829397D01*
X175542681Y-99835682D01*
X175511870Y-99930510D01*
X175489418Y-99999609D01*
X175488728Y-100006172D01*
X175488728Y-100006173D01*
X175486562Y-100026782D01*
X175470710Y-100177600D01*
X168885100Y-100177600D01*
X168885100Y-96827317D01*
X168905102Y-96759196D01*
X168958758Y-96712703D01*
X169029032Y-96702599D01*
X169062349Y-96712210D01*
X169197487Y-96772377D01*
X169204254Y-96775390D01*
X169272166Y-96789825D01*
X169372857Y-96811228D01*
X169372861Y-96811228D01*
X169379314Y-96812600D01*
X169558286Y-96812600D01*
X169564739Y-96811228D01*
X169564743Y-96811228D01*
X169665434Y-96789825D01*
X169733346Y-96775390D01*
X169739377Y-96772705D01*
X169890815Y-96705281D01*
X169890817Y-96705280D01*
X169896845Y-96702596D01*
X169902187Y-96698715D01*
X170036292Y-96601282D01*
X170036294Y-96601280D01*
X170041636Y-96597399D01*
X170073603Y-96561896D01*
X170111326Y-96520000D01*
X176842310Y-96520000D01*
X176861018Y-96697991D01*
X176863058Y-96704269D01*
X176863058Y-96704270D01*
X176885187Y-96772377D01*
X176916323Y-96868203D01*
X177005809Y-97023197D01*
X177010227Y-97028104D01*
X177010228Y-97028105D01*
X177119505Y-97149470D01*
X177125564Y-97156199D01*
X177130906Y-97160080D01*
X177130908Y-97160082D01*
X177265013Y-97257515D01*
X177270355Y-97261396D01*
X177276383Y-97264080D01*
X177276385Y-97264081D01*
X177396583Y-97317596D01*
X177433854Y-97334190D01*
X177521384Y-97352795D01*
X177602457Y-97370028D01*
X177602461Y-97370028D01*
X177608914Y-97371400D01*
X177787886Y-97371400D01*
X177794339Y-97370028D01*
X177794343Y-97370028D01*
X177875416Y-97352795D01*
X177962946Y-97334190D01*
X178000217Y-97317596D01*
X178120415Y-97264081D01*
X178120417Y-97264080D01*
X178126445Y-97261396D01*
X178131787Y-97257515D01*
X178265892Y-97160082D01*
X178265894Y-97160080D01*
X178271236Y-97156199D01*
X178277295Y-97149470D01*
X178386572Y-97028105D01*
X178386573Y-97028104D01*
X178390991Y-97023197D01*
X178424476Y-96965200D01*
X181177710Y-96965200D01*
X181196418Y-97143191D01*
X181198458Y-97149469D01*
X181198458Y-97149470D01*
X181201338Y-97158333D01*
X181251723Y-97313403D01*
X181255026Y-97319125D01*
X181255027Y-97319126D01*
X181265189Y-97336727D01*
X181341209Y-97468397D01*
X181345627Y-97473304D01*
X181345628Y-97473305D01*
X181424125Y-97560485D01*
X181460964Y-97601399D01*
X181466306Y-97605280D01*
X181466308Y-97605282D01*
X181600413Y-97702715D01*
X181605755Y-97706596D01*
X181611783Y-97709280D01*
X181611785Y-97709281D01*
X181763223Y-97776705D01*
X181769254Y-97779390D01*
X181841767Y-97794803D01*
X181937857Y-97815228D01*
X181937861Y-97815228D01*
X181944314Y-97816600D01*
X182123286Y-97816600D01*
X182129739Y-97815228D01*
X182129743Y-97815228D01*
X182225833Y-97794803D01*
X182298346Y-97779390D01*
X182304377Y-97776705D01*
X182455815Y-97709281D01*
X182455817Y-97709280D01*
X182461845Y-97706596D01*
X182467187Y-97702715D01*
X182601292Y-97605282D01*
X182601294Y-97605280D01*
X182606636Y-97601399D01*
X182643475Y-97560485D01*
X182721972Y-97473305D01*
X182721973Y-97473304D01*
X182726391Y-97468397D01*
X182802411Y-97336727D01*
X182812573Y-97319126D01*
X182812574Y-97319125D01*
X182815877Y-97313403D01*
X182866262Y-97158333D01*
X182869142Y-97149470D01*
X182869142Y-97149469D01*
X182871182Y-97143191D01*
X182884551Y-97016000D01*
X184690710Y-97016000D01*
X184691400Y-97022565D01*
X184704739Y-97149470D01*
X184709418Y-97193991D01*
X184711458Y-97200269D01*
X184711458Y-97200270D01*
X184741789Y-97293620D01*
X184764723Y-97364203D01*
X184854209Y-97519197D01*
X184858627Y-97524104D01*
X184858628Y-97524105D01*
X184968678Y-97646328D01*
X184973964Y-97652199D01*
X184979306Y-97656080D01*
X184979308Y-97656082D01*
X185103465Y-97746287D01*
X185118755Y-97757396D01*
X185124783Y-97760080D01*
X185124785Y-97760081D01*
X185251730Y-97816600D01*
X185282254Y-97830190D01*
X185369784Y-97848795D01*
X185450857Y-97866028D01*
X185450861Y-97866028D01*
X185457314Y-97867400D01*
X185636286Y-97867400D01*
X185642739Y-97866028D01*
X185642743Y-97866028D01*
X185723816Y-97848795D01*
X185811346Y-97830190D01*
X185841870Y-97816600D01*
X185968815Y-97760081D01*
X185968817Y-97760080D01*
X185974845Y-97757396D01*
X185990135Y-97746287D01*
X186114292Y-97656082D01*
X186114294Y-97656080D01*
X186119636Y-97652199D01*
X186124922Y-97646328D01*
X186234972Y-97524105D01*
X186234973Y-97524104D01*
X186239391Y-97519197D01*
X186328877Y-97364203D01*
X186351811Y-97293620D01*
X186382142Y-97200270D01*
X186382142Y-97200269D01*
X186384182Y-97193991D01*
X186388862Y-97149470D01*
X186402200Y-97022565D01*
X186402890Y-97016000D01*
X186400977Y-96997799D01*
X186384872Y-96844573D01*
X186384872Y-96844572D01*
X186384182Y-96838009D01*
X186328877Y-96667797D01*
X186239391Y-96512803D01*
X186200226Y-96469305D01*
X186124058Y-96384712D01*
X186124057Y-96384711D01*
X186119636Y-96379801D01*
X186076655Y-96348573D01*
X185980187Y-96278485D01*
X185980186Y-96278484D01*
X185974845Y-96274604D01*
X185968817Y-96271920D01*
X185968815Y-96271919D01*
X185817377Y-96204495D01*
X185817376Y-96204495D01*
X185811346Y-96201810D01*
X185723816Y-96183205D01*
X185642743Y-96165972D01*
X185642739Y-96165972D01*
X185636286Y-96164600D01*
X185457314Y-96164600D01*
X185450861Y-96165972D01*
X185450857Y-96165972D01*
X185369784Y-96183205D01*
X185282254Y-96201810D01*
X185276224Y-96204495D01*
X185276223Y-96204495D01*
X185124785Y-96271919D01*
X185124783Y-96271920D01*
X185118755Y-96274604D01*
X185113414Y-96278484D01*
X185113413Y-96278485D01*
X185016946Y-96348573D01*
X184973964Y-96379801D01*
X184969543Y-96384711D01*
X184969542Y-96384712D01*
X184893375Y-96469305D01*
X184854209Y-96512803D01*
X184764723Y-96667797D01*
X184709418Y-96838009D01*
X184708728Y-96844572D01*
X184708728Y-96844573D01*
X184692623Y-96997799D01*
X184690710Y-97016000D01*
X182884551Y-97016000D01*
X182889890Y-96965200D01*
X182876521Y-96838009D01*
X182871872Y-96793773D01*
X182871872Y-96793772D01*
X182871182Y-96787209D01*
X182866470Y-96772705D01*
X182817919Y-96623282D01*
X182815877Y-96616997D01*
X182726391Y-96462003D01*
X182618349Y-96342009D01*
X182611058Y-96333912D01*
X182611057Y-96333911D01*
X182606636Y-96329001D01*
X182571012Y-96303118D01*
X182467187Y-96227685D01*
X182467186Y-96227684D01*
X182461845Y-96223804D01*
X182455817Y-96221120D01*
X182455815Y-96221119D01*
X182304377Y-96153695D01*
X182304376Y-96153695D01*
X182298346Y-96151010D01*
X182210816Y-96132405D01*
X182129743Y-96115172D01*
X182129739Y-96115172D01*
X182123286Y-96113800D01*
X181944314Y-96113800D01*
X181937861Y-96115172D01*
X181937857Y-96115172D01*
X181856784Y-96132405D01*
X181769254Y-96151010D01*
X181763224Y-96153695D01*
X181763223Y-96153695D01*
X181611785Y-96221119D01*
X181611783Y-96221120D01*
X181605755Y-96223804D01*
X181600414Y-96227684D01*
X181600413Y-96227685D01*
X181496589Y-96303118D01*
X181460964Y-96329001D01*
X181456543Y-96333911D01*
X181456542Y-96333912D01*
X181449252Y-96342009D01*
X181341209Y-96462003D01*
X181251723Y-96616997D01*
X181249681Y-96623282D01*
X181201131Y-96772705D01*
X181196418Y-96787209D01*
X181195728Y-96793772D01*
X181195728Y-96793773D01*
X181191079Y-96838009D01*
X181177710Y-96965200D01*
X178424476Y-96965200D01*
X178480477Y-96868203D01*
X178511613Y-96772377D01*
X178533742Y-96704270D01*
X178533742Y-96704269D01*
X178535782Y-96697991D01*
X178554490Y-96520000D01*
X178535782Y-96342009D01*
X178531556Y-96329001D01*
X178489783Y-96200438D01*
X178480477Y-96171797D01*
X178467684Y-96149638D01*
X178423107Y-96072430D01*
X178390991Y-96016803D01*
X178383077Y-96008013D01*
X178275658Y-95888712D01*
X178275657Y-95888711D01*
X178271236Y-95883801D01*
X178196224Y-95829301D01*
X178131787Y-95782485D01*
X178131786Y-95782484D01*
X178126445Y-95778604D01*
X178120417Y-95775920D01*
X178120415Y-95775919D01*
X177968977Y-95708495D01*
X177968976Y-95708495D01*
X177962946Y-95705810D01*
X177874348Y-95686978D01*
X177794343Y-95669972D01*
X177794339Y-95669972D01*
X177787886Y-95668600D01*
X177608914Y-95668600D01*
X177602461Y-95669972D01*
X177602457Y-95669972D01*
X177522452Y-95686978D01*
X177433854Y-95705810D01*
X177427824Y-95708495D01*
X177427823Y-95708495D01*
X177276385Y-95775919D01*
X177276383Y-95775920D01*
X177270355Y-95778604D01*
X177265014Y-95782484D01*
X177265013Y-95782485D01*
X177200577Y-95829301D01*
X177125564Y-95883801D01*
X177121143Y-95888711D01*
X177121142Y-95888712D01*
X177013724Y-96008013D01*
X177005809Y-96016803D01*
X176973693Y-96072430D01*
X176929117Y-96149638D01*
X176916323Y-96171797D01*
X176907017Y-96200438D01*
X176865245Y-96329001D01*
X176861018Y-96342009D01*
X176842310Y-96520000D01*
X170111326Y-96520000D01*
X170156972Y-96469305D01*
X170156973Y-96469304D01*
X170161391Y-96464397D01*
X170233963Y-96338699D01*
X170247573Y-96315126D01*
X170247574Y-96315125D01*
X170250877Y-96309403D01*
X170297926Y-96164600D01*
X170304142Y-96145470D01*
X170304142Y-96145469D01*
X170306182Y-96139191D01*
X170324890Y-95961200D01*
X170315690Y-95873665D01*
X170306872Y-95789773D01*
X170306872Y-95789772D01*
X170306182Y-95783209D01*
X170303814Y-95775919D01*
X170252919Y-95619282D01*
X170250877Y-95612997D01*
X170161391Y-95458003D01*
X170132532Y-95425951D01*
X170046058Y-95329912D01*
X170046057Y-95329911D01*
X170041636Y-95325001D01*
X169950980Y-95259135D01*
X169902187Y-95223685D01*
X169902186Y-95223684D01*
X169896845Y-95219804D01*
X169890817Y-95217120D01*
X169890815Y-95217119D01*
X169739377Y-95149695D01*
X169739376Y-95149695D01*
X169733346Y-95147010D01*
X169617725Y-95122434D01*
X169564743Y-95111172D01*
X169564739Y-95111172D01*
X169558286Y-95109800D01*
X169379314Y-95109800D01*
X169372861Y-95111172D01*
X169372857Y-95111172D01*
X169319875Y-95122434D01*
X169204254Y-95147010D01*
X169198224Y-95149695D01*
X169198223Y-95149695D01*
X169062349Y-95210190D01*
X168991982Y-95219624D01*
X168927685Y-95189518D01*
X168889871Y-95129429D01*
X168885100Y-95095083D01*
X168885100Y-92506800D01*
X181080210Y-92506800D01*
X181098918Y-92684791D01*
X181154223Y-92855003D01*
X181157526Y-92860725D01*
X181157527Y-92860726D01*
X181176606Y-92893772D01*
X181243709Y-93009997D01*
X181248127Y-93014904D01*
X181248128Y-93014905D01*
X181359042Y-93138088D01*
X181363464Y-93142999D01*
X181368806Y-93146880D01*
X181368808Y-93146882D01*
X181447742Y-93204231D01*
X181508255Y-93248196D01*
X181514283Y-93250880D01*
X181514285Y-93250881D01*
X181665723Y-93318305D01*
X181671754Y-93320990D01*
X181740235Y-93335546D01*
X181840357Y-93356828D01*
X181840361Y-93356828D01*
X181846814Y-93358200D01*
X182025786Y-93358200D01*
X182032239Y-93356828D01*
X182032243Y-93356828D01*
X182132365Y-93335546D01*
X182200846Y-93320990D01*
X182206877Y-93318305D01*
X182358315Y-93250881D01*
X182358317Y-93250880D01*
X182364345Y-93248196D01*
X182424858Y-93204231D01*
X182503792Y-93146882D01*
X182503794Y-93146880D01*
X182509136Y-93142999D01*
X182513558Y-93138088D01*
X182624472Y-93014905D01*
X182624473Y-93014904D01*
X182628891Y-93009997D01*
X182695994Y-92893772D01*
X182715073Y-92860726D01*
X182715074Y-92860725D01*
X182718377Y-92855003D01*
X182773682Y-92684791D01*
X182792390Y-92506800D01*
X184694810Y-92506800D01*
X184713518Y-92684791D01*
X184768823Y-92855003D01*
X184772126Y-92860725D01*
X184772127Y-92860726D01*
X184791206Y-92893772D01*
X184858309Y-93009997D01*
X184862727Y-93014904D01*
X184862728Y-93014905D01*
X184973642Y-93138088D01*
X184978064Y-93142999D01*
X184983406Y-93146880D01*
X184983408Y-93146882D01*
X185062342Y-93204231D01*
X185122855Y-93248196D01*
X185128883Y-93250880D01*
X185128885Y-93250881D01*
X185280323Y-93318305D01*
X185286354Y-93320990D01*
X185354835Y-93335546D01*
X185454957Y-93356828D01*
X185454961Y-93356828D01*
X185461414Y-93358200D01*
X185640386Y-93358200D01*
X185646839Y-93356828D01*
X185646843Y-93356828D01*
X185746965Y-93335546D01*
X185815446Y-93320990D01*
X185821477Y-93318305D01*
X185972915Y-93250881D01*
X185972917Y-93250880D01*
X185978945Y-93248196D01*
X186039458Y-93204231D01*
X186118392Y-93146882D01*
X186118394Y-93146880D01*
X186123736Y-93142999D01*
X186128158Y-93138088D01*
X186239072Y-93014905D01*
X186239073Y-93014904D01*
X186243491Y-93009997D01*
X186310594Y-92893772D01*
X186329673Y-92860726D01*
X186329674Y-92860725D01*
X186332977Y-92855003D01*
X186388282Y-92684791D01*
X186406990Y-92506800D01*
X186394922Y-92391986D01*
X186388972Y-92335373D01*
X186388972Y-92335372D01*
X186388282Y-92328809D01*
X186332977Y-92158597D01*
X186243491Y-92003603D01*
X186235514Y-91994743D01*
X186128158Y-91875512D01*
X186128157Y-91875511D01*
X186123736Y-91870601D01*
X186118036Y-91866459D01*
X185984287Y-91769285D01*
X185984286Y-91769284D01*
X185978945Y-91765404D01*
X185972917Y-91762720D01*
X185972915Y-91762719D01*
X185821477Y-91695295D01*
X185821476Y-91695295D01*
X185815446Y-91692610D01*
X185727916Y-91674005D01*
X185646843Y-91656772D01*
X185646839Y-91656772D01*
X185640386Y-91655400D01*
X185461414Y-91655400D01*
X185454961Y-91656772D01*
X185454957Y-91656772D01*
X185373884Y-91674005D01*
X185286354Y-91692610D01*
X185280324Y-91695295D01*
X185280323Y-91695295D01*
X185128885Y-91762719D01*
X185128883Y-91762720D01*
X185122855Y-91765404D01*
X185117514Y-91769284D01*
X185117513Y-91769285D01*
X184983765Y-91866459D01*
X184978064Y-91870601D01*
X184973643Y-91875511D01*
X184973642Y-91875512D01*
X184866287Y-91994743D01*
X184858309Y-92003603D01*
X184768823Y-92158597D01*
X184713518Y-92328809D01*
X184712828Y-92335372D01*
X184712828Y-92335373D01*
X184706878Y-92391986D01*
X184694810Y-92506800D01*
X182792390Y-92506800D01*
X182780322Y-92391986D01*
X182774372Y-92335373D01*
X182774372Y-92335372D01*
X182773682Y-92328809D01*
X182718377Y-92158597D01*
X182628891Y-92003603D01*
X182620914Y-91994743D01*
X182513558Y-91875512D01*
X182513557Y-91875511D01*
X182509136Y-91870601D01*
X182503436Y-91866459D01*
X182369687Y-91769285D01*
X182369686Y-91769284D01*
X182364345Y-91765404D01*
X182358317Y-91762720D01*
X182358315Y-91762719D01*
X182206877Y-91695295D01*
X182206876Y-91695295D01*
X182200846Y-91692610D01*
X182113316Y-91674005D01*
X182032243Y-91656772D01*
X182032239Y-91656772D01*
X182025786Y-91655400D01*
X181846814Y-91655400D01*
X181840361Y-91656772D01*
X181840357Y-91656772D01*
X181759284Y-91674005D01*
X181671754Y-91692610D01*
X181665724Y-91695295D01*
X181665723Y-91695295D01*
X181514285Y-91762719D01*
X181514283Y-91762720D01*
X181508255Y-91765404D01*
X181502914Y-91769284D01*
X181502913Y-91769285D01*
X181369165Y-91866459D01*
X181363464Y-91870601D01*
X181359043Y-91875511D01*
X181359042Y-91875512D01*
X181251687Y-91994743D01*
X181243709Y-92003603D01*
X181154223Y-92158597D01*
X181098918Y-92328809D01*
X181098228Y-92335372D01*
X181098228Y-92335373D01*
X181092278Y-92391986D01*
X181080210Y-92506800D01*
X168885100Y-92506800D01*
X168885100Y-92111023D01*
X168905102Y-92042902D01*
X168922005Y-92021927D01*
X169593529Y-91350404D01*
X169655841Y-91316379D01*
X169682624Y-91313500D01*
X175823761Y-91313500D01*
X175891882Y-91333502D01*
X175938375Y-91387158D01*
X175946206Y-91410876D01*
X175946618Y-91414791D01*
X175948659Y-91421073D01*
X175948660Y-91421077D01*
X175986071Y-91536214D01*
X176001923Y-91585003D01*
X176091409Y-91739997D01*
X176095827Y-91744904D01*
X176095828Y-91744905D01*
X176206742Y-91868088D01*
X176211164Y-91872999D01*
X176216506Y-91876880D01*
X176216508Y-91876882D01*
X176350613Y-91974315D01*
X176355955Y-91978196D01*
X176361983Y-91980880D01*
X176361985Y-91980881D01*
X176508192Y-92045976D01*
X176519454Y-92050990D01*
X176606984Y-92069595D01*
X176688057Y-92086828D01*
X176688061Y-92086828D01*
X176694514Y-92088200D01*
X176873486Y-92088200D01*
X176879939Y-92086828D01*
X176879943Y-92086828D01*
X176961016Y-92069595D01*
X177048546Y-92050990D01*
X177059808Y-92045976D01*
X177206015Y-91980881D01*
X177206017Y-91980880D01*
X177212045Y-91978196D01*
X177217387Y-91974315D01*
X177351492Y-91876882D01*
X177351494Y-91876880D01*
X177356836Y-91872999D01*
X177404095Y-91820512D01*
X177464540Y-91783274D01*
X177535524Y-91784626D01*
X177591366Y-91820514D01*
X177679942Y-91918888D01*
X177684364Y-91923799D01*
X177689706Y-91927680D01*
X177689708Y-91927682D01*
X177819425Y-92021927D01*
X177829155Y-92028996D01*
X177835183Y-92031680D01*
X177835185Y-92031681D01*
X177962130Y-92088200D01*
X177992654Y-92101790D01*
X178080184Y-92120395D01*
X178161257Y-92137628D01*
X178161261Y-92137628D01*
X178167714Y-92139000D01*
X178346686Y-92139000D01*
X178353139Y-92137628D01*
X178353143Y-92137628D01*
X178434216Y-92120395D01*
X178521746Y-92101790D01*
X178552270Y-92088200D01*
X178679215Y-92031681D01*
X178679217Y-92031680D01*
X178685245Y-92028996D01*
X178694975Y-92021927D01*
X178824692Y-91927682D01*
X178824694Y-91927680D01*
X178830036Y-91923799D01*
X178834458Y-91918888D01*
X178945372Y-91795705D01*
X178945373Y-91795704D01*
X178949791Y-91790797D01*
X179004929Y-91695295D01*
X179035973Y-91641526D01*
X179035974Y-91641525D01*
X179039277Y-91635803D01*
X179094582Y-91465591D01*
X179103470Y-91381028D01*
X179130483Y-91315372D01*
X179136930Y-91307946D01*
X179156286Y-91287334D01*
X179159041Y-91284492D01*
X179178839Y-91264694D01*
X179181263Y-91261569D01*
X179181271Y-91261560D01*
X179181337Y-91261474D01*
X179189045Y-91252449D01*
X179213990Y-91225885D01*
X179219417Y-91220106D01*
X179229223Y-91202269D01*
X179240073Y-91185753D01*
X179252550Y-91169667D01*
X179270176Y-91128934D01*
X179275393Y-91118286D01*
X179292949Y-91086351D01*
X179296769Y-91079403D01*
X179298740Y-91071728D01*
X179298742Y-91071722D01*
X179301831Y-91059689D01*
X179308234Y-91040987D01*
X179316317Y-91022308D01*
X179323260Y-90978473D01*
X179325667Y-90966851D01*
X179336700Y-90923882D01*
X179336700Y-90903535D01*
X179338251Y-90883824D01*
X179340195Y-90871550D01*
X179341435Y-90863721D01*
X179337259Y-90819544D01*
X179336700Y-90807686D01*
X179336700Y-80502395D01*
X179337230Y-80491156D01*
X179338909Y-80483644D01*
X179336762Y-80415332D01*
X179336700Y-80411375D01*
X179336700Y-80383380D01*
X179336192Y-80379357D01*
X179335259Y-80367515D01*
X179334729Y-80350627D01*
X179333865Y-80323158D01*
X179328187Y-80303614D01*
X179324177Y-80284251D01*
X179322620Y-80271923D01*
X179322620Y-80271921D01*
X179321627Y-80264064D01*
X179318711Y-80256700D01*
X179318710Y-80256695D01*
X179305293Y-80222807D01*
X179301448Y-80211578D01*
X179294002Y-80185951D01*
X179289069Y-80168970D01*
X179281288Y-80155813D01*
X179278712Y-80151457D01*
X179270012Y-80133699D01*
X179265439Y-80122148D01*
X179265435Y-80122142D01*
X179262519Y-80114775D01*
X179236434Y-80078872D01*
X179229919Y-80068953D01*
X179211374Y-80037595D01*
X179211371Y-80037591D01*
X179207334Y-80030765D01*
X179192950Y-80016381D01*
X179180109Y-80001347D01*
X179172802Y-79991290D01*
X179168142Y-79984876D01*
X179133951Y-79956591D01*
X179125170Y-79948601D01*
X178929604Y-79753034D01*
X178895579Y-79690722D01*
X178892700Y-79663939D01*
X178892700Y-78796169D01*
X178912702Y-78728048D01*
X178925058Y-78711865D01*
X178949791Y-78684397D01*
X179022609Y-78558273D01*
X179035973Y-78535126D01*
X179035974Y-78535125D01*
X179039277Y-78529403D01*
X179080737Y-78401802D01*
X179092542Y-78365470D01*
X179092542Y-78365469D01*
X179094582Y-78359191D01*
X179097272Y-78333603D01*
X179112600Y-78187765D01*
X179113290Y-78181200D01*
X179112008Y-78169000D01*
X179095272Y-78009773D01*
X179095272Y-78009772D01*
X179094582Y-78003209D01*
X179090733Y-77991361D01*
X179041319Y-77839282D01*
X179039277Y-77832997D01*
X178949791Y-77678003D01*
X178939681Y-77666774D01*
X178834458Y-77549912D01*
X178834457Y-77549911D01*
X178830036Y-77545001D01*
X178813201Y-77532769D01*
X178690587Y-77443685D01*
X178690586Y-77443684D01*
X178685245Y-77439804D01*
X178679217Y-77437120D01*
X178679215Y-77437119D01*
X178527777Y-77369695D01*
X178527776Y-77369695D01*
X178521746Y-77367010D01*
X178406125Y-77342434D01*
X178353143Y-77331172D01*
X178353139Y-77331172D01*
X178346686Y-77329800D01*
X178167714Y-77329800D01*
X178161261Y-77331172D01*
X178161257Y-77331172D01*
X178108275Y-77342434D01*
X177992654Y-77367010D01*
X177986624Y-77369695D01*
X177986623Y-77369695D01*
X177835185Y-77437119D01*
X177835183Y-77437120D01*
X177829155Y-77439804D01*
X177823814Y-77443684D01*
X177823813Y-77443685D01*
X177701200Y-77532769D01*
X177684364Y-77545001D01*
X177679943Y-77549911D01*
X177679942Y-77549912D01*
X177593790Y-77645594D01*
X177533344Y-77682834D01*
X177462361Y-77681482D01*
X177415843Y-77654920D01*
X177412057Y-77651512D01*
X177407636Y-77646601D01*
X177262845Y-77541404D01*
X177256817Y-77538720D01*
X177256815Y-77538719D01*
X177105377Y-77471295D01*
X177105376Y-77471295D01*
X177099346Y-77468610D01*
X177006900Y-77448960D01*
X176930743Y-77432772D01*
X176930739Y-77432772D01*
X176924286Y-77431400D01*
X176745314Y-77431400D01*
X176738861Y-77432772D01*
X176738857Y-77432772D01*
X176662700Y-77448960D01*
X176570254Y-77468610D01*
X176564224Y-77471295D01*
X176564223Y-77471295D01*
X176412785Y-77538719D01*
X176412783Y-77538720D01*
X176406755Y-77541404D01*
X176401414Y-77545284D01*
X176401413Y-77545285D01*
X176286717Y-77628617D01*
X176261964Y-77646601D01*
X176257543Y-77651511D01*
X176257542Y-77651512D01*
X176194655Y-77721356D01*
X176142209Y-77779603D01*
X176115592Y-77825705D01*
X176056658Y-77927782D01*
X176052723Y-77934597D01*
X176048080Y-77948888D01*
X176028031Y-78010593D01*
X175997418Y-78104809D01*
X175996728Y-78111372D01*
X175996728Y-78111373D01*
X175979429Y-78275958D01*
X175978710Y-78282800D01*
X175979400Y-78289365D01*
X175995993Y-78447229D01*
X175997418Y-78460791D01*
X176052723Y-78631003D01*
X176142209Y-78785997D01*
X176146627Y-78790904D01*
X176146628Y-78790905D01*
X176241055Y-78895777D01*
X176271773Y-78959784D01*
X176263008Y-79030238D01*
X176241056Y-79064396D01*
X176134694Y-79182523D01*
X176045208Y-79337517D01*
X176043167Y-79343799D01*
X176043166Y-79343801D01*
X176011963Y-79439836D01*
X175971890Y-79498442D01*
X175906493Y-79526079D01*
X175892130Y-79526900D01*
X167841310Y-79526900D01*
X167830081Y-79526371D01*
X167822571Y-79524692D01*
X167814645Y-79524941D01*
X167814644Y-79524941D01*
X167754292Y-79526838D01*
X167750334Y-79526900D01*
X167722307Y-79526900D01*
X167718261Y-79527411D01*
X167706433Y-79528342D01*
X167662085Y-79529736D01*
X167654467Y-79531949D01*
X167654468Y-79531949D01*
X167642544Y-79535413D01*
X167623184Y-79539422D01*
X167610856Y-79540979D01*
X167610853Y-79540980D01*
X167602991Y-79541973D01*
X167595625Y-79544890D01*
X167595619Y-79544891D01*
X167561729Y-79558309D01*
X167550502Y-79562153D01*
X167507897Y-79574531D01*
X167501078Y-79578564D01*
X167501073Y-79578566D01*
X167490381Y-79584890D01*
X167472631Y-79593587D01*
X167453702Y-79601081D01*
X167447286Y-79605742D01*
X167447285Y-79605743D01*
X167417809Y-79627159D01*
X167407885Y-79633678D01*
X167376514Y-79652230D01*
X167376509Y-79652234D01*
X167369691Y-79656266D01*
X167355304Y-79670653D01*
X167340270Y-79683494D01*
X167323803Y-79695458D01*
X167318750Y-79701566D01*
X167295518Y-79729649D01*
X167287528Y-79738429D01*
X165393194Y-81632763D01*
X165330882Y-81666789D01*
X165260067Y-81661724D01*
X165203231Y-81619177D01*
X165184266Y-81582604D01*
X165172919Y-81547682D01*
X165170877Y-81541397D01*
X165081391Y-81386403D01*
X165038166Y-81338396D01*
X164966058Y-81258312D01*
X164966057Y-81258311D01*
X164961636Y-81253401D01*
X164921701Y-81224386D01*
X164822187Y-81152085D01*
X164822186Y-81152084D01*
X164816845Y-81148204D01*
X164810817Y-81145520D01*
X164810815Y-81145519D01*
X164659377Y-81078095D01*
X164659376Y-81078095D01*
X164653346Y-81075410D01*
X164551072Y-81053671D01*
X164484743Y-81039572D01*
X164484739Y-81039572D01*
X164478286Y-81038200D01*
X164299314Y-81038200D01*
X164292861Y-81039572D01*
X164292857Y-81039572D01*
X164226528Y-81053671D01*
X164124254Y-81075410D01*
X164118227Y-81078093D01*
X164118219Y-81078096D01*
X164033148Y-81115972D01*
X163962781Y-81125406D01*
X163898484Y-81095299D01*
X163860671Y-81035210D01*
X163855900Y-81000865D01*
X163855900Y-77266800D01*
X181080210Y-77266800D01*
X181080900Y-77273365D01*
X181097511Y-77431400D01*
X181098918Y-77444791D01*
X181100958Y-77451069D01*
X181100958Y-77451070D01*
X181102700Y-77456430D01*
X181154223Y-77615003D01*
X181157526Y-77620725D01*
X181157527Y-77620726D01*
X181177269Y-77654920D01*
X181243709Y-77769997D01*
X181248127Y-77774904D01*
X181248128Y-77774905D01*
X181353622Y-77892068D01*
X181363464Y-77902999D01*
X181368806Y-77906880D01*
X181368808Y-77906882D01*
X181501391Y-78003209D01*
X181508255Y-78008196D01*
X181514283Y-78010880D01*
X181514285Y-78010881D01*
X181597050Y-78047730D01*
X181671754Y-78080990D01*
X181754274Y-78098530D01*
X181840357Y-78116828D01*
X181840361Y-78116828D01*
X181846814Y-78118200D01*
X182025786Y-78118200D01*
X182032239Y-78116828D01*
X182032243Y-78116828D01*
X182118326Y-78098530D01*
X182200846Y-78080990D01*
X182275550Y-78047730D01*
X182358315Y-78010881D01*
X182358317Y-78010880D01*
X182364345Y-78008196D01*
X182371209Y-78003209D01*
X182503792Y-77906882D01*
X182503794Y-77906880D01*
X182509136Y-77902999D01*
X182518978Y-77892068D01*
X182624472Y-77774905D01*
X182624473Y-77774904D01*
X182628891Y-77769997D01*
X182695331Y-77654920D01*
X182715073Y-77620726D01*
X182715074Y-77620725D01*
X182718377Y-77615003D01*
X182769900Y-77456430D01*
X182771642Y-77451070D01*
X182771642Y-77451069D01*
X182773682Y-77444791D01*
X182775090Y-77431400D01*
X182787051Y-77317600D01*
X184644010Y-77317600D01*
X184644700Y-77324165D01*
X184661982Y-77488584D01*
X184662718Y-77495591D01*
X184664758Y-77501869D01*
X184664758Y-77501870D01*
X184694016Y-77591918D01*
X184718023Y-77665803D01*
X184721326Y-77671525D01*
X184721327Y-77671526D01*
X184739891Y-77703679D01*
X184807509Y-77820797D01*
X184811927Y-77825704D01*
X184811928Y-77825705D01*
X184917375Y-77942816D01*
X184927264Y-77953799D01*
X184932606Y-77957680D01*
X184932608Y-77957682D01*
X185062862Y-78052317D01*
X185072055Y-78058996D01*
X185078083Y-78061680D01*
X185078085Y-78061681D01*
X185220842Y-78125240D01*
X185235554Y-78131790D01*
X185304195Y-78146380D01*
X185404157Y-78167628D01*
X185404161Y-78167628D01*
X185410614Y-78169000D01*
X185589586Y-78169000D01*
X185596039Y-78167628D01*
X185596043Y-78167628D01*
X185696005Y-78146380D01*
X185764646Y-78131790D01*
X185779358Y-78125240D01*
X185922115Y-78061681D01*
X185922117Y-78061680D01*
X185928145Y-78058996D01*
X185937338Y-78052317D01*
X186067592Y-77957682D01*
X186067594Y-77957680D01*
X186072936Y-77953799D01*
X186082825Y-77942816D01*
X186188272Y-77825705D01*
X186188273Y-77825704D01*
X186192691Y-77820797D01*
X186260309Y-77703679D01*
X186278873Y-77671526D01*
X186278874Y-77671525D01*
X186282177Y-77665803D01*
X186306184Y-77591918D01*
X186335442Y-77501870D01*
X186335442Y-77501869D01*
X186337482Y-77495591D01*
X186338219Y-77488584D01*
X186355500Y-77324165D01*
X186356190Y-77317600D01*
X186337482Y-77139609D01*
X186315031Y-77070510D01*
X186284219Y-76975682D01*
X186282177Y-76969397D01*
X186192691Y-76814403D01*
X186142939Y-76759147D01*
X186077358Y-76686312D01*
X186077357Y-76686311D01*
X186072936Y-76681401D01*
X186061967Y-76673431D01*
X185933487Y-76580085D01*
X185933486Y-76580084D01*
X185928145Y-76576204D01*
X185922117Y-76573520D01*
X185922115Y-76573519D01*
X185770677Y-76506095D01*
X185770676Y-76506095D01*
X185764646Y-76503410D01*
X185677116Y-76484805D01*
X185596043Y-76467572D01*
X185596039Y-76467572D01*
X185589586Y-76466200D01*
X185410614Y-76466200D01*
X185404161Y-76467572D01*
X185404157Y-76467572D01*
X185323084Y-76484805D01*
X185235554Y-76503410D01*
X185229524Y-76506095D01*
X185229523Y-76506095D01*
X185078085Y-76573519D01*
X185078083Y-76573520D01*
X185072055Y-76576204D01*
X185066714Y-76580084D01*
X185066713Y-76580085D01*
X184938234Y-76673431D01*
X184927264Y-76681401D01*
X184922843Y-76686311D01*
X184922842Y-76686312D01*
X184857262Y-76759147D01*
X184807509Y-76814403D01*
X184718023Y-76969397D01*
X184715981Y-76975682D01*
X184685170Y-77070510D01*
X184662718Y-77139609D01*
X184644010Y-77317600D01*
X182787051Y-77317600D01*
X182791700Y-77273365D01*
X182792390Y-77266800D01*
X182779711Y-77146173D01*
X182774372Y-77095373D01*
X182774372Y-77095372D01*
X182773682Y-77088809D01*
X182718377Y-76918597D01*
X182628891Y-76763603D01*
X182620914Y-76754743D01*
X182513558Y-76635512D01*
X182513557Y-76635511D01*
X182509136Y-76630601D01*
X182503436Y-76626459D01*
X182369687Y-76529285D01*
X182369686Y-76529284D01*
X182364345Y-76525404D01*
X182358317Y-76522720D01*
X182358315Y-76522719D01*
X182206877Y-76455295D01*
X182206876Y-76455295D01*
X182200846Y-76452610D01*
X182113316Y-76434005D01*
X182032243Y-76416772D01*
X182032239Y-76416772D01*
X182025786Y-76415400D01*
X181846814Y-76415400D01*
X181840361Y-76416772D01*
X181840357Y-76416772D01*
X181759284Y-76434005D01*
X181671754Y-76452610D01*
X181665724Y-76455295D01*
X181665723Y-76455295D01*
X181514285Y-76522719D01*
X181514283Y-76522720D01*
X181508255Y-76525404D01*
X181502914Y-76529284D01*
X181502913Y-76529285D01*
X181369165Y-76626459D01*
X181363464Y-76630601D01*
X181359043Y-76635511D01*
X181359042Y-76635512D01*
X181251687Y-76754743D01*
X181243709Y-76763603D01*
X181154223Y-76918597D01*
X181098918Y-77088809D01*
X181098228Y-77095372D01*
X181098228Y-77095373D01*
X181092889Y-77146173D01*
X181080210Y-77266800D01*
X163855900Y-77266800D01*
X163855900Y-76871022D01*
X163875902Y-76802901D01*
X163892805Y-76781927D01*
X165732727Y-74942005D01*
X165795039Y-74907979D01*
X165821822Y-74905100D01*
X178635380Y-74905100D01*
X178646614Y-74905630D01*
X178654119Y-74907308D01*
X178722412Y-74905162D01*
X178726369Y-74905100D01*
X178754383Y-74905100D01*
X178758308Y-74904604D01*
X178758309Y-74904604D01*
X178758404Y-74904592D01*
X178770249Y-74903659D01*
X178800070Y-74902722D01*
X178806682Y-74902514D01*
X178806683Y-74902514D01*
X178814605Y-74902265D01*
X178834149Y-74896587D01*
X178853512Y-74892577D01*
X178865840Y-74891020D01*
X178865842Y-74891020D01*
X178873699Y-74890027D01*
X178881063Y-74887111D01*
X178881068Y-74887110D01*
X178914956Y-74873693D01*
X178926185Y-74869848D01*
X178944754Y-74864453D01*
X178968793Y-74857469D01*
X178975620Y-74853431D01*
X178975623Y-74853430D01*
X178986306Y-74847112D01*
X179004064Y-74838412D01*
X179015615Y-74833839D01*
X179015621Y-74833835D01*
X179022988Y-74830919D01*
X179029828Y-74825950D01*
X179058888Y-74804836D01*
X179068810Y-74798319D01*
X179100168Y-74779774D01*
X179100172Y-74779771D01*
X179106998Y-74775734D01*
X179121382Y-74761350D01*
X179136416Y-74748509D01*
X179146473Y-74741202D01*
X179152887Y-74736542D01*
X179181178Y-74702344D01*
X179189167Y-74693565D01*
X181537365Y-72345367D01*
X181599677Y-72311341D01*
X181663824Y-72314130D01*
X181817193Y-72361753D01*
X181817199Y-72361754D01*
X181822296Y-72363337D01*
X181946660Y-72379820D01*
X182047848Y-72393232D01*
X182047852Y-72393232D01*
X182053132Y-72393932D01*
X182058462Y-72393732D01*
X182058463Y-72393732D01*
X182169477Y-72389564D01*
X182285822Y-72385197D01*
X182397554Y-72361753D01*
X182508486Y-72338477D01*
X182508489Y-72338476D01*
X182513713Y-72337380D01*
X182730290Y-72251850D01*
X182929359Y-72131051D01*
X182991798Y-72076870D01*
X183101197Y-71981939D01*
X183101199Y-71981937D01*
X183105230Y-71978439D01*
X183108613Y-71974313D01*
X183108617Y-71974309D01*
X183249487Y-71802504D01*
X183252872Y-71798376D01*
X183278845Y-71752748D01*
X183329927Y-71703442D01*
X183399558Y-71689580D01*
X183465629Y-71715563D01*
X183492867Y-71744713D01*
X183584804Y-71881272D01*
X183588483Y-71885129D01*
X183588485Y-71885131D01*
X183619455Y-71917596D01*
X183745532Y-72049758D01*
X183932350Y-72188754D01*
X183937102Y-72191170D01*
X184092238Y-72270045D01*
X184139916Y-72294286D01*
X184204404Y-72314310D01*
X184357193Y-72361753D01*
X184357199Y-72361754D01*
X184362296Y-72363337D01*
X184486660Y-72379820D01*
X184587848Y-72393232D01*
X184587852Y-72393232D01*
X184593132Y-72393932D01*
X184598462Y-72393732D01*
X184598463Y-72393732D01*
X184709477Y-72389564D01*
X184825822Y-72385197D01*
X184937554Y-72361753D01*
X185048486Y-72338477D01*
X185048489Y-72338476D01*
X185053713Y-72337380D01*
X185270290Y-72251850D01*
X185469359Y-72131051D01*
X185531798Y-72076870D01*
X185641197Y-71981939D01*
X185641199Y-71981937D01*
X185645230Y-71978439D01*
X185648613Y-71974313D01*
X185648617Y-71974309D01*
X185789487Y-71802504D01*
X185792872Y-71798376D01*
X185818845Y-71752748D01*
X185869927Y-71703442D01*
X185939558Y-71689580D01*
X186005629Y-71715563D01*
X186032867Y-71744713D01*
X186124804Y-71881272D01*
X186128483Y-71885129D01*
X186128485Y-71885131D01*
X186159455Y-71917596D01*
X186285532Y-72049758D01*
X186472350Y-72188754D01*
X186477102Y-72191170D01*
X186632238Y-72270045D01*
X186679916Y-72294286D01*
X186744404Y-72314310D01*
X186897193Y-72361753D01*
X186897199Y-72361754D01*
X186902296Y-72363337D01*
X187026660Y-72379820D01*
X187127848Y-72393232D01*
X187127852Y-72393232D01*
X187133132Y-72393932D01*
X187138462Y-72393732D01*
X187138463Y-72393732D01*
X187249477Y-72389564D01*
X187365822Y-72385197D01*
X187477554Y-72361753D01*
X187588486Y-72338477D01*
X187588489Y-72338476D01*
X187593713Y-72337380D01*
X187810290Y-72251850D01*
X187810978Y-72253591D01*
X187872792Y-72242654D01*
X187938292Y-72270045D01*
X187978586Y-72328499D01*
X187984900Y-72367886D01*
X187984900Y-77441780D01*
X187984370Y-77453014D01*
X187982692Y-77460519D01*
X187982941Y-77468438D01*
X187984838Y-77528812D01*
X187984900Y-77532769D01*
X187984900Y-77560783D01*
X187985396Y-77564708D01*
X187985396Y-77564709D01*
X187985408Y-77564804D01*
X187986341Y-77576649D01*
X187987735Y-77621005D01*
X187993413Y-77640548D01*
X187997423Y-77659912D01*
X187999973Y-77680099D01*
X188002889Y-77687463D01*
X188002890Y-77687468D01*
X188016307Y-77721356D01*
X188020152Y-77732585D01*
X188024998Y-77749265D01*
X188032531Y-77775193D01*
X188036569Y-77782020D01*
X188036570Y-77782023D01*
X188042888Y-77792706D01*
X188051588Y-77810464D01*
X188056161Y-77822015D01*
X188056165Y-77822021D01*
X188059081Y-77829388D01*
X188063739Y-77835799D01*
X188063740Y-77835801D01*
X188085164Y-77865288D01*
X188091681Y-77875210D01*
X188110226Y-77906568D01*
X188110229Y-77906572D01*
X188114266Y-77913398D01*
X188128650Y-77927782D01*
X188141491Y-77942816D01*
X188153458Y-77959287D01*
X188180223Y-77981429D01*
X188187650Y-77987573D01*
X188196431Y-77995563D01*
X188448968Y-78248101D01*
X188482993Y-78310413D01*
X188485182Y-78324025D01*
X188494218Y-78409991D01*
X188496258Y-78416269D01*
X188496258Y-78416270D01*
X188504424Y-78441402D01*
X188549523Y-78580203D01*
X188639009Y-78735197D01*
X188663737Y-78762660D01*
X188694453Y-78826666D01*
X188696100Y-78846969D01*
X188696100Y-90621831D01*
X188676098Y-90689952D01*
X188663742Y-90706135D01*
X188639009Y-90733603D01*
X188549523Y-90888597D01*
X188547481Y-90894882D01*
X188500012Y-91040978D01*
X188494218Y-91058809D01*
X188475510Y-91236800D01*
X188476200Y-91243365D01*
X188487451Y-91350404D01*
X188494218Y-91414791D01*
X188496258Y-91421069D01*
X188496258Y-91421070D01*
X188503191Y-91442407D01*
X188549523Y-91585003D01*
X188639009Y-91739997D01*
X188643427Y-91744904D01*
X188643428Y-91744905D01*
X188754342Y-91868088D01*
X188758764Y-91872999D01*
X188764106Y-91876880D01*
X188764108Y-91876882D01*
X188898213Y-91974315D01*
X188903555Y-91978196D01*
X188909583Y-91980880D01*
X188909585Y-91980881D01*
X189055792Y-92045976D01*
X189067054Y-92050990D01*
X189154584Y-92069595D01*
X189235657Y-92086828D01*
X189235661Y-92086828D01*
X189242114Y-92088200D01*
X189421086Y-92088200D01*
X189427539Y-92086828D01*
X189427543Y-92086828D01*
X189508616Y-92069595D01*
X189596146Y-92050990D01*
X189607408Y-92045976D01*
X189753615Y-91980881D01*
X189753617Y-91980880D01*
X189759645Y-91978196D01*
X189764987Y-91974315D01*
X189899092Y-91876882D01*
X189899094Y-91876880D01*
X189904436Y-91872999D01*
X189908858Y-91868088D01*
X190019772Y-91744905D01*
X190019773Y-91744904D01*
X190024191Y-91739997D01*
X190113677Y-91585003D01*
X190160009Y-91442407D01*
X190166942Y-91421070D01*
X190166942Y-91421069D01*
X190168982Y-91414791D01*
X190175750Y-91350404D01*
X190187000Y-91243365D01*
X190187690Y-91236800D01*
X190168982Y-91058809D01*
X190163189Y-91040978D01*
X190115719Y-90894882D01*
X190113677Y-90888597D01*
X190024191Y-90733603D01*
X189999463Y-90706140D01*
X189968747Y-90642134D01*
X189967100Y-90621831D01*
X189967100Y-90035907D01*
X189987102Y-89967786D01*
X190040758Y-89921293D01*
X190111032Y-89911189D01*
X190129653Y-89915520D01*
X190133854Y-89917390D01*
X190221384Y-89935995D01*
X190302457Y-89953228D01*
X190302461Y-89953228D01*
X190308914Y-89954600D01*
X190487886Y-89954600D01*
X190494339Y-89953228D01*
X190494343Y-89953228D01*
X190575416Y-89935995D01*
X190662946Y-89917390D01*
X190668977Y-89914705D01*
X190820415Y-89847281D01*
X190820417Y-89847280D01*
X190826445Y-89844596D01*
X190869326Y-89813441D01*
X190965892Y-89743282D01*
X190965894Y-89743280D01*
X190971236Y-89739399D01*
X191006170Y-89700601D01*
X191086572Y-89611305D01*
X191086573Y-89611304D01*
X191090991Y-89606397D01*
X191180477Y-89451403D01*
X191235782Y-89281191D01*
X191254490Y-89103200D01*
X191253191Y-89090844D01*
X191236472Y-88931773D01*
X191236472Y-88931772D01*
X191235782Y-88925209D01*
X191220990Y-88879682D01*
X191182519Y-88761282D01*
X191180477Y-88754997D01*
X191090991Y-88600003D01*
X191065495Y-88571686D01*
X190975658Y-88471912D01*
X190975657Y-88471911D01*
X190971236Y-88467001D01*
X190961795Y-88460141D01*
X190831787Y-88365685D01*
X190831786Y-88365684D01*
X190826445Y-88361804D01*
X190820417Y-88359120D01*
X190820415Y-88359119D01*
X190668977Y-88291695D01*
X190668976Y-88291695D01*
X190662946Y-88289010D01*
X190575416Y-88270405D01*
X190494343Y-88253172D01*
X190494339Y-88253172D01*
X190487886Y-88251800D01*
X190308914Y-88251800D01*
X190302461Y-88253172D01*
X190302457Y-88253172D01*
X190221384Y-88270405D01*
X190133854Y-88289010D01*
X190130820Y-88290361D01*
X190061070Y-88292354D01*
X190000271Y-88255692D01*
X189968946Y-88191980D01*
X189967100Y-88170493D01*
X189967100Y-81340678D01*
X189987102Y-81272557D01*
X190040758Y-81226064D01*
X190111032Y-81215960D01*
X190175612Y-81245454D01*
X190186736Y-81256368D01*
X190210182Y-81282407D01*
X190231964Y-81306599D01*
X190237306Y-81310480D01*
X190237308Y-81310482D01*
X190353582Y-81394960D01*
X190376755Y-81411796D01*
X190382783Y-81414480D01*
X190382785Y-81414481D01*
X190519177Y-81475206D01*
X190540254Y-81484590D01*
X190627784Y-81503195D01*
X190708857Y-81520428D01*
X190708861Y-81520428D01*
X190715314Y-81521800D01*
X190894286Y-81521800D01*
X190900739Y-81520428D01*
X190900743Y-81520428D01*
X190981816Y-81503195D01*
X191069346Y-81484590D01*
X191090423Y-81475206D01*
X191226815Y-81414481D01*
X191226817Y-81414480D01*
X191232845Y-81411796D01*
X191256018Y-81394960D01*
X191372292Y-81310482D01*
X191372294Y-81310480D01*
X191377636Y-81306599D01*
X191399419Y-81282407D01*
X191422864Y-81256368D01*
X191483310Y-81219128D01*
X191554293Y-81220480D01*
X191613278Y-81259993D01*
X191641536Y-81325124D01*
X191642500Y-81340678D01*
X191642500Y-94883778D01*
X191622498Y-94951899D01*
X191605595Y-94972873D01*
X190382884Y-96195583D01*
X189167593Y-97410874D01*
X189105281Y-97444900D01*
X189094706Y-97446600D01*
X189089714Y-97446600D01*
X188914654Y-97483810D01*
X188908624Y-97486495D01*
X188908623Y-97486495D01*
X188757185Y-97553919D01*
X188757183Y-97553920D01*
X188751155Y-97556604D01*
X188745814Y-97560484D01*
X188745813Y-97560485D01*
X188613337Y-97656735D01*
X188606364Y-97661801D01*
X188601943Y-97666711D01*
X188601942Y-97666712D01*
X188499252Y-97780762D01*
X188486609Y-97794803D01*
X188397123Y-97949797D01*
X188391874Y-97965951D01*
X188347357Y-98102963D01*
X188341818Y-98120009D01*
X188341128Y-98126572D01*
X188341128Y-98126573D01*
X188325398Y-98276228D01*
X188323110Y-98298000D01*
X188341818Y-98475991D01*
X188397123Y-98646203D01*
X188486609Y-98801197D01*
X188511337Y-98828660D01*
X188542053Y-98892666D01*
X188543700Y-98912969D01*
X188543700Y-110230631D01*
X188523698Y-110298752D01*
X188511342Y-110314935D01*
X188486609Y-110342403D01*
X188397123Y-110497397D01*
X188341818Y-110667609D01*
X188341128Y-110674172D01*
X188341128Y-110674173D01*
X188330585Y-110774479D01*
X188323110Y-110845600D01*
X188341818Y-111023591D01*
X188343858Y-111029869D01*
X188343858Y-111029870D01*
X188355872Y-111066844D01*
X188397123Y-111193803D01*
X188486609Y-111348797D01*
X188606364Y-111481799D01*
X188611706Y-111485680D01*
X188611708Y-111485682D01*
X188732988Y-111573797D01*
X188751155Y-111586996D01*
X188757183Y-111589680D01*
X188757185Y-111589681D01*
X188895367Y-111651203D01*
X188914654Y-111659790D01*
X189002184Y-111678395D01*
X189083257Y-111695628D01*
X189083261Y-111695628D01*
X189089714Y-111697000D01*
X189268686Y-111697000D01*
X189275139Y-111695628D01*
X189275143Y-111695628D01*
X189356216Y-111678395D01*
X189443746Y-111659790D01*
X189463033Y-111651203D01*
X189601215Y-111589681D01*
X189601217Y-111589680D01*
X189607245Y-111586996D01*
X189625412Y-111573797D01*
X189746692Y-111485682D01*
X189746694Y-111485680D01*
X189752036Y-111481799D01*
X189871791Y-111348797D01*
X189961277Y-111193803D01*
X190002528Y-111066844D01*
X190014542Y-111029870D01*
X190014542Y-111029869D01*
X190016582Y-111023591D01*
X190035290Y-110845600D01*
X190027815Y-110774479D01*
X190017272Y-110674173D01*
X190017272Y-110674172D01*
X190016582Y-110667609D01*
X189961277Y-110497397D01*
X189871791Y-110342403D01*
X189847063Y-110314940D01*
X189816347Y-110250934D01*
X189814700Y-110230631D01*
X189814700Y-109746307D01*
X189834702Y-109678186D01*
X189888358Y-109631693D01*
X189958632Y-109621589D01*
X189977253Y-109625920D01*
X189981454Y-109627790D01*
X190068984Y-109646395D01*
X190150057Y-109663628D01*
X190150061Y-109663628D01*
X190156514Y-109665000D01*
X190335486Y-109665000D01*
X190341939Y-109663628D01*
X190341943Y-109663628D01*
X190423016Y-109646395D01*
X190510546Y-109627790D01*
X190592790Y-109591173D01*
X190668015Y-109557681D01*
X190668017Y-109557680D01*
X190674045Y-109554996D01*
X190752884Y-109497716D01*
X190813492Y-109453682D01*
X190813494Y-109453680D01*
X190818836Y-109449799D01*
X190833625Y-109433374D01*
X190934172Y-109321705D01*
X190934173Y-109321704D01*
X190938591Y-109316797D01*
X191028077Y-109161803D01*
X191054147Y-109081566D01*
X191081342Y-108997870D01*
X191081342Y-108997869D01*
X191083382Y-108991591D01*
X191094882Y-108882183D01*
X191101400Y-108820165D01*
X191102090Y-108813600D01*
X191097431Y-108769273D01*
X191084072Y-108642173D01*
X191084072Y-108642172D01*
X191083382Y-108635609D01*
X191079559Y-108623841D01*
X191037883Y-108495577D01*
X191028077Y-108465397D01*
X190938591Y-108310403D01*
X190924539Y-108294796D01*
X190823258Y-108182312D01*
X190823257Y-108182311D01*
X190818836Y-108177401D01*
X190748022Y-108125951D01*
X190679387Y-108076085D01*
X190679386Y-108076084D01*
X190674045Y-108072204D01*
X190668017Y-108069520D01*
X190668015Y-108069519D01*
X190516577Y-108002095D01*
X190516576Y-108002095D01*
X190510546Y-107999410D01*
X190423016Y-107980805D01*
X190341943Y-107963572D01*
X190341939Y-107963572D01*
X190335486Y-107962200D01*
X190156514Y-107962200D01*
X190150061Y-107963572D01*
X190150057Y-107963572D01*
X190068984Y-107980805D01*
X189981454Y-107999410D01*
X189978420Y-108000761D01*
X189908670Y-108002754D01*
X189847871Y-107966092D01*
X189816546Y-107902380D01*
X189814700Y-107880893D01*
X189814700Y-101055526D01*
X189834702Y-100987405D01*
X189888358Y-100940912D01*
X189958632Y-100930808D01*
X190024793Y-100961789D01*
X190028764Y-100966199D01*
X190034106Y-100970080D01*
X190034108Y-100970082D01*
X190159802Y-101061404D01*
X190173555Y-101071396D01*
X190179583Y-101074080D01*
X190179585Y-101074081D01*
X190296856Y-101126293D01*
X190337054Y-101144190D01*
X190424584Y-101162795D01*
X190505657Y-101180028D01*
X190505661Y-101180028D01*
X190512114Y-101181400D01*
X190691086Y-101181400D01*
X190697539Y-101180028D01*
X190697543Y-101180028D01*
X190778616Y-101162795D01*
X190866146Y-101144190D01*
X190906344Y-101126293D01*
X191023615Y-101074081D01*
X191023617Y-101074080D01*
X191029645Y-101071396D01*
X191043398Y-101061404D01*
X191169092Y-100970082D01*
X191169094Y-100970080D01*
X191174436Y-100966199D01*
X191178858Y-100961288D01*
X191289772Y-100838105D01*
X191289773Y-100838104D01*
X191294191Y-100833197D01*
X191371011Y-100700141D01*
X191380373Y-100683926D01*
X191380374Y-100683925D01*
X191383677Y-100678203D01*
X191410316Y-100596215D01*
X191436942Y-100514270D01*
X191436942Y-100514269D01*
X191438982Y-100507991D01*
X191444858Y-100452091D01*
X191457000Y-100336565D01*
X191457690Y-100330000D01*
X191455574Y-100309867D01*
X191439672Y-100158573D01*
X191439672Y-100158572D01*
X191438982Y-100152009D01*
X191383677Y-99981797D01*
X191294191Y-99826803D01*
X191205974Y-99728827D01*
X191178858Y-99698712D01*
X191178857Y-99698711D01*
X191174436Y-99693801D01*
X191155608Y-99680121D01*
X191034987Y-99592485D01*
X191034986Y-99592484D01*
X191029645Y-99588604D01*
X191023617Y-99585920D01*
X191023615Y-99585919D01*
X190872177Y-99518495D01*
X190872176Y-99518495D01*
X190866146Y-99515810D01*
X190778616Y-99497205D01*
X190697543Y-99479972D01*
X190697539Y-99479972D01*
X190691086Y-99478600D01*
X190512114Y-99478600D01*
X190505661Y-99479972D01*
X190505657Y-99479972D01*
X190424584Y-99497205D01*
X190337054Y-99515810D01*
X190331024Y-99518495D01*
X190331023Y-99518495D01*
X190179585Y-99585919D01*
X190179583Y-99585920D01*
X190173555Y-99588604D01*
X190168214Y-99592484D01*
X190168213Y-99592485D01*
X190047593Y-99680121D01*
X190028764Y-99693801D01*
X190024789Y-99698215D01*
X189961006Y-99728827D01*
X189890552Y-99720065D01*
X189836020Y-99674603D01*
X189814700Y-99604474D01*
X189814700Y-98912969D01*
X189834702Y-98844848D01*
X189847058Y-98828665D01*
X189871791Y-98801197D01*
X189961277Y-98646203D01*
X190016582Y-98475991D01*
X190025618Y-98390024D01*
X190052632Y-98324367D01*
X190061833Y-98314100D01*
X192671483Y-95704450D01*
X192679809Y-95696874D01*
X192686303Y-95692753D01*
X192733086Y-95642934D01*
X192735840Y-95640093D01*
X192755639Y-95620294D01*
X192758063Y-95617169D01*
X192758071Y-95617160D01*
X192758137Y-95617074D01*
X192765845Y-95608049D01*
X192790790Y-95581485D01*
X192796217Y-95575706D01*
X192806023Y-95557869D01*
X192816873Y-95541353D01*
X192829350Y-95525267D01*
X192846976Y-95484534D01*
X192852193Y-95473886D01*
X192869749Y-95441951D01*
X192873569Y-95435003D01*
X192875540Y-95427328D01*
X192875542Y-95427322D01*
X192878631Y-95415289D01*
X192885034Y-95396587D01*
X192893117Y-95377908D01*
X192900060Y-95334073D01*
X192902467Y-95322451D01*
X192913500Y-95279482D01*
X192913500Y-95259135D01*
X192915051Y-95239424D01*
X192916995Y-95227150D01*
X192918235Y-95219321D01*
X192914059Y-95175144D01*
X192913500Y-95163286D01*
X192913500Y-71752095D01*
X192914030Y-71740861D01*
X192915708Y-71733356D01*
X192913562Y-71665063D01*
X192913500Y-71661106D01*
X192913500Y-71633092D01*
X192912992Y-71629071D01*
X192912058Y-71617219D01*
X192911750Y-71607396D01*
X192910665Y-71572870D01*
X192904987Y-71553326D01*
X192900977Y-71533963D01*
X192899420Y-71521635D01*
X192899420Y-71521633D01*
X192898427Y-71513776D01*
X192895511Y-71506412D01*
X192895510Y-71506407D01*
X192882093Y-71472519D01*
X192878248Y-71461290D01*
X192868081Y-71426297D01*
X192865869Y-71418682D01*
X192861830Y-71411852D01*
X192855512Y-71401169D01*
X192846812Y-71383411D01*
X192842239Y-71371860D01*
X192842235Y-71371854D01*
X192839319Y-71364487D01*
X192813234Y-71328584D01*
X192806719Y-71318665D01*
X192788174Y-71287307D01*
X192788171Y-71287303D01*
X192784134Y-71280477D01*
X192769750Y-71266093D01*
X192756909Y-71251059D01*
X192749602Y-71241002D01*
X192744942Y-71234588D01*
X192710744Y-71206297D01*
X192701965Y-71198308D01*
X190553253Y-69049595D01*
X190519227Y-68987283D01*
X190524292Y-68916467D01*
X190566839Y-68859632D01*
X190633359Y-68834821D01*
X190642348Y-68834500D01*
X204343500Y-68834500D01*
X204411621Y-68854502D01*
X204458114Y-68908158D01*
X204469500Y-68960500D01*
X204469500Y-117593182D01*
X204449498Y-117661303D01*
X204432595Y-117682277D01*
X202128696Y-119986177D01*
X202119156Y-119993800D01*
X202119470Y-119994168D01*
X202112634Y-119999986D01*
X202105042Y-120004776D01*
X202099100Y-120011504D01*
X202069407Y-120045125D01*
X202064061Y-120050812D01*
X202052618Y-120062255D01*
X202046978Y-120069780D01*
X202046341Y-120070630D01*
X202039967Y-120078459D01*
X202008622Y-120113951D01*
X202004808Y-120122074D01*
X202003174Y-120124562D01*
X201994186Y-120139523D01*
X201992771Y-120142108D01*
X201987384Y-120149295D01*
X201984233Y-120157701D01*
X201970759Y-120193642D01*
X201966833Y-120202958D01*
X201946719Y-120245800D01*
X201945338Y-120254669D01*
X201944472Y-120257502D01*
X201940042Y-120274389D01*
X201939408Y-120277274D01*
X201936255Y-120285684D01*
X201935590Y-120294639D01*
X201932746Y-120332906D01*
X201931592Y-120342952D01*
X201929500Y-120356386D01*
X201929500Y-120371906D01*
X201929154Y-120381243D01*
X201925461Y-120430941D01*
X201927335Y-120439720D01*
X201927898Y-120447978D01*
X201929500Y-120463161D01*
X201929500Y-121031500D01*
X201909498Y-121099621D01*
X201855842Y-121146114D01*
X201803500Y-121157500D01*
X104012500Y-121157500D01*
X103944379Y-121137498D01*
X103897886Y-121083842D01*
X103886500Y-121031500D01*
X103886500Y-118973600D01*
X121470310Y-118973600D01*
X121471000Y-118980165D01*
X121473279Y-119001843D01*
X121489018Y-119151591D01*
X121544323Y-119321803D01*
X121547626Y-119327525D01*
X121547627Y-119327526D01*
X121568925Y-119364415D01*
X121633809Y-119476797D01*
X121753564Y-119609799D01*
X121758906Y-119613680D01*
X121758908Y-119613682D01*
X121893013Y-119711115D01*
X121898355Y-119714996D01*
X121904383Y-119717680D01*
X121904385Y-119717681D01*
X121933485Y-119730637D01*
X122061854Y-119787790D01*
X122149384Y-119806395D01*
X122230457Y-119823628D01*
X122230461Y-119823628D01*
X122236914Y-119825000D01*
X122415886Y-119825000D01*
X122422339Y-119823628D01*
X122422343Y-119823628D01*
X122503416Y-119806395D01*
X122590946Y-119787790D01*
X122719315Y-119730637D01*
X122748415Y-119717681D01*
X122748417Y-119717680D01*
X122754445Y-119714996D01*
X122759787Y-119711115D01*
X122893892Y-119613682D01*
X122893894Y-119613680D01*
X122899236Y-119609799D01*
X123018991Y-119476797D01*
X123083875Y-119364415D01*
X123099779Y-119336868D01*
X129945900Y-119336868D01*
X129949740Y-119382119D01*
X129958190Y-119481705D01*
X129960626Y-119510420D01*
X129961964Y-119515577D01*
X129961965Y-119515580D01*
X130014421Y-119717681D01*
X130019125Y-119735806D01*
X130021317Y-119740672D01*
X130021318Y-119740675D01*
X130042542Y-119787790D01*
X130114762Y-119948113D01*
X130244804Y-120141272D01*
X130248483Y-120145129D01*
X130248485Y-120145131D01*
X130333223Y-120233959D01*
X130405532Y-120309758D01*
X130592350Y-120448754D01*
X130658627Y-120482451D01*
X130794244Y-120551402D01*
X130799916Y-120554286D01*
X130911106Y-120588812D01*
X131017193Y-120621753D01*
X131017199Y-120621754D01*
X131022296Y-120623337D01*
X131146660Y-120639820D01*
X131247848Y-120653232D01*
X131247852Y-120653232D01*
X131253132Y-120653932D01*
X131258462Y-120653732D01*
X131258463Y-120653732D01*
X131369477Y-120649565D01*
X131485822Y-120645197D01*
X131650713Y-120610599D01*
X131708486Y-120598477D01*
X131708489Y-120598476D01*
X131713713Y-120597380D01*
X131930290Y-120511850D01*
X132129359Y-120391051D01*
X132169307Y-120356386D01*
X132301197Y-120241939D01*
X132301199Y-120241937D01*
X132305230Y-120238439D01*
X132308613Y-120234313D01*
X132308617Y-120234309D01*
X132412819Y-120107224D01*
X132452872Y-120058376D01*
X132479122Y-120012261D01*
X132530202Y-119962956D01*
X132599832Y-119949094D01*
X132665904Y-119975077D01*
X132693143Y-120004227D01*
X132782215Y-120136530D01*
X132788876Y-120144816D01*
X132942180Y-120305520D01*
X132950148Y-120312569D01*
X133128336Y-120445144D01*
X133137366Y-120450743D01*
X133335347Y-120551402D01*
X133345208Y-120555405D01*
X133557301Y-120621263D01*
X133567696Y-120623548D01*
X133586041Y-120625980D01*
X133600208Y-120623783D01*
X133604000Y-120610599D01*
X133604000Y-117643512D01*
X133600027Y-117629981D01*
X133589420Y-117628456D01*
X133467657Y-117654004D01*
X133457461Y-117657064D01*
X133250903Y-117738637D01*
X133241366Y-117743371D01*
X133051497Y-117858586D01*
X133042907Y-117864850D01*
X132875163Y-118010411D01*
X132867743Y-118018041D01*
X132726927Y-118189780D01*
X132720898Y-118198551D01*
X132697467Y-118239715D01*
X132646385Y-118289022D01*
X132576755Y-118302884D01*
X132510684Y-118276901D01*
X132483445Y-118247751D01*
X132472978Y-118232204D01*
X132391196Y-118110728D01*
X132383543Y-118102705D01*
X132271945Y-117985721D01*
X132230468Y-117942242D01*
X132043650Y-117803246D01*
X131916574Y-117738637D01*
X131840842Y-117700133D01*
X131840841Y-117700133D01*
X131836084Y-117697714D01*
X131703621Y-117656583D01*
X131618807Y-117630247D01*
X131618801Y-117630246D01*
X131613704Y-117628663D01*
X131489340Y-117612180D01*
X131388152Y-117598768D01*
X131388148Y-117598768D01*
X131382868Y-117598068D01*
X131377538Y-117598268D01*
X131377537Y-117598268D01*
X131266523Y-117602436D01*
X131150178Y-117606803D01*
X131144950Y-117607900D01*
X130927514Y-117653523D01*
X130927511Y-117653524D01*
X130922287Y-117654620D01*
X130705710Y-117740150D01*
X130506641Y-117860949D01*
X130502611Y-117864446D01*
X130339253Y-118006200D01*
X130330770Y-118013561D01*
X130327387Y-118017687D01*
X130327383Y-118017691D01*
X130257677Y-118102705D01*
X130183128Y-118193624D01*
X130180490Y-118198259D01*
X130180487Y-118198263D01*
X130117589Y-118308760D01*
X130067935Y-118395989D01*
X130066114Y-118401005D01*
X130066112Y-118401010D01*
X130006529Y-118565158D01*
X129988485Y-118614869D01*
X129987536Y-118620118D01*
X129987535Y-118620121D01*
X129984612Y-118636285D01*
X129947050Y-118844007D01*
X129945900Y-118868394D01*
X129945900Y-119336868D01*
X123099779Y-119336868D01*
X123105173Y-119327526D01*
X123105174Y-119327525D01*
X123108477Y-119321803D01*
X123163782Y-119151591D01*
X123179522Y-119001843D01*
X123181800Y-118980165D01*
X123182490Y-118973600D01*
X123176066Y-118912483D01*
X123164472Y-118802173D01*
X123164472Y-118802172D01*
X123163782Y-118795609D01*
X123108477Y-118625397D01*
X123104207Y-118618000D01*
X123045428Y-118516194D01*
X123018991Y-118470403D01*
X122899236Y-118337401D01*
X122859816Y-118308760D01*
X122759787Y-118236085D01*
X122759786Y-118236084D01*
X122754445Y-118232204D01*
X122748417Y-118229520D01*
X122748415Y-118229519D01*
X122596977Y-118162095D01*
X122596976Y-118162095D01*
X122590946Y-118159410D01*
X122490450Y-118138049D01*
X122422343Y-118123572D01*
X122422339Y-118123572D01*
X122415886Y-118122200D01*
X122236914Y-118122200D01*
X122230461Y-118123572D01*
X122230457Y-118123572D01*
X122162350Y-118138049D01*
X122061854Y-118159410D01*
X122055824Y-118162095D01*
X122055823Y-118162095D01*
X121904385Y-118229519D01*
X121904383Y-118229520D01*
X121898355Y-118232204D01*
X121893014Y-118236084D01*
X121893013Y-118236085D01*
X121792985Y-118308760D01*
X121753564Y-118337401D01*
X121633809Y-118470403D01*
X121607372Y-118516194D01*
X121548594Y-118618000D01*
X121544323Y-118625397D01*
X121489018Y-118795609D01*
X121488328Y-118802172D01*
X121488328Y-118802173D01*
X121476734Y-118912483D01*
X121470310Y-118973600D01*
X103886500Y-118973600D01*
X103886500Y-88239600D01*
X128582310Y-88239600D01*
X128583000Y-88246165D01*
X128592699Y-88338438D01*
X128601018Y-88417591D01*
X128603058Y-88423869D01*
X128603058Y-88423870D01*
X128617072Y-88467001D01*
X128656323Y-88587803D01*
X128659626Y-88593525D01*
X128659627Y-88593526D01*
X128670502Y-88612362D01*
X128745809Y-88742797D01*
X128750227Y-88747704D01*
X128750228Y-88747705D01*
X128826528Y-88832445D01*
X128865564Y-88875799D01*
X128870906Y-88879680D01*
X128870908Y-88879682D01*
X129005013Y-88977115D01*
X129010355Y-88980996D01*
X129016383Y-88983680D01*
X129016385Y-88983681D01*
X129167823Y-89051105D01*
X129173854Y-89053790D01*
X129261384Y-89072395D01*
X129342457Y-89089628D01*
X129342461Y-89089628D01*
X129348914Y-89091000D01*
X129527886Y-89091000D01*
X129534339Y-89089628D01*
X129534343Y-89089628D01*
X129615416Y-89072395D01*
X129702946Y-89053790D01*
X129708977Y-89051105D01*
X129860415Y-88983681D01*
X129860417Y-88983680D01*
X129866445Y-88980996D01*
X129871787Y-88977115D01*
X130005892Y-88879682D01*
X130005894Y-88879680D01*
X130011236Y-88875799D01*
X130050272Y-88832445D01*
X130126572Y-88747705D01*
X130126573Y-88747704D01*
X130130991Y-88742797D01*
X130206298Y-88612362D01*
X130217173Y-88593526D01*
X130217174Y-88593525D01*
X130220477Y-88587803D01*
X130259728Y-88467001D01*
X130273742Y-88423870D01*
X130273742Y-88423869D01*
X130275782Y-88417591D01*
X130284102Y-88338438D01*
X130293800Y-88246165D01*
X130294490Y-88239600D01*
X130275782Y-88061609D01*
X130220477Y-87891397D01*
X130130991Y-87736403D01*
X130063232Y-87661148D01*
X130015658Y-87608312D01*
X130015657Y-87608311D01*
X130011236Y-87603401D01*
X129949568Y-87558596D01*
X129871787Y-87502085D01*
X129871786Y-87502084D01*
X129866445Y-87498204D01*
X129860417Y-87495520D01*
X129860415Y-87495519D01*
X129708977Y-87428095D01*
X129708976Y-87428095D01*
X129702946Y-87425410D01*
X129615416Y-87406805D01*
X129534343Y-87389572D01*
X129534339Y-87389572D01*
X129527886Y-87388200D01*
X129348914Y-87388200D01*
X129342461Y-87389572D01*
X129342457Y-87389572D01*
X129261384Y-87406805D01*
X129173854Y-87425410D01*
X129167824Y-87428095D01*
X129167823Y-87428095D01*
X129016385Y-87495519D01*
X129016383Y-87495520D01*
X129010355Y-87498204D01*
X129005014Y-87502084D01*
X129005013Y-87502085D01*
X128927233Y-87558596D01*
X128865564Y-87603401D01*
X128861143Y-87608311D01*
X128861142Y-87608312D01*
X128813569Y-87661148D01*
X128745809Y-87736403D01*
X128656323Y-87891397D01*
X128601018Y-88061609D01*
X128582310Y-88239600D01*
X103886500Y-88239600D01*
X103886500Y-68960500D01*
X103906502Y-68892379D01*
X103960158Y-68845886D01*
X104012500Y-68834500D01*
X149926577Y-68834500D01*
X149994698Y-68854502D01*
G37*
%TD.AperFunction*%
M02*
