%TF.GenerationSoftware,KiCad,Pcbnew,6.0.9*%
%TF.CreationDate,2022-12-08T19:51:48-08:00*%
%TF.ProjectId,i960SxProcessorMegaShieldFormFactor,69393630-5378-4507-926f-636573736f72,rev?*%
%TF.SameCoordinates,Original*%
%TF.FileFunction,Drillmap*%
%TF.FilePolarity,Positive*%
%FSLAX45Y45*%
G04 Gerber Fmt 4.5, Leading zero omitted, Abs format (unit mm)*
G04 Created by KiCad (PCBNEW 6.0.9) date 2022-12-08 19:51:48*
%MOMM*%
%LPD*%
G01*
G04 APERTURE LIST*
%ADD10C,0.150000*%
%ADD11C,0.200000*%
G04 APERTURE END LIST*
D10*
X20243800Y-12039600D02*
X20243800Y-12166600D01*
X10337800Y-6832600D02*
X20497800Y-6832600D01*
X20497800Y-6832600D02*
X20497800Y-11785600D01*
X10337800Y-12166600D02*
X10337800Y-6832600D01*
X20497800Y-11785600D02*
X20243800Y-12039600D01*
X20243800Y-12166600D02*
X10337800Y-12166600D01*
D11*
X10587919Y-12484576D02*
X10587919Y-12284576D01*
X10635538Y-12284576D01*
X10664110Y-12294100D01*
X10683157Y-12313148D01*
X10692681Y-12332195D01*
X10702205Y-12370290D01*
X10702205Y-12398862D01*
X10692681Y-12436957D01*
X10683157Y-12456005D01*
X10664110Y-12475052D01*
X10635538Y-12484576D01*
X10587919Y-12484576D01*
X10787919Y-12484576D02*
X10787919Y-12351243D01*
X10787919Y-12389338D02*
X10797443Y-12370290D01*
X10806967Y-12360767D01*
X10826014Y-12351243D01*
X10845062Y-12351243D01*
X10911729Y-12484576D02*
X10911729Y-12351243D01*
X10911729Y-12284576D02*
X10902205Y-12294100D01*
X10911729Y-12303624D01*
X10921252Y-12294100D01*
X10911729Y-12284576D01*
X10911729Y-12303624D01*
X11035538Y-12484576D02*
X11016490Y-12475052D01*
X11006967Y-12456005D01*
X11006967Y-12284576D01*
X11140300Y-12484576D02*
X11121252Y-12475052D01*
X11111729Y-12456005D01*
X11111729Y-12284576D01*
X11368871Y-12484576D02*
X11368871Y-12284576D01*
X11435538Y-12427433D01*
X11502205Y-12284576D01*
X11502205Y-12484576D01*
X11683157Y-12484576D02*
X11683157Y-12379814D01*
X11673633Y-12360767D01*
X11654586Y-12351243D01*
X11616490Y-12351243D01*
X11597443Y-12360767D01*
X11683157Y-12475052D02*
X11664109Y-12484576D01*
X11616490Y-12484576D01*
X11597443Y-12475052D01*
X11587919Y-12456005D01*
X11587919Y-12436957D01*
X11597443Y-12417909D01*
X11616490Y-12408386D01*
X11664109Y-12408386D01*
X11683157Y-12398862D01*
X11778395Y-12351243D02*
X11778395Y-12551243D01*
X11778395Y-12360767D02*
X11797443Y-12351243D01*
X11835538Y-12351243D01*
X11854586Y-12360767D01*
X11864109Y-12370290D01*
X11873633Y-12389338D01*
X11873633Y-12446481D01*
X11864109Y-12465528D01*
X11854586Y-12475052D01*
X11835538Y-12484576D01*
X11797443Y-12484576D01*
X11778395Y-12475052D01*
X11959348Y-12465528D02*
X11968871Y-12475052D01*
X11959348Y-12484576D01*
X11949824Y-12475052D01*
X11959348Y-12465528D01*
X11959348Y-12484576D01*
X11959348Y-12360767D02*
X11968871Y-12370290D01*
X11959348Y-12379814D01*
X11949824Y-12370290D01*
X11959348Y-12360767D01*
X11959348Y-12379814D01*
M02*
