%TF.GenerationSoftware,KiCad,Pcbnew,6.0.9*%
%TF.CreationDate,2022-12-08T19:51:45-08:00*%
%TF.ProjectId,i960SxProcessorMegaShieldFormFactor,69393630-5378-4507-926f-636573736f72,rev?*%
%TF.SameCoordinates,Original*%
%TF.FileFunction,Soldermask,Bot*%
%TF.FilePolarity,Negative*%
%FSLAX46Y46*%
G04 Gerber Fmt 4.6, Leading zero omitted, Abs format (unit mm)*
G04 Created by KiCad (PCBNEW 6.0.9) date 2022-12-08 19:51:45*
%MOMM*%
%LPD*%
G01*
G04 APERTURE LIST*
G04 Aperture macros list*
%AMRoundRect*
0 Rectangle with rounded corners*
0 $1 Rounding radius*
0 $2 $3 $4 $5 $6 $7 $8 $9 X,Y pos of 4 corners*
0 Add a 4 corners polygon primitive as box body*
4,1,4,$2,$3,$4,$5,$6,$7,$8,$9,$2,$3,0*
0 Add four circle primitives for the rounded corners*
1,1,$1+$1,$2,$3*
1,1,$1+$1,$4,$5*
1,1,$1+$1,$6,$7*
1,1,$1+$1,$8,$9*
0 Add four rect primitives between the rounded corners*
20,1,$1+$1,$2,$3,$4,$5,0*
20,1,$1+$1,$4,$5,$6,$7,0*
20,1,$1+$1,$6,$7,$8,$9,0*
20,1,$1+$1,$8,$9,$2,$3,0*%
G04 Aperture macros list end*
%ADD10C,1.727200*%
%ADD11O,1.727200X1.727200*%
%ADD12O,1.727200X2.032000*%
%ADD13R,1.422400X1.422400*%
%ADD14C,1.422400*%
%ADD15RoundRect,0.250000X-0.337500X-0.475000X0.337500X-0.475000X0.337500X0.475000X-0.337500X0.475000X0*%
%ADD16RoundRect,0.250000X-0.475000X0.337500X-0.475000X-0.337500X0.475000X-0.337500X0.475000X0.337500X0*%
%ADD17RoundRect,0.250000X0.475000X-0.337500X0.475000X0.337500X-0.475000X0.337500X-0.475000X-0.337500X0*%
%ADD18RoundRect,0.250000X0.337500X0.475000X-0.337500X0.475000X-0.337500X-0.475000X0.337500X-0.475000X0*%
%ADD19RoundRect,0.250000X-0.450000X0.350000X-0.450000X-0.350000X0.450000X-0.350000X0.450000X0.350000X0*%
%ADD20RoundRect,0.250000X0.450000X-0.350000X0.450000X0.350000X-0.450000X0.350000X-0.450000X-0.350000X0*%
G04 APERTURE END LIST*
D10*
X197358000Y-114046000D03*
D11*
X199898000Y-114046000D03*
X197358000Y-111506000D03*
X199898000Y-111506000D03*
X197358000Y-108966000D03*
X199898000Y-108966000D03*
X197358000Y-106426000D03*
X199898000Y-106426000D03*
X197358000Y-103886000D03*
X199898000Y-103886000D03*
X197358000Y-101346000D03*
X199898000Y-101346000D03*
X197358000Y-98806000D03*
X199898000Y-98806000D03*
X197358000Y-96266000D03*
X199898000Y-96266000D03*
X197358000Y-93726000D03*
X199898000Y-93726000D03*
X197358000Y-91186000D03*
X199898000Y-91186000D03*
X197358000Y-88646000D03*
X199898000Y-88646000D03*
X197358000Y-86106000D03*
X199898000Y-86106000D03*
X197358000Y-83566000D03*
X199898000Y-83566000D03*
X197358000Y-81026000D03*
X199898000Y-81026000D03*
X197358000Y-78486000D03*
X199898000Y-78486000D03*
X197358000Y-75946000D03*
X199898000Y-75946000D03*
X197358000Y-73406000D03*
X199898000Y-73406000D03*
X197358000Y-70866000D03*
X199898000Y-70866000D03*
D12*
X131318000Y-119126000D03*
X133858000Y-119126000D03*
X136398000Y-119126000D03*
X138938000Y-119126000D03*
X141478000Y-119126000D03*
X144018000Y-119126000D03*
X146558000Y-119126000D03*
X149098000Y-119126000D03*
X154178000Y-119126000D03*
X156718000Y-119126000D03*
X159258000Y-119126000D03*
X161798000Y-119126000D03*
X164338000Y-119126000D03*
X166878000Y-119126000D03*
X169418000Y-119126000D03*
X171958000Y-119126000D03*
X177038000Y-119126000D03*
X179578000Y-119126000D03*
X182118000Y-119126000D03*
X184658000Y-119126000D03*
X187198000Y-119126000D03*
X189738000Y-119126000D03*
X192278000Y-119126000D03*
X194818000Y-119126000D03*
X122174000Y-70866000D03*
X124714000Y-70866000D03*
X127254000Y-70866000D03*
X129794000Y-70866000D03*
X132334000Y-70866000D03*
X134874000Y-70866000D03*
X137414000Y-70866000D03*
X139954000Y-70866000D03*
X142494000Y-70866000D03*
X145034000Y-70866000D03*
X149098000Y-70866000D03*
X151638000Y-70866000D03*
X154178000Y-70866000D03*
X156718000Y-70866000D03*
X159258000Y-70866000D03*
X161798000Y-70866000D03*
X164338000Y-70866000D03*
X166878000Y-70866000D03*
X171958000Y-70866000D03*
X174498000Y-70866000D03*
X177038000Y-70866000D03*
X179578000Y-70866000D03*
X182118000Y-70866000D03*
X184658000Y-70866000D03*
X187198000Y-70866000D03*
X189738000Y-70866000D03*
D13*
X131470401Y-94589599D03*
D14*
X134010401Y-94589599D03*
X131470401Y-97129599D03*
X134010401Y-97129599D03*
X131470401Y-99669599D03*
X134010401Y-99669599D03*
X131470401Y-102209599D03*
X134010401Y-102209599D03*
X131470401Y-104749599D03*
X134010401Y-104749599D03*
X131470401Y-107289599D03*
X134010401Y-109829599D03*
X134010401Y-107289599D03*
X136550401Y-109829599D03*
X136550401Y-107289599D03*
X139090401Y-109829599D03*
X139090401Y-107289599D03*
X141630401Y-109829599D03*
X141630401Y-107289599D03*
X144170401Y-109829599D03*
X144170401Y-107289599D03*
X146710401Y-109829599D03*
X146710401Y-107289599D03*
X149250401Y-109829599D03*
X149250401Y-107289599D03*
X151790401Y-109829599D03*
X151790401Y-107289599D03*
X154330401Y-109829599D03*
X154330401Y-107289599D03*
X156870401Y-109829599D03*
X156870401Y-107289599D03*
X159410401Y-109829599D03*
X161950401Y-107289599D03*
X159410401Y-107289599D03*
X161950401Y-104749599D03*
X159410401Y-104749599D03*
X161950401Y-102209599D03*
X159410401Y-102209599D03*
X161950401Y-99669599D03*
X159410401Y-99669599D03*
X161950401Y-97129599D03*
X159410401Y-97129599D03*
X161950401Y-94589599D03*
X159410401Y-94589599D03*
X161950401Y-92049599D03*
X159410401Y-92049599D03*
X161950401Y-89509599D03*
X159410401Y-89509599D03*
X161950401Y-86969599D03*
X159410401Y-86969599D03*
X161950401Y-84429599D03*
X159410401Y-84429599D03*
X161950401Y-81889599D03*
X159410401Y-79349599D03*
X159410401Y-81889599D03*
X156870401Y-79349599D03*
X156870401Y-81889599D03*
X154330401Y-79349599D03*
X154330401Y-81889599D03*
X151790401Y-79349599D03*
X151790401Y-81889599D03*
X149250401Y-79349599D03*
X149250401Y-81889599D03*
X146710401Y-79349599D03*
X146710401Y-81889599D03*
X144170401Y-79349599D03*
X144170401Y-81889599D03*
X141630401Y-79349599D03*
X141630401Y-81889599D03*
X139090401Y-79349599D03*
X139090401Y-81889599D03*
X136550401Y-79349599D03*
X136550401Y-81889599D03*
X134010401Y-79349599D03*
X131470401Y-81889599D03*
X134010401Y-81889599D03*
X131470401Y-84429599D03*
X134010401Y-84429599D03*
X131470401Y-86969599D03*
X134010401Y-86969599D03*
X131470401Y-89509599D03*
X134010401Y-89509599D03*
X131470401Y-92049599D03*
X134010401Y-92049599D03*
D15*
X139373701Y-104983279D03*
X141448701Y-104983279D03*
D16*
X164183061Y-109416759D03*
X164183061Y-107341759D03*
D15*
X156762361Y-111831119D03*
X154687361Y-111831119D03*
D16*
X136245601Y-99678579D03*
X136245601Y-101753579D03*
D17*
X161973261Y-79947679D03*
X161973261Y-77872679D03*
D15*
X144148901Y-104932479D03*
X146223901Y-104932479D03*
D16*
X134015481Y-75218379D03*
X134015481Y-77293379D03*
D18*
X149302381Y-77147419D03*
X147227381Y-77147419D03*
D17*
X157073601Y-91542779D03*
X157073601Y-89467779D03*
D19*
X139113261Y-86788499D03*
X139113261Y-84788499D03*
D17*
X136296401Y-94285979D03*
X136296401Y-92210979D03*
D16*
X136583421Y-77293379D03*
X136583421Y-75218379D03*
D20*
X151815801Y-86788499D03*
X151815801Y-84788499D03*
X154350721Y-86788499D03*
X154350721Y-84788499D03*
X156867861Y-86788499D03*
X156867861Y-84788499D03*
D16*
X157073601Y-94598579D03*
X157073601Y-96673579D03*
M02*
