%TF.GenerationSoftware,KiCad,Pcbnew,6.0.9*%
%TF.CreationDate,2022-12-08T19:51:48-08:00*%
%TF.ProjectId,i960SxProcessorMegaShieldFormFactor,69393630-5378-4507-926f-636573736f72,rev?*%
%TF.SameCoordinates,Original*%
%TF.FileFunction,Drillmap*%
%TF.FilePolarity,Positive*%
%FSLAX45Y45*%
G04 Gerber Fmt 4.5, Leading zero omitted, Abs format (unit mm)*
G04 Created by KiCad (PCBNEW 6.0.9) date 2022-12-08 19:51:48*
%MOMM*%
%LPD*%
G01*
G04 APERTURE LIST*
%ADD10C,0.150000*%
%ADD11C,0.200000*%
%ADD12C,0.033020*%
%ADD13C,0.080000*%
%ADD14C,0.101600*%
G04 APERTURE END LIST*
D10*
X20243800Y-12039600D02*
X20243800Y-12166600D01*
X10337800Y-6832600D02*
X20497800Y-6832600D01*
X20497800Y-6832600D02*
X20497800Y-11785600D01*
X10337800Y-12166600D02*
X10337800Y-6832600D01*
X20497800Y-11785600D02*
X20243800Y-12039600D01*
X20243800Y-12166600D02*
X10337800Y-12166600D01*
D11*
D12*
X12216130Y-11880850D02*
X12249150Y-11913870D01*
X12249150Y-11880850D02*
X12216130Y-11913870D01*
X12851130Y-8528050D02*
X12884150Y-8561070D01*
X12884150Y-8528050D02*
X12851130Y-8561070D01*
X12927330Y-8807450D02*
X12960350Y-8840470D01*
X12960350Y-8807450D02*
X12927330Y-8840470D01*
X13176250Y-7715250D02*
X13209270Y-7748270D01*
X13209270Y-7715250D02*
X13176250Y-7748270D01*
X13385038Y-7505328D02*
X13418058Y-7538348D01*
X13418058Y-7505328D02*
X13385038Y-7538348D01*
X13385038Y-7712828D02*
X13418058Y-7745848D01*
X13418058Y-7712828D02*
X13385038Y-7745848D01*
X13521690Y-8807450D02*
X13554710Y-8840470D01*
X13554710Y-8807450D02*
X13521690Y-8840470D01*
X13547090Y-8558530D02*
X13580110Y-8591550D01*
X13580110Y-8558530D02*
X13547090Y-8591550D01*
X13608050Y-9951348D02*
X13641070Y-9984368D01*
X13641070Y-9951348D02*
X13608050Y-9984368D01*
X13613130Y-9412088D02*
X13646150Y-9445108D01*
X13646150Y-9412088D02*
X13613130Y-9445108D01*
X13641832Y-7712828D02*
X13674852Y-7745848D01*
X13674852Y-7712828D02*
X13641832Y-7745848D01*
X13646082Y-7509578D02*
X13679102Y-7542598D01*
X13679102Y-7509578D02*
X13646082Y-7542598D01*
X13892530Y-8665210D02*
X13925550Y-8698230D01*
X13925550Y-8665210D02*
X13892530Y-8698230D01*
X13920860Y-10481818D02*
X13953880Y-10514838D01*
X13953880Y-10481818D02*
X13920860Y-10514838D01*
X14398380Y-10476738D02*
X14431400Y-10509758D01*
X14431400Y-10476738D02*
X14398380Y-10509758D01*
X14913728Y-7698232D02*
X14946748Y-7731252D01*
X14946748Y-7698232D02*
X14913728Y-7731252D01*
X15106650Y-11845290D02*
X15139670Y-11878310D01*
X15139670Y-11845290D02*
X15106650Y-11878310D01*
X15167610Y-8665210D02*
X15200630Y-8698230D01*
X15200630Y-8665210D02*
X15167610Y-8698230D01*
X15421610Y-8665210D02*
X15454630Y-8698230D01*
X15454630Y-8665210D02*
X15421610Y-8698230D01*
X15670530Y-8665210D02*
X15703550Y-8698230D01*
X15703550Y-8665210D02*
X15670530Y-8698230D01*
X15690850Y-9137768D02*
X15723870Y-9170788D01*
X15723870Y-9137768D02*
X15690850Y-9170788D01*
X15690850Y-9443348D02*
X15723870Y-9476368D01*
X15723870Y-9443348D02*
X15690850Y-9476368D01*
X16422370Y-8172450D02*
X16455390Y-8205470D01*
X16455390Y-8172450D02*
X16422370Y-8205470D01*
X16910050Y-7070090D02*
X16943070Y-7103110D01*
X16943070Y-7070090D02*
X16910050Y-7103110D01*
X16930370Y-9579610D02*
X16963390Y-9612630D01*
X16963390Y-9579610D02*
X16930370Y-9612630D01*
X17616170Y-10001250D02*
X17649190Y-10034270D01*
X17649190Y-10001250D02*
X17616170Y-10034270D01*
X17626330Y-10864850D02*
X17659350Y-10897870D01*
X17659350Y-10864850D02*
X17626330Y-10897870D01*
X17649784Y-8604944D02*
X17682804Y-8637964D01*
X17682804Y-8604944D02*
X17649784Y-8637964D01*
X17649931Y-8686174D02*
X17682951Y-8719194D01*
X17682951Y-8686174D02*
X17649931Y-8719194D01*
X17650149Y-8767404D02*
X17683169Y-8800424D01*
X17683169Y-8767404D02*
X17650149Y-8800424D01*
X17650671Y-8361953D02*
X17683691Y-8394973D01*
X17683691Y-8361953D02*
X17650671Y-8394973D01*
X17652814Y-8118701D02*
X17685834Y-8151721D01*
X17685834Y-8118701D02*
X17652814Y-8151721D01*
X17653948Y-8200672D02*
X17686968Y-8233692D01*
X17686968Y-8200672D02*
X17653948Y-8233692D01*
X17655527Y-8848456D02*
X17688547Y-8881476D01*
X17688547Y-8848456D02*
X17655527Y-8881476D01*
X17656595Y-8032720D02*
X17689615Y-8065740D01*
X17689615Y-8032720D02*
X17656595Y-8065740D01*
X17657413Y-8442903D02*
X17690433Y-8475923D01*
X17690433Y-8442903D02*
X17657413Y-8475923D01*
X17658013Y-8524131D02*
X17691033Y-8557151D01*
X17691033Y-8524131D02*
X17658013Y-8557151D01*
X17661890Y-9107170D02*
X17694910Y-9140190D01*
X17694910Y-9107170D02*
X17661890Y-9140190D01*
X17661940Y-8281509D02*
X17694960Y-8314529D01*
X17694960Y-8281509D02*
X17661940Y-8314529D01*
X17662317Y-8929402D02*
X17695337Y-8962422D01*
X17695337Y-8929402D02*
X17662317Y-8962422D01*
X17663785Y-9012278D02*
X17696805Y-9045298D01*
X17696805Y-9012278D02*
X17663785Y-9045298D01*
X17666219Y-7952062D02*
X17699239Y-7985082D01*
X17699239Y-7952062D02*
X17666219Y-7985082D01*
X17666970Y-7811770D02*
X17699990Y-7844790D01*
X17699990Y-7811770D02*
X17666970Y-7844790D01*
X17753330Y-9635490D02*
X17786350Y-9668510D01*
X17786350Y-9635490D02*
X17753330Y-9668510D01*
X17753330Y-11042650D02*
X17786350Y-11075670D01*
X17786350Y-11042650D02*
X17753330Y-11075670D01*
X17763490Y-8050530D02*
X17796510Y-8083550D01*
X17796510Y-8050530D02*
X17763490Y-8083550D01*
X17778730Y-8898890D02*
X17811750Y-8931910D01*
X17811750Y-8898890D02*
X17778730Y-8931910D01*
X17809210Y-7801610D02*
X17842230Y-7834630D01*
X17842230Y-7801610D02*
X17809210Y-7834630D01*
X17809210Y-9112250D02*
X17842230Y-9145270D01*
X17842230Y-9112250D02*
X17809210Y-9145270D01*
X17969620Y-9234170D02*
X18002640Y-9267190D01*
X18002640Y-9234170D02*
X17969620Y-9267190D01*
X17970695Y-7711245D02*
X18003715Y-7744265D01*
X18003715Y-7711245D02*
X17970695Y-7744265D01*
X18177120Y-7710170D02*
X18210140Y-7743190D01*
X18210140Y-7710170D02*
X18177120Y-7743190D01*
X18177120Y-9234170D02*
X18210140Y-9267190D01*
X18210140Y-9234170D02*
X18177120Y-9267190D01*
X18186870Y-9680010D02*
X18219890Y-9713030D01*
X18219890Y-9680010D02*
X18186870Y-9713030D01*
X18186870Y-11198930D02*
X18219890Y-11231950D01*
X18219890Y-11198930D02*
X18186870Y-11231950D01*
X18533500Y-7715250D02*
X18566520Y-7748270D01*
X18566520Y-7715250D02*
X18533500Y-7748270D01*
X18538170Y-9685090D02*
X18571190Y-9718110D01*
X18571190Y-9685090D02*
X18538170Y-9718110D01*
X18538580Y-9234170D02*
X18571600Y-9267190D01*
X18571600Y-9234170D02*
X18538580Y-9267190D01*
X18543250Y-11198930D02*
X18576270Y-11231950D01*
X18576270Y-11198930D02*
X18543250Y-11231950D01*
X18741000Y-7715250D02*
X18774020Y-7748270D01*
X18774020Y-7715250D02*
X18741000Y-7748270D01*
X18745005Y-9233095D02*
X18778025Y-9266115D01*
X18778025Y-9233095D02*
X18745005Y-9266115D01*
X18745670Y-9685090D02*
X18778690Y-9718110D01*
X18778690Y-9685090D02*
X18745670Y-9718110D01*
X18750750Y-11198930D02*
X18783770Y-11231950D01*
X18783770Y-11198930D02*
X18750750Y-11231950D01*
X18901410Y-9813290D02*
X18934430Y-9846310D01*
X18934430Y-9813290D02*
X18901410Y-9846310D01*
X18901410Y-11068050D02*
X18934430Y-11101070D01*
X18934430Y-11068050D02*
X18901410Y-11101070D01*
X18916650Y-7806690D02*
X18949670Y-7839710D01*
X18949670Y-7806690D02*
X18916650Y-7839710D01*
X18916650Y-9107170D02*
X18949670Y-9140190D01*
X18949670Y-9107170D02*
X18916650Y-9140190D01*
X19008090Y-10864850D02*
X19041110Y-10897870D01*
X19041110Y-10864850D02*
X19008090Y-10897870D01*
X19023330Y-8893810D02*
X19056350Y-8926830D01*
X19056350Y-8893810D02*
X19023330Y-8926830D01*
X19043650Y-10016490D02*
X19076670Y-10049510D01*
X19076670Y-10016490D02*
X19043650Y-10049510D01*
X19063970Y-8050530D02*
X19096990Y-8083550D01*
X19096990Y-8050530D02*
X19063970Y-8083550D01*
D13*
X13187040Y-8188960D02*
G75*
G03*
X13187040Y-8188960I-40000J0D01*
G01*
X13187040Y-8442960D02*
G75*
G03*
X13187040Y-8442960I-40000J0D01*
G01*
X13187040Y-8696960D02*
G75*
G03*
X13187040Y-8696960I-40000J0D01*
G01*
X13187040Y-8950960D02*
G75*
G03*
X13187040Y-8950960I-40000J0D01*
G01*
X13187040Y-9204960D02*
G75*
G03*
X13187040Y-9204960I-40000J0D01*
G01*
X13187040Y-9458960D02*
G75*
G03*
X13187040Y-9458960I-40000J0D01*
G01*
X13187040Y-9712960D02*
G75*
G03*
X13187040Y-9712960I-40000J0D01*
G01*
X13187040Y-9966960D02*
G75*
G03*
X13187040Y-9966960I-40000J0D01*
G01*
X13187040Y-10220960D02*
G75*
G03*
X13187040Y-10220960I-40000J0D01*
G01*
X13187040Y-10474960D02*
G75*
G03*
X13187040Y-10474960I-40000J0D01*
G01*
X13187040Y-10728960D02*
G75*
G03*
X13187040Y-10728960I-40000J0D01*
G01*
X13441040Y-7934960D02*
G75*
G03*
X13441040Y-7934960I-40000J0D01*
G01*
X13441040Y-8188960D02*
G75*
G03*
X13441040Y-8188960I-40000J0D01*
G01*
X13441040Y-8442960D02*
G75*
G03*
X13441040Y-8442960I-40000J0D01*
G01*
X13441040Y-8696960D02*
G75*
G03*
X13441040Y-8696960I-40000J0D01*
G01*
X13441040Y-8950960D02*
G75*
G03*
X13441040Y-8950960I-40000J0D01*
G01*
X13441040Y-9204960D02*
G75*
G03*
X13441040Y-9204960I-40000J0D01*
G01*
X13441040Y-9458960D02*
G75*
G03*
X13441040Y-9458960I-40000J0D01*
G01*
X13441040Y-9712960D02*
G75*
G03*
X13441040Y-9712960I-40000J0D01*
G01*
X13441040Y-9966960D02*
G75*
G03*
X13441040Y-9966960I-40000J0D01*
G01*
X13441040Y-10220960D02*
G75*
G03*
X13441040Y-10220960I-40000J0D01*
G01*
X13441040Y-10474960D02*
G75*
G03*
X13441040Y-10474960I-40000J0D01*
G01*
X13441040Y-10728960D02*
G75*
G03*
X13441040Y-10728960I-40000J0D01*
G01*
X13441040Y-10982960D02*
G75*
G03*
X13441040Y-10982960I-40000J0D01*
G01*
X13695040Y-7934960D02*
G75*
G03*
X13695040Y-7934960I-40000J0D01*
G01*
X13695040Y-8188960D02*
G75*
G03*
X13695040Y-8188960I-40000J0D01*
G01*
X13695040Y-10728960D02*
G75*
G03*
X13695040Y-10728960I-40000J0D01*
G01*
X13695040Y-10982960D02*
G75*
G03*
X13695040Y-10982960I-40000J0D01*
G01*
X13949040Y-7934960D02*
G75*
G03*
X13949040Y-7934960I-40000J0D01*
G01*
X13949040Y-8188960D02*
G75*
G03*
X13949040Y-8188960I-40000J0D01*
G01*
X13949040Y-10728960D02*
G75*
G03*
X13949040Y-10728960I-40000J0D01*
G01*
X13949040Y-10982960D02*
G75*
G03*
X13949040Y-10982960I-40000J0D01*
G01*
X14203040Y-7934960D02*
G75*
G03*
X14203040Y-7934960I-40000J0D01*
G01*
X14203040Y-8188960D02*
G75*
G03*
X14203040Y-8188960I-40000J0D01*
G01*
X14203040Y-10728960D02*
G75*
G03*
X14203040Y-10728960I-40000J0D01*
G01*
X14203040Y-10982960D02*
G75*
G03*
X14203040Y-10982960I-40000J0D01*
G01*
X14457040Y-7934960D02*
G75*
G03*
X14457040Y-7934960I-40000J0D01*
G01*
X14457040Y-8188960D02*
G75*
G03*
X14457040Y-8188960I-40000J0D01*
G01*
X14457040Y-10728960D02*
G75*
G03*
X14457040Y-10728960I-40000J0D01*
G01*
X14457040Y-10982960D02*
G75*
G03*
X14457040Y-10982960I-40000J0D01*
G01*
X14711040Y-7934960D02*
G75*
G03*
X14711040Y-7934960I-40000J0D01*
G01*
X14711040Y-8188960D02*
G75*
G03*
X14711040Y-8188960I-40000J0D01*
G01*
X14711040Y-10728960D02*
G75*
G03*
X14711040Y-10728960I-40000J0D01*
G01*
X14711040Y-10982960D02*
G75*
G03*
X14711040Y-10982960I-40000J0D01*
G01*
X14965040Y-7934960D02*
G75*
G03*
X14965040Y-7934960I-40000J0D01*
G01*
X14965040Y-8188960D02*
G75*
G03*
X14965040Y-8188960I-40000J0D01*
G01*
X14965040Y-10728960D02*
G75*
G03*
X14965040Y-10728960I-40000J0D01*
G01*
X14965040Y-10982960D02*
G75*
G03*
X14965040Y-10982960I-40000J0D01*
G01*
X15219040Y-7934960D02*
G75*
G03*
X15219040Y-7934960I-40000J0D01*
G01*
X15219040Y-8188960D02*
G75*
G03*
X15219040Y-8188960I-40000J0D01*
G01*
X15219040Y-10728960D02*
G75*
G03*
X15219040Y-10728960I-40000J0D01*
G01*
X15219040Y-10982960D02*
G75*
G03*
X15219040Y-10982960I-40000J0D01*
G01*
X15473040Y-7934960D02*
G75*
G03*
X15473040Y-7934960I-40000J0D01*
G01*
X15473040Y-8188960D02*
G75*
G03*
X15473040Y-8188960I-40000J0D01*
G01*
X15473040Y-10728960D02*
G75*
G03*
X15473040Y-10728960I-40000J0D01*
G01*
X15473040Y-10982960D02*
G75*
G03*
X15473040Y-10982960I-40000J0D01*
G01*
X15727040Y-7934960D02*
G75*
G03*
X15727040Y-7934960I-40000J0D01*
G01*
X15727040Y-8188960D02*
G75*
G03*
X15727040Y-8188960I-40000J0D01*
G01*
X15727040Y-10728960D02*
G75*
G03*
X15727040Y-10728960I-40000J0D01*
G01*
X15727040Y-10982960D02*
G75*
G03*
X15727040Y-10982960I-40000J0D01*
G01*
X15981040Y-7934960D02*
G75*
G03*
X15981040Y-7934960I-40000J0D01*
G01*
X15981040Y-8188960D02*
G75*
G03*
X15981040Y-8188960I-40000J0D01*
G01*
X15981040Y-8442960D02*
G75*
G03*
X15981040Y-8442960I-40000J0D01*
G01*
X15981040Y-8696960D02*
G75*
G03*
X15981040Y-8696960I-40000J0D01*
G01*
X15981040Y-8950960D02*
G75*
G03*
X15981040Y-8950960I-40000J0D01*
G01*
X15981040Y-9204960D02*
G75*
G03*
X15981040Y-9204960I-40000J0D01*
G01*
X15981040Y-9458960D02*
G75*
G03*
X15981040Y-9458960I-40000J0D01*
G01*
X15981040Y-9712960D02*
G75*
G03*
X15981040Y-9712960I-40000J0D01*
G01*
X15981040Y-9966960D02*
G75*
G03*
X15981040Y-9966960I-40000J0D01*
G01*
X15981040Y-10220960D02*
G75*
G03*
X15981040Y-10220960I-40000J0D01*
G01*
X15981040Y-10474960D02*
G75*
G03*
X15981040Y-10474960I-40000J0D01*
G01*
X15981040Y-10728960D02*
G75*
G03*
X15981040Y-10728960I-40000J0D01*
G01*
X15981040Y-10982960D02*
G75*
G03*
X15981040Y-10982960I-40000J0D01*
G01*
X16235040Y-8188960D02*
G75*
G03*
X16235040Y-8188960I-40000J0D01*
G01*
X16235040Y-8442960D02*
G75*
G03*
X16235040Y-8442960I-40000J0D01*
G01*
X16235040Y-8696960D02*
G75*
G03*
X16235040Y-8696960I-40000J0D01*
G01*
X16235040Y-8950960D02*
G75*
G03*
X16235040Y-8950960I-40000J0D01*
G01*
X16235040Y-9204960D02*
G75*
G03*
X16235040Y-9204960I-40000J0D01*
G01*
X16235040Y-9458960D02*
G75*
G03*
X16235040Y-9458960I-40000J0D01*
G01*
X16235040Y-9712960D02*
G75*
G03*
X16235040Y-9712960I-40000J0D01*
G01*
X16235040Y-9966960D02*
G75*
G03*
X16235040Y-9966960I-40000J0D01*
G01*
X16235040Y-10220960D02*
G75*
G03*
X16235040Y-10220960I-40000J0D01*
G01*
X16235040Y-10474960D02*
G75*
G03*
X16235040Y-10474960I-40000J0D01*
G01*
X16235040Y-10728960D02*
G75*
G03*
X16235040Y-10728960I-40000J0D01*
G01*
D14*
X12217400Y-7035800D02*
X12217400Y-7137400D01*
X12166600Y-7086600D02*
X12268200Y-7086600D01*
X12471400Y-7035800D02*
X12471400Y-7137400D01*
X12420600Y-7086600D02*
X12522200Y-7086600D01*
X12725400Y-7035800D02*
X12725400Y-7137400D01*
X12674600Y-7086600D02*
X12776200Y-7086600D01*
X12979400Y-7035800D02*
X12979400Y-7137400D01*
X12928600Y-7086600D02*
X13030200Y-7086600D01*
X13131800Y-11861800D02*
X13131800Y-11963400D01*
X13081000Y-11912600D02*
X13182600Y-11912600D01*
X13233400Y-7035800D02*
X13233400Y-7137400D01*
X13182600Y-7086600D02*
X13284200Y-7086600D01*
X13385800Y-11861800D02*
X13385800Y-11963400D01*
X13335000Y-11912600D02*
X13436600Y-11912600D01*
X13487400Y-7035800D02*
X13487400Y-7137400D01*
X13436600Y-7086600D02*
X13538200Y-7086600D01*
X13639800Y-11861800D02*
X13639800Y-11963400D01*
X13589000Y-11912600D02*
X13690600Y-11912600D01*
X13741400Y-7035800D02*
X13741400Y-7137400D01*
X13690600Y-7086600D02*
X13792200Y-7086600D01*
X13893800Y-11861800D02*
X13893800Y-11963400D01*
X13843000Y-11912600D02*
X13944600Y-11912600D01*
X13995400Y-7035800D02*
X13995400Y-7137400D01*
X13944600Y-7086600D02*
X14046200Y-7086600D01*
X14147800Y-11861800D02*
X14147800Y-11963400D01*
X14097000Y-11912600D02*
X14198600Y-11912600D01*
X14249400Y-7035800D02*
X14249400Y-7137400D01*
X14198600Y-7086600D02*
X14300200Y-7086600D01*
X14401800Y-11861800D02*
X14401800Y-11963400D01*
X14351000Y-11912600D02*
X14452600Y-11912600D01*
X14503400Y-7035800D02*
X14503400Y-7137400D01*
X14452600Y-7086600D02*
X14554200Y-7086600D01*
X14655800Y-11861800D02*
X14655800Y-11963400D01*
X14605000Y-11912600D02*
X14706600Y-11912600D01*
X14909800Y-7035800D02*
X14909800Y-7137400D01*
X14859000Y-7086600D02*
X14960600Y-7086600D01*
X14909800Y-11861800D02*
X14909800Y-11963400D01*
X14859000Y-11912600D02*
X14960600Y-11912600D01*
X15163800Y-7035800D02*
X15163800Y-7137400D01*
X15113000Y-7086600D02*
X15214600Y-7086600D01*
X15417800Y-7035800D02*
X15417800Y-7137400D01*
X15367000Y-7086600D02*
X15468600Y-7086600D01*
X15417800Y-11861800D02*
X15417800Y-11963400D01*
X15367000Y-11912600D02*
X15468600Y-11912600D01*
X15671800Y-7035800D02*
X15671800Y-7137400D01*
X15621000Y-7086600D02*
X15722600Y-7086600D01*
X15671800Y-11861800D02*
X15671800Y-11963400D01*
X15621000Y-11912600D02*
X15722600Y-11912600D01*
X15925800Y-7035800D02*
X15925800Y-7137400D01*
X15875000Y-7086600D02*
X15976600Y-7086600D01*
X15925800Y-11861800D02*
X15925800Y-11963400D01*
X15875000Y-11912600D02*
X15976600Y-11912600D01*
X16179800Y-7035800D02*
X16179800Y-7137400D01*
X16129000Y-7086600D02*
X16230600Y-7086600D01*
X16179800Y-11861800D02*
X16179800Y-11963400D01*
X16129000Y-11912600D02*
X16230600Y-11912600D01*
X16433800Y-7035800D02*
X16433800Y-7137400D01*
X16383000Y-7086600D02*
X16484600Y-7086600D01*
X16433800Y-11861800D02*
X16433800Y-11963400D01*
X16383000Y-11912600D02*
X16484600Y-11912600D01*
X16687800Y-7035800D02*
X16687800Y-7137400D01*
X16637000Y-7086600D02*
X16738600Y-7086600D01*
X16687800Y-11861800D02*
X16687800Y-11963400D01*
X16637000Y-11912600D02*
X16738600Y-11912600D01*
X16941800Y-11861800D02*
X16941800Y-11963400D01*
X16891000Y-11912600D02*
X16992600Y-11912600D01*
X17195800Y-7035800D02*
X17195800Y-7137400D01*
X17145000Y-7086600D02*
X17246600Y-7086600D01*
X17195800Y-11861800D02*
X17195800Y-11963400D01*
X17145000Y-11912600D02*
X17246600Y-11912600D01*
X17449800Y-7035800D02*
X17449800Y-7137400D01*
X17399000Y-7086600D02*
X17500600Y-7086600D01*
X17703800Y-7035800D02*
X17703800Y-7137400D01*
X17653000Y-7086600D02*
X17754600Y-7086600D01*
X17703800Y-11861800D02*
X17703800Y-11963400D01*
X17653000Y-11912600D02*
X17754600Y-11912600D01*
X17957800Y-7035800D02*
X17957800Y-7137400D01*
X17907000Y-7086600D02*
X18008600Y-7086600D01*
X17957800Y-11861800D02*
X17957800Y-11963400D01*
X17907000Y-11912600D02*
X18008600Y-11912600D01*
X18211800Y-7035800D02*
X18211800Y-7137400D01*
X18161000Y-7086600D02*
X18262600Y-7086600D01*
X18211800Y-11861800D02*
X18211800Y-11963400D01*
X18161000Y-11912600D02*
X18262600Y-11912600D01*
X18465800Y-7035800D02*
X18465800Y-7137400D01*
X18415000Y-7086600D02*
X18516600Y-7086600D01*
X18465800Y-11861800D02*
X18465800Y-11963400D01*
X18415000Y-11912600D02*
X18516600Y-11912600D01*
X18719800Y-7035800D02*
X18719800Y-7137400D01*
X18669000Y-7086600D02*
X18770600Y-7086600D01*
X18719800Y-11861800D02*
X18719800Y-11963400D01*
X18669000Y-11912600D02*
X18770600Y-11912600D01*
X18973800Y-7035800D02*
X18973800Y-7137400D01*
X18923000Y-7086600D02*
X19024600Y-7086600D01*
X18973800Y-11861800D02*
X18973800Y-11963400D01*
X18923000Y-11912600D02*
X19024600Y-11912600D01*
X19227800Y-11861800D02*
X19227800Y-11963400D01*
X19177000Y-11912600D02*
X19278600Y-11912600D01*
X19481800Y-11861800D02*
X19481800Y-11963400D01*
X19431000Y-11912600D02*
X19532600Y-11912600D01*
X19735800Y-7035800D02*
X19735800Y-7137400D01*
X19685000Y-7086600D02*
X19786600Y-7086600D01*
X19735800Y-7289800D02*
X19735800Y-7391400D01*
X19685000Y-7340600D02*
X19786600Y-7340600D01*
X19735800Y-7543800D02*
X19735800Y-7645400D01*
X19685000Y-7594600D02*
X19786600Y-7594600D01*
X19735800Y-7797800D02*
X19735800Y-7899400D01*
X19685000Y-7848600D02*
X19786600Y-7848600D01*
X19735800Y-8051800D02*
X19735800Y-8153400D01*
X19685000Y-8102600D02*
X19786600Y-8102600D01*
X19735800Y-8305800D02*
X19735800Y-8407400D01*
X19685000Y-8356600D02*
X19786600Y-8356600D01*
X19735800Y-8559800D02*
X19735800Y-8661400D01*
X19685000Y-8610600D02*
X19786600Y-8610600D01*
X19735800Y-8813800D02*
X19735800Y-8915400D01*
X19685000Y-8864600D02*
X19786600Y-8864600D01*
X19735800Y-9067800D02*
X19735800Y-9169400D01*
X19685000Y-9118600D02*
X19786600Y-9118600D01*
X19735800Y-9321800D02*
X19735800Y-9423400D01*
X19685000Y-9372600D02*
X19786600Y-9372600D01*
X19735800Y-9575800D02*
X19735800Y-9677400D01*
X19685000Y-9626600D02*
X19786600Y-9626600D01*
X19735800Y-9829800D02*
X19735800Y-9931400D01*
X19685000Y-9880600D02*
X19786600Y-9880600D01*
X19735800Y-10083800D02*
X19735800Y-10185400D01*
X19685000Y-10134600D02*
X19786600Y-10134600D01*
X19735800Y-10337800D02*
X19735800Y-10439400D01*
X19685000Y-10388600D02*
X19786600Y-10388600D01*
X19735800Y-10591800D02*
X19735800Y-10693400D01*
X19685000Y-10642600D02*
X19786600Y-10642600D01*
X19735800Y-10845800D02*
X19735800Y-10947400D01*
X19685000Y-10896600D02*
X19786600Y-10896600D01*
X19735800Y-11099800D02*
X19735800Y-11201400D01*
X19685000Y-11150600D02*
X19786600Y-11150600D01*
X19735800Y-11353800D02*
X19735800Y-11455400D01*
X19685000Y-11404600D02*
X19786600Y-11404600D01*
X19989800Y-7035800D02*
X19989800Y-7137400D01*
X19939000Y-7086600D02*
X20040600Y-7086600D01*
X19989800Y-7289800D02*
X19989800Y-7391400D01*
X19939000Y-7340600D02*
X20040600Y-7340600D01*
X19989800Y-7543800D02*
X19989800Y-7645400D01*
X19939000Y-7594600D02*
X20040600Y-7594600D01*
X19989800Y-7797800D02*
X19989800Y-7899400D01*
X19939000Y-7848600D02*
X20040600Y-7848600D01*
X19989800Y-8051800D02*
X19989800Y-8153400D01*
X19939000Y-8102600D02*
X20040600Y-8102600D01*
X19989800Y-8305800D02*
X19989800Y-8407400D01*
X19939000Y-8356600D02*
X20040600Y-8356600D01*
X19989800Y-8559800D02*
X19989800Y-8661400D01*
X19939000Y-8610600D02*
X20040600Y-8610600D01*
X19989800Y-8813800D02*
X19989800Y-8915400D01*
X19939000Y-8864600D02*
X20040600Y-8864600D01*
X19989800Y-9067800D02*
X19989800Y-9169400D01*
X19939000Y-9118600D02*
X20040600Y-9118600D01*
X19989800Y-9321800D02*
X19989800Y-9423400D01*
X19939000Y-9372600D02*
X20040600Y-9372600D01*
X19989800Y-9575800D02*
X19989800Y-9677400D01*
X19939000Y-9626600D02*
X20040600Y-9626600D01*
X19989800Y-9829800D02*
X19989800Y-9931400D01*
X19939000Y-9880600D02*
X20040600Y-9880600D01*
X19989800Y-10083800D02*
X19989800Y-10185400D01*
X19939000Y-10134600D02*
X20040600Y-10134600D01*
X19989800Y-10337800D02*
X19989800Y-10439400D01*
X19939000Y-10388600D02*
X20040600Y-10388600D01*
X19989800Y-10591800D02*
X19989800Y-10693400D01*
X19939000Y-10642600D02*
X20040600Y-10642600D01*
X19989800Y-10845800D02*
X19989800Y-10947400D01*
X19939000Y-10896600D02*
X20040600Y-10896600D01*
X19989800Y-11099800D02*
X19989800Y-11201400D01*
X19939000Y-11150600D02*
X20040600Y-11150600D01*
X19989800Y-11353800D02*
X19989800Y-11455400D01*
X19939000Y-11404600D02*
X20040600Y-11404600D01*
D11*
X10587919Y-12484576D02*
X10587919Y-12284576D01*
X10635538Y-12284576D01*
X10664110Y-12294100D01*
X10683157Y-12313148D01*
X10692681Y-12332195D01*
X10702205Y-12370290D01*
X10702205Y-12398862D01*
X10692681Y-12436957D01*
X10683157Y-12456005D01*
X10664110Y-12475052D01*
X10635538Y-12484576D01*
X10587919Y-12484576D01*
X10787919Y-12484576D02*
X10787919Y-12351243D01*
X10787919Y-12389338D02*
X10797443Y-12370290D01*
X10806967Y-12360767D01*
X10826014Y-12351243D01*
X10845062Y-12351243D01*
X10911729Y-12484576D02*
X10911729Y-12351243D01*
X10911729Y-12284576D02*
X10902205Y-12294100D01*
X10911729Y-12303624D01*
X10921252Y-12294100D01*
X10911729Y-12284576D01*
X10911729Y-12303624D01*
X11035538Y-12484576D02*
X11016490Y-12475052D01*
X11006967Y-12456005D01*
X11006967Y-12284576D01*
X11140300Y-12484576D02*
X11121252Y-12475052D01*
X11111729Y-12456005D01*
X11111729Y-12284576D01*
X11368871Y-12484576D02*
X11368871Y-12284576D01*
X11435538Y-12427433D01*
X11502205Y-12284576D01*
X11502205Y-12484576D01*
X11683157Y-12484576D02*
X11683157Y-12379814D01*
X11673633Y-12360767D01*
X11654586Y-12351243D01*
X11616490Y-12351243D01*
X11597443Y-12360767D01*
X11683157Y-12475052D02*
X11664109Y-12484576D01*
X11616490Y-12484576D01*
X11597443Y-12475052D01*
X11587919Y-12456005D01*
X11587919Y-12436957D01*
X11597443Y-12417909D01*
X11616490Y-12408386D01*
X11664109Y-12408386D01*
X11683157Y-12398862D01*
X11778395Y-12351243D02*
X11778395Y-12551243D01*
X11778395Y-12360767D02*
X11797443Y-12351243D01*
X11835538Y-12351243D01*
X11854586Y-12360767D01*
X11864109Y-12370290D01*
X11873633Y-12389338D01*
X11873633Y-12446481D01*
X11864109Y-12465528D01*
X11854586Y-12475052D01*
X11835538Y-12484576D01*
X11797443Y-12484576D01*
X11778395Y-12475052D01*
X11959348Y-12465528D02*
X11968871Y-12475052D01*
X11959348Y-12484576D01*
X11949824Y-12475052D01*
X11959348Y-12465528D01*
X11959348Y-12484576D01*
X11959348Y-12360767D02*
X11968871Y-12370290D01*
X11959348Y-12379814D01*
X11949824Y-12370290D01*
X11959348Y-12360767D01*
X11959348Y-12379814D01*
D12*
X10297280Y-12797590D02*
X10330300Y-12830610D01*
X10330300Y-12797590D02*
X10297280Y-12830610D01*
D11*
X10626014Y-12704576D02*
X10645062Y-12704576D01*
X10664110Y-12714100D01*
X10673633Y-12723624D01*
X10683157Y-12742671D01*
X10692681Y-12780767D01*
X10692681Y-12828386D01*
X10683157Y-12866481D01*
X10673633Y-12885528D01*
X10664110Y-12895052D01*
X10645062Y-12904576D01*
X10626014Y-12904576D01*
X10606967Y-12895052D01*
X10597443Y-12885528D01*
X10587919Y-12866481D01*
X10578395Y-12828386D01*
X10578395Y-12780767D01*
X10587919Y-12742671D01*
X10597443Y-12723624D01*
X10606967Y-12714100D01*
X10626014Y-12704576D01*
X10778395Y-12885528D02*
X10787919Y-12895052D01*
X10778395Y-12904576D01*
X10768871Y-12895052D01*
X10778395Y-12885528D01*
X10778395Y-12904576D01*
X10854586Y-12704576D02*
X10978395Y-12704576D01*
X10911729Y-12780767D01*
X10940300Y-12780767D01*
X10959348Y-12790290D01*
X10968871Y-12799814D01*
X10978395Y-12818862D01*
X10978395Y-12866481D01*
X10968871Y-12885528D01*
X10959348Y-12895052D01*
X10940300Y-12904576D01*
X10883157Y-12904576D01*
X10864110Y-12895052D01*
X10854586Y-12885528D01*
X11045062Y-12704576D02*
X11168871Y-12704576D01*
X11102205Y-12780767D01*
X11130776Y-12780767D01*
X11149824Y-12790290D01*
X11159348Y-12799814D01*
X11168871Y-12818862D01*
X11168871Y-12866481D01*
X11159348Y-12885528D01*
X11149824Y-12895052D01*
X11130776Y-12904576D01*
X11073633Y-12904576D01*
X11054586Y-12895052D01*
X11045062Y-12885528D01*
X11292681Y-12704576D02*
X11311728Y-12704576D01*
X11330776Y-12714100D01*
X11340300Y-12723624D01*
X11349824Y-12742671D01*
X11359348Y-12780767D01*
X11359348Y-12828386D01*
X11349824Y-12866481D01*
X11340300Y-12885528D01*
X11330776Y-12895052D01*
X11311728Y-12904576D01*
X11292681Y-12904576D01*
X11273633Y-12895052D01*
X11264109Y-12885528D01*
X11254586Y-12866481D01*
X11245062Y-12828386D01*
X11245062Y-12780767D01*
X11254586Y-12742671D01*
X11264109Y-12723624D01*
X11273633Y-12714100D01*
X11292681Y-12704576D01*
X11445062Y-12904576D02*
X11445062Y-12771243D01*
X11445062Y-12790290D02*
X11454586Y-12780767D01*
X11473633Y-12771243D01*
X11502205Y-12771243D01*
X11521252Y-12780767D01*
X11530776Y-12799814D01*
X11530776Y-12904576D01*
X11530776Y-12799814D02*
X11540300Y-12780767D01*
X11559348Y-12771243D01*
X11587919Y-12771243D01*
X11606967Y-12780767D01*
X11616490Y-12799814D01*
X11616490Y-12904576D01*
X11711728Y-12904576D02*
X11711728Y-12771243D01*
X11711728Y-12790290D02*
X11721252Y-12780767D01*
X11740300Y-12771243D01*
X11768871Y-12771243D01*
X11787919Y-12780767D01*
X11797443Y-12799814D01*
X11797443Y-12904576D01*
X11797443Y-12799814D02*
X11806967Y-12780767D01*
X11826014Y-12771243D01*
X11854586Y-12771243D01*
X11873633Y-12780767D01*
X11883157Y-12799814D01*
X11883157Y-12904576D01*
X12273633Y-12695052D02*
X12102205Y-12952195D01*
X12530776Y-12704576D02*
X12549824Y-12704576D01*
X12568871Y-12714100D01*
X12578395Y-12723624D01*
X12587919Y-12742671D01*
X12597443Y-12780767D01*
X12597443Y-12828386D01*
X12587919Y-12866481D01*
X12578395Y-12885528D01*
X12568871Y-12895052D01*
X12549824Y-12904576D01*
X12530776Y-12904576D01*
X12511728Y-12895052D01*
X12502205Y-12885528D01*
X12492681Y-12866481D01*
X12483157Y-12828386D01*
X12483157Y-12780767D01*
X12492681Y-12742671D01*
X12502205Y-12723624D01*
X12511728Y-12714100D01*
X12530776Y-12704576D01*
X12683157Y-12885528D02*
X12692681Y-12895052D01*
X12683157Y-12904576D01*
X12673633Y-12895052D01*
X12683157Y-12885528D01*
X12683157Y-12904576D01*
X12816490Y-12704576D02*
X12835538Y-12704576D01*
X12854586Y-12714100D01*
X12864109Y-12723624D01*
X12873633Y-12742671D01*
X12883157Y-12780767D01*
X12883157Y-12828386D01*
X12873633Y-12866481D01*
X12864109Y-12885528D01*
X12854586Y-12895052D01*
X12835538Y-12904576D01*
X12816490Y-12904576D01*
X12797443Y-12895052D01*
X12787919Y-12885528D01*
X12778395Y-12866481D01*
X12768871Y-12828386D01*
X12768871Y-12780767D01*
X12778395Y-12742671D01*
X12787919Y-12723624D01*
X12797443Y-12714100D01*
X12816490Y-12704576D01*
X13073633Y-12904576D02*
X12959348Y-12904576D01*
X13016490Y-12904576D02*
X13016490Y-12704576D01*
X12997443Y-12733148D01*
X12978395Y-12752195D01*
X12959348Y-12761719D01*
X13140300Y-12704576D02*
X13264109Y-12704576D01*
X13197443Y-12780767D01*
X13226014Y-12780767D01*
X13245062Y-12790290D01*
X13254586Y-12799814D01*
X13264109Y-12818862D01*
X13264109Y-12866481D01*
X13254586Y-12885528D01*
X13245062Y-12895052D01*
X13226014Y-12904576D01*
X13168871Y-12904576D01*
X13149824Y-12895052D01*
X13140300Y-12885528D01*
X13387919Y-12704576D02*
X13406967Y-12704576D01*
X13426014Y-12714100D01*
X13435538Y-12723624D01*
X13445062Y-12742671D01*
X13454586Y-12780767D01*
X13454586Y-12828386D01*
X13445062Y-12866481D01*
X13435538Y-12885528D01*
X13426014Y-12895052D01*
X13406967Y-12904576D01*
X13387919Y-12904576D01*
X13368871Y-12895052D01*
X13359348Y-12885528D01*
X13349824Y-12866481D01*
X13340300Y-12828386D01*
X13340300Y-12780767D01*
X13349824Y-12742671D01*
X13359348Y-12723624D01*
X13368871Y-12714100D01*
X13387919Y-12704576D01*
X13530776Y-12704576D02*
X13530776Y-12742671D01*
X13606967Y-12704576D02*
X13606967Y-12742671D01*
X13902205Y-12980767D02*
X13892681Y-12971243D01*
X13873633Y-12942671D01*
X13864109Y-12923624D01*
X13854586Y-12895052D01*
X13845062Y-12847433D01*
X13845062Y-12809338D01*
X13854586Y-12761719D01*
X13864109Y-12733148D01*
X13873633Y-12714100D01*
X13892681Y-12685528D01*
X13902205Y-12676005D01*
X13959348Y-12704576D02*
X14092681Y-12704576D01*
X14006967Y-12904576D01*
X14273633Y-12904576D02*
X14159348Y-12904576D01*
X14216490Y-12904576D02*
X14216490Y-12704576D01*
X14197443Y-12733148D01*
X14178395Y-12752195D01*
X14159348Y-12761719D01*
X14511728Y-12904576D02*
X14511728Y-12704576D01*
X14597443Y-12904576D02*
X14597443Y-12799814D01*
X14587919Y-12780767D01*
X14568871Y-12771243D01*
X14540300Y-12771243D01*
X14521252Y-12780767D01*
X14511728Y-12790290D01*
X14721252Y-12904576D02*
X14702205Y-12895052D01*
X14692681Y-12885528D01*
X14683157Y-12866481D01*
X14683157Y-12809338D01*
X14692681Y-12790290D01*
X14702205Y-12780767D01*
X14721252Y-12771243D01*
X14749824Y-12771243D01*
X14768871Y-12780767D01*
X14778395Y-12790290D01*
X14787919Y-12809338D01*
X14787919Y-12866481D01*
X14778395Y-12885528D01*
X14768871Y-12895052D01*
X14749824Y-12904576D01*
X14721252Y-12904576D01*
X14902205Y-12904576D02*
X14883157Y-12895052D01*
X14873633Y-12876005D01*
X14873633Y-12704576D01*
X15054586Y-12895052D02*
X15035538Y-12904576D01*
X14997443Y-12904576D01*
X14978395Y-12895052D01*
X14968871Y-12876005D01*
X14968871Y-12799814D01*
X14978395Y-12780767D01*
X14997443Y-12771243D01*
X15035538Y-12771243D01*
X15054586Y-12780767D01*
X15064109Y-12799814D01*
X15064109Y-12818862D01*
X14968871Y-12837909D01*
X15140300Y-12895052D02*
X15159348Y-12904576D01*
X15197443Y-12904576D01*
X15216490Y-12895052D01*
X15226014Y-12876005D01*
X15226014Y-12866481D01*
X15216490Y-12847433D01*
X15197443Y-12837909D01*
X15168871Y-12837909D01*
X15149824Y-12828386D01*
X15140300Y-12809338D01*
X15140300Y-12799814D01*
X15149824Y-12780767D01*
X15168871Y-12771243D01*
X15197443Y-12771243D01*
X15216490Y-12780767D01*
X15292681Y-12980767D02*
X15302205Y-12971243D01*
X15321252Y-12942671D01*
X15330776Y-12923624D01*
X15340300Y-12895052D01*
X15349824Y-12847433D01*
X15349824Y-12809338D01*
X15340300Y-12761719D01*
X15330776Y-12733148D01*
X15321252Y-12714100D01*
X15302205Y-12685528D01*
X15292681Y-12676005D01*
D13*
X10330300Y-13078100D02*
G75*
G03*
X10330300Y-13078100I-40000J0D01*
G01*
D11*
X10626014Y-12968576D02*
X10645062Y-12968576D01*
X10664110Y-12978100D01*
X10673633Y-12987624D01*
X10683157Y-13006671D01*
X10692681Y-13044767D01*
X10692681Y-13092386D01*
X10683157Y-13130481D01*
X10673633Y-13149528D01*
X10664110Y-13159052D01*
X10645062Y-13168576D01*
X10626014Y-13168576D01*
X10606967Y-13159052D01*
X10597443Y-13149528D01*
X10587919Y-13130481D01*
X10578395Y-13092386D01*
X10578395Y-13044767D01*
X10587919Y-13006671D01*
X10597443Y-12987624D01*
X10606967Y-12978100D01*
X10626014Y-12968576D01*
X10778395Y-13149528D02*
X10787919Y-13159052D01*
X10778395Y-13168576D01*
X10768871Y-13159052D01*
X10778395Y-13149528D01*
X10778395Y-13168576D01*
X10902205Y-13054290D02*
X10883157Y-13044767D01*
X10873633Y-13035243D01*
X10864110Y-13016195D01*
X10864110Y-13006671D01*
X10873633Y-12987624D01*
X10883157Y-12978100D01*
X10902205Y-12968576D01*
X10940300Y-12968576D01*
X10959348Y-12978100D01*
X10968871Y-12987624D01*
X10978395Y-13006671D01*
X10978395Y-13016195D01*
X10968871Y-13035243D01*
X10959348Y-13044767D01*
X10940300Y-13054290D01*
X10902205Y-13054290D01*
X10883157Y-13063814D01*
X10873633Y-13073338D01*
X10864110Y-13092386D01*
X10864110Y-13130481D01*
X10873633Y-13149528D01*
X10883157Y-13159052D01*
X10902205Y-13168576D01*
X10940300Y-13168576D01*
X10959348Y-13159052D01*
X10968871Y-13149528D01*
X10978395Y-13130481D01*
X10978395Y-13092386D01*
X10968871Y-13073338D01*
X10959348Y-13063814D01*
X10940300Y-13054290D01*
X11102205Y-12968576D02*
X11121252Y-12968576D01*
X11140300Y-12978100D01*
X11149824Y-12987624D01*
X11159348Y-13006671D01*
X11168871Y-13044767D01*
X11168871Y-13092386D01*
X11159348Y-13130481D01*
X11149824Y-13149528D01*
X11140300Y-13159052D01*
X11121252Y-13168576D01*
X11102205Y-13168576D01*
X11083157Y-13159052D01*
X11073633Y-13149528D01*
X11064110Y-13130481D01*
X11054586Y-13092386D01*
X11054586Y-13044767D01*
X11064110Y-13006671D01*
X11073633Y-12987624D01*
X11083157Y-12978100D01*
X11102205Y-12968576D01*
X11292681Y-12968576D02*
X11311728Y-12968576D01*
X11330776Y-12978100D01*
X11340300Y-12987624D01*
X11349824Y-13006671D01*
X11359348Y-13044767D01*
X11359348Y-13092386D01*
X11349824Y-13130481D01*
X11340300Y-13149528D01*
X11330776Y-13159052D01*
X11311728Y-13168576D01*
X11292681Y-13168576D01*
X11273633Y-13159052D01*
X11264109Y-13149528D01*
X11254586Y-13130481D01*
X11245062Y-13092386D01*
X11245062Y-13044767D01*
X11254586Y-13006671D01*
X11264109Y-12987624D01*
X11273633Y-12978100D01*
X11292681Y-12968576D01*
X11445062Y-13168576D02*
X11445062Y-13035243D01*
X11445062Y-13054290D02*
X11454586Y-13044767D01*
X11473633Y-13035243D01*
X11502205Y-13035243D01*
X11521252Y-13044767D01*
X11530776Y-13063814D01*
X11530776Y-13168576D01*
X11530776Y-13063814D02*
X11540300Y-13044767D01*
X11559348Y-13035243D01*
X11587919Y-13035243D01*
X11606967Y-13044767D01*
X11616490Y-13063814D01*
X11616490Y-13168576D01*
X11711728Y-13168576D02*
X11711728Y-13035243D01*
X11711728Y-13054290D02*
X11721252Y-13044767D01*
X11740300Y-13035243D01*
X11768871Y-13035243D01*
X11787919Y-13044767D01*
X11797443Y-13063814D01*
X11797443Y-13168576D01*
X11797443Y-13063814D02*
X11806967Y-13044767D01*
X11826014Y-13035243D01*
X11854586Y-13035243D01*
X11873633Y-13044767D01*
X11883157Y-13063814D01*
X11883157Y-13168576D01*
X12273633Y-12959052D02*
X12102205Y-13216195D01*
X12530776Y-12968576D02*
X12549824Y-12968576D01*
X12568871Y-12978100D01*
X12578395Y-12987624D01*
X12587919Y-13006671D01*
X12597443Y-13044767D01*
X12597443Y-13092386D01*
X12587919Y-13130481D01*
X12578395Y-13149528D01*
X12568871Y-13159052D01*
X12549824Y-13168576D01*
X12530776Y-13168576D01*
X12511728Y-13159052D01*
X12502205Y-13149528D01*
X12492681Y-13130481D01*
X12483157Y-13092386D01*
X12483157Y-13044767D01*
X12492681Y-13006671D01*
X12502205Y-12987624D01*
X12511728Y-12978100D01*
X12530776Y-12968576D01*
X12683157Y-13149528D02*
X12692681Y-13159052D01*
X12683157Y-13168576D01*
X12673633Y-13159052D01*
X12683157Y-13149528D01*
X12683157Y-13168576D01*
X12816490Y-12968576D02*
X12835538Y-12968576D01*
X12854586Y-12978100D01*
X12864109Y-12987624D01*
X12873633Y-13006671D01*
X12883157Y-13044767D01*
X12883157Y-13092386D01*
X12873633Y-13130481D01*
X12864109Y-13149528D01*
X12854586Y-13159052D01*
X12835538Y-13168576D01*
X12816490Y-13168576D01*
X12797443Y-13159052D01*
X12787919Y-13149528D01*
X12778395Y-13130481D01*
X12768871Y-13092386D01*
X12768871Y-13044767D01*
X12778395Y-13006671D01*
X12787919Y-12987624D01*
X12797443Y-12978100D01*
X12816490Y-12968576D01*
X12949824Y-12968576D02*
X13073633Y-12968576D01*
X13006967Y-13044767D01*
X13035538Y-13044767D01*
X13054586Y-13054290D01*
X13064109Y-13063814D01*
X13073633Y-13082862D01*
X13073633Y-13130481D01*
X13064109Y-13149528D01*
X13054586Y-13159052D01*
X13035538Y-13168576D01*
X12978395Y-13168576D01*
X12959348Y-13159052D01*
X12949824Y-13149528D01*
X13264109Y-13168576D02*
X13149824Y-13168576D01*
X13206967Y-13168576D02*
X13206967Y-12968576D01*
X13187919Y-12997148D01*
X13168871Y-13016195D01*
X13149824Y-13025719D01*
X13445062Y-12968576D02*
X13349824Y-12968576D01*
X13340300Y-13063814D01*
X13349824Y-13054290D01*
X13368871Y-13044767D01*
X13416490Y-13044767D01*
X13435538Y-13054290D01*
X13445062Y-13063814D01*
X13454586Y-13082862D01*
X13454586Y-13130481D01*
X13445062Y-13149528D01*
X13435538Y-13159052D01*
X13416490Y-13168576D01*
X13368871Y-13168576D01*
X13349824Y-13159052D01*
X13340300Y-13149528D01*
X13530776Y-12968576D02*
X13530776Y-13006671D01*
X13606967Y-12968576D02*
X13606967Y-13006671D01*
X13902205Y-13244767D02*
X13892681Y-13235243D01*
X13873633Y-13206671D01*
X13864109Y-13187624D01*
X13854586Y-13159052D01*
X13845062Y-13111433D01*
X13845062Y-13073338D01*
X13854586Y-13025719D01*
X13864109Y-12997148D01*
X13873633Y-12978100D01*
X13892681Y-12949528D01*
X13902205Y-12940005D01*
X14006967Y-13054290D02*
X13987919Y-13044767D01*
X13978395Y-13035243D01*
X13968871Y-13016195D01*
X13968871Y-13006671D01*
X13978395Y-12987624D01*
X13987919Y-12978100D01*
X14006967Y-12968576D01*
X14045062Y-12968576D01*
X14064109Y-12978100D01*
X14073633Y-12987624D01*
X14083157Y-13006671D01*
X14083157Y-13016195D01*
X14073633Y-13035243D01*
X14064109Y-13044767D01*
X14045062Y-13054290D01*
X14006967Y-13054290D01*
X13987919Y-13063814D01*
X13978395Y-13073338D01*
X13968871Y-13092386D01*
X13968871Y-13130481D01*
X13978395Y-13149528D01*
X13987919Y-13159052D01*
X14006967Y-13168576D01*
X14045062Y-13168576D01*
X14064109Y-13159052D01*
X14073633Y-13149528D01*
X14083157Y-13130481D01*
X14083157Y-13092386D01*
X14073633Y-13073338D01*
X14064109Y-13063814D01*
X14045062Y-13054290D01*
X14254586Y-13035243D02*
X14254586Y-13168576D01*
X14206967Y-12959052D02*
X14159348Y-13101909D01*
X14283157Y-13101909D01*
X14511728Y-13168576D02*
X14511728Y-12968576D01*
X14597443Y-13168576D02*
X14597443Y-13063814D01*
X14587919Y-13044767D01*
X14568871Y-13035243D01*
X14540300Y-13035243D01*
X14521252Y-13044767D01*
X14511728Y-13054290D01*
X14721252Y-13168576D02*
X14702205Y-13159052D01*
X14692681Y-13149528D01*
X14683157Y-13130481D01*
X14683157Y-13073338D01*
X14692681Y-13054290D01*
X14702205Y-13044767D01*
X14721252Y-13035243D01*
X14749824Y-13035243D01*
X14768871Y-13044767D01*
X14778395Y-13054290D01*
X14787919Y-13073338D01*
X14787919Y-13130481D01*
X14778395Y-13149528D01*
X14768871Y-13159052D01*
X14749824Y-13168576D01*
X14721252Y-13168576D01*
X14902205Y-13168576D02*
X14883157Y-13159052D01*
X14873633Y-13140005D01*
X14873633Y-12968576D01*
X15054586Y-13159052D02*
X15035538Y-13168576D01*
X14997443Y-13168576D01*
X14978395Y-13159052D01*
X14968871Y-13140005D01*
X14968871Y-13063814D01*
X14978395Y-13044767D01*
X14997443Y-13035243D01*
X15035538Y-13035243D01*
X15054586Y-13044767D01*
X15064109Y-13063814D01*
X15064109Y-13082862D01*
X14968871Y-13101909D01*
X15140300Y-13159052D02*
X15159348Y-13168576D01*
X15197443Y-13168576D01*
X15216490Y-13159052D01*
X15226014Y-13140005D01*
X15226014Y-13130481D01*
X15216490Y-13111433D01*
X15197443Y-13101909D01*
X15168871Y-13101909D01*
X15149824Y-13092386D01*
X15140300Y-13073338D01*
X15140300Y-13063814D01*
X15149824Y-13044767D01*
X15168871Y-13035243D01*
X15197443Y-13035243D01*
X15216490Y-13044767D01*
X15292681Y-13244767D02*
X15302205Y-13235243D01*
X15321252Y-13206671D01*
X15330776Y-13187624D01*
X15340300Y-13159052D01*
X15349824Y-13111433D01*
X15349824Y-13073338D01*
X15340300Y-13025719D01*
X15330776Y-12997148D01*
X15321252Y-12978100D01*
X15302205Y-12949528D01*
X15292681Y-12940005D01*
D14*
X10279500Y-13291300D02*
X10279500Y-13392900D01*
X10228700Y-13342100D02*
X10330300Y-13342100D01*
D11*
X10692681Y-13432576D02*
X10578395Y-13432576D01*
X10635538Y-13432576D02*
X10635538Y-13232576D01*
X10616490Y-13261148D01*
X10597443Y-13280195D01*
X10578395Y-13289719D01*
X10778395Y-13413528D02*
X10787919Y-13423052D01*
X10778395Y-13432576D01*
X10768871Y-13423052D01*
X10778395Y-13413528D01*
X10778395Y-13432576D01*
X10911729Y-13232576D02*
X10930776Y-13232576D01*
X10949824Y-13242100D01*
X10959348Y-13251624D01*
X10968871Y-13270671D01*
X10978395Y-13308767D01*
X10978395Y-13356386D01*
X10968871Y-13394481D01*
X10959348Y-13413528D01*
X10949824Y-13423052D01*
X10930776Y-13432576D01*
X10911729Y-13432576D01*
X10892681Y-13423052D01*
X10883157Y-13413528D01*
X10873633Y-13394481D01*
X10864110Y-13356386D01*
X10864110Y-13308767D01*
X10873633Y-13270671D01*
X10883157Y-13251624D01*
X10892681Y-13242100D01*
X10911729Y-13232576D01*
X11168871Y-13432576D02*
X11054586Y-13432576D01*
X11111729Y-13432576D02*
X11111729Y-13232576D01*
X11092681Y-13261148D01*
X11073633Y-13280195D01*
X11054586Y-13289719D01*
X11340300Y-13232576D02*
X11302205Y-13232576D01*
X11283157Y-13242100D01*
X11273633Y-13251624D01*
X11254586Y-13280195D01*
X11245062Y-13318290D01*
X11245062Y-13394481D01*
X11254586Y-13413528D01*
X11264109Y-13423052D01*
X11283157Y-13432576D01*
X11321252Y-13432576D01*
X11340300Y-13423052D01*
X11349824Y-13413528D01*
X11359348Y-13394481D01*
X11359348Y-13346862D01*
X11349824Y-13327814D01*
X11340300Y-13318290D01*
X11321252Y-13308767D01*
X11283157Y-13308767D01*
X11264109Y-13318290D01*
X11254586Y-13327814D01*
X11245062Y-13346862D01*
X11445062Y-13432576D02*
X11445062Y-13299243D01*
X11445062Y-13318290D02*
X11454586Y-13308767D01*
X11473633Y-13299243D01*
X11502205Y-13299243D01*
X11521252Y-13308767D01*
X11530776Y-13327814D01*
X11530776Y-13432576D01*
X11530776Y-13327814D02*
X11540300Y-13308767D01*
X11559348Y-13299243D01*
X11587919Y-13299243D01*
X11606967Y-13308767D01*
X11616490Y-13327814D01*
X11616490Y-13432576D01*
X11711728Y-13432576D02*
X11711728Y-13299243D01*
X11711728Y-13318290D02*
X11721252Y-13308767D01*
X11740300Y-13299243D01*
X11768871Y-13299243D01*
X11787919Y-13308767D01*
X11797443Y-13327814D01*
X11797443Y-13432576D01*
X11797443Y-13327814D02*
X11806967Y-13308767D01*
X11826014Y-13299243D01*
X11854586Y-13299243D01*
X11873633Y-13308767D01*
X11883157Y-13327814D01*
X11883157Y-13432576D01*
X12273633Y-13223052D02*
X12102205Y-13480195D01*
X12530776Y-13232576D02*
X12549824Y-13232576D01*
X12568871Y-13242100D01*
X12578395Y-13251624D01*
X12587919Y-13270671D01*
X12597443Y-13308767D01*
X12597443Y-13356386D01*
X12587919Y-13394481D01*
X12578395Y-13413528D01*
X12568871Y-13423052D01*
X12549824Y-13432576D01*
X12530776Y-13432576D01*
X12511728Y-13423052D01*
X12502205Y-13413528D01*
X12492681Y-13394481D01*
X12483157Y-13356386D01*
X12483157Y-13308767D01*
X12492681Y-13270671D01*
X12502205Y-13251624D01*
X12511728Y-13242100D01*
X12530776Y-13232576D01*
X12683157Y-13413528D02*
X12692681Y-13423052D01*
X12683157Y-13432576D01*
X12673633Y-13423052D01*
X12683157Y-13413528D01*
X12683157Y-13432576D01*
X12816490Y-13232576D02*
X12835538Y-13232576D01*
X12854586Y-13242100D01*
X12864109Y-13251624D01*
X12873633Y-13270671D01*
X12883157Y-13308767D01*
X12883157Y-13356386D01*
X12873633Y-13394481D01*
X12864109Y-13413528D01*
X12854586Y-13423052D01*
X12835538Y-13432576D01*
X12816490Y-13432576D01*
X12797443Y-13423052D01*
X12787919Y-13413528D01*
X12778395Y-13394481D01*
X12768871Y-13356386D01*
X12768871Y-13308767D01*
X12778395Y-13270671D01*
X12787919Y-13251624D01*
X12797443Y-13242100D01*
X12816490Y-13232576D01*
X13054586Y-13299243D02*
X13054586Y-13432576D01*
X13006967Y-13223052D02*
X12959348Y-13365909D01*
X13083157Y-13365909D01*
X13197443Y-13232576D02*
X13216490Y-13232576D01*
X13235538Y-13242100D01*
X13245062Y-13251624D01*
X13254586Y-13270671D01*
X13264109Y-13308767D01*
X13264109Y-13356386D01*
X13254586Y-13394481D01*
X13245062Y-13413528D01*
X13235538Y-13423052D01*
X13216490Y-13432576D01*
X13197443Y-13432576D01*
X13178395Y-13423052D01*
X13168871Y-13413528D01*
X13159348Y-13394481D01*
X13149824Y-13356386D01*
X13149824Y-13308767D01*
X13159348Y-13270671D01*
X13168871Y-13251624D01*
X13178395Y-13242100D01*
X13197443Y-13232576D01*
X13387919Y-13232576D02*
X13406967Y-13232576D01*
X13426014Y-13242100D01*
X13435538Y-13251624D01*
X13445062Y-13270671D01*
X13454586Y-13308767D01*
X13454586Y-13356386D01*
X13445062Y-13394481D01*
X13435538Y-13413528D01*
X13426014Y-13423052D01*
X13406967Y-13432576D01*
X13387919Y-13432576D01*
X13368871Y-13423052D01*
X13359348Y-13413528D01*
X13349824Y-13394481D01*
X13340300Y-13356386D01*
X13340300Y-13308767D01*
X13349824Y-13270671D01*
X13359348Y-13251624D01*
X13368871Y-13242100D01*
X13387919Y-13232576D01*
X13530776Y-13232576D02*
X13530776Y-13270671D01*
X13606967Y-13232576D02*
X13606967Y-13270671D01*
X13902205Y-13508767D02*
X13892681Y-13499243D01*
X13873633Y-13470671D01*
X13864109Y-13451624D01*
X13854586Y-13423052D01*
X13845062Y-13375433D01*
X13845062Y-13337338D01*
X13854586Y-13289719D01*
X13864109Y-13261148D01*
X13873633Y-13242100D01*
X13892681Y-13213528D01*
X13902205Y-13204005D01*
X14006967Y-13318290D02*
X13987919Y-13308767D01*
X13978395Y-13299243D01*
X13968871Y-13280195D01*
X13968871Y-13270671D01*
X13978395Y-13251624D01*
X13987919Y-13242100D01*
X14006967Y-13232576D01*
X14045062Y-13232576D01*
X14064109Y-13242100D01*
X14073633Y-13251624D01*
X14083157Y-13270671D01*
X14083157Y-13280195D01*
X14073633Y-13299243D01*
X14064109Y-13308767D01*
X14045062Y-13318290D01*
X14006967Y-13318290D01*
X13987919Y-13327814D01*
X13978395Y-13337338D01*
X13968871Y-13356386D01*
X13968871Y-13394481D01*
X13978395Y-13413528D01*
X13987919Y-13423052D01*
X14006967Y-13432576D01*
X14045062Y-13432576D01*
X14064109Y-13423052D01*
X14073633Y-13413528D01*
X14083157Y-13394481D01*
X14083157Y-13356386D01*
X14073633Y-13337338D01*
X14064109Y-13327814D01*
X14045062Y-13318290D01*
X14254586Y-13232576D02*
X14216490Y-13232576D01*
X14197443Y-13242100D01*
X14187919Y-13251624D01*
X14168871Y-13280195D01*
X14159348Y-13318290D01*
X14159348Y-13394481D01*
X14168871Y-13413528D01*
X14178395Y-13423052D01*
X14197443Y-13432576D01*
X14235538Y-13432576D01*
X14254586Y-13423052D01*
X14264109Y-13413528D01*
X14273633Y-13394481D01*
X14273633Y-13346862D01*
X14264109Y-13327814D01*
X14254586Y-13318290D01*
X14235538Y-13308767D01*
X14197443Y-13308767D01*
X14178395Y-13318290D01*
X14168871Y-13327814D01*
X14159348Y-13346862D01*
X14511728Y-13432576D02*
X14511728Y-13232576D01*
X14597443Y-13432576D02*
X14597443Y-13327814D01*
X14587919Y-13308767D01*
X14568871Y-13299243D01*
X14540300Y-13299243D01*
X14521252Y-13308767D01*
X14511728Y-13318290D01*
X14721252Y-13432576D02*
X14702205Y-13423052D01*
X14692681Y-13413528D01*
X14683157Y-13394481D01*
X14683157Y-13337338D01*
X14692681Y-13318290D01*
X14702205Y-13308767D01*
X14721252Y-13299243D01*
X14749824Y-13299243D01*
X14768871Y-13308767D01*
X14778395Y-13318290D01*
X14787919Y-13337338D01*
X14787919Y-13394481D01*
X14778395Y-13413528D01*
X14768871Y-13423052D01*
X14749824Y-13432576D01*
X14721252Y-13432576D01*
X14902205Y-13432576D02*
X14883157Y-13423052D01*
X14873633Y-13404005D01*
X14873633Y-13232576D01*
X15054586Y-13423052D02*
X15035538Y-13432576D01*
X14997443Y-13432576D01*
X14978395Y-13423052D01*
X14968871Y-13404005D01*
X14968871Y-13327814D01*
X14978395Y-13308767D01*
X14997443Y-13299243D01*
X15035538Y-13299243D01*
X15054586Y-13308767D01*
X15064109Y-13327814D01*
X15064109Y-13346862D01*
X14968871Y-13365909D01*
X15140300Y-13423052D02*
X15159348Y-13432576D01*
X15197443Y-13432576D01*
X15216490Y-13423052D01*
X15226014Y-13404005D01*
X15226014Y-13394481D01*
X15216490Y-13375433D01*
X15197443Y-13365909D01*
X15168871Y-13365909D01*
X15149824Y-13356386D01*
X15140300Y-13337338D01*
X15140300Y-13327814D01*
X15149824Y-13308767D01*
X15168871Y-13299243D01*
X15197443Y-13299243D01*
X15216490Y-13308767D01*
X15292681Y-13508767D02*
X15302205Y-13499243D01*
X15321252Y-13470671D01*
X15330776Y-13451624D01*
X15340300Y-13423052D01*
X15349824Y-13375433D01*
X15349824Y-13337338D01*
X15340300Y-13289719D01*
X15330776Y-13261148D01*
X15321252Y-13242100D01*
X15302205Y-13213528D01*
X15292681Y-13204005D01*
M02*
